<svg class="ldi-yoznrn" width="300px"  height="300px"  xmlns="http://www.w3.org/2000/svg" xmlns:xlink="http://www.w3.org/1999/xlink" viewBox="0 0 100 100" preserveAspectRatio="xMidYMid" style="background: none;"><!--?xml version="1.0" encoding="utf-8"?--><!--Generator: Adobe Illustrator 21.0.0, SVG Export Plug-In . SVG Version: 6.00 Build 0)--><svg version="1.1" id="Layer_1" xmlns="http://www.w3.org/2000/svg" xmlns:xlink="http://www.w3.org/1999/xlink" x="0px" y="0px" viewBox="0 0 100 100" style="transform-origin: 50px 50px 0px;" xml:space="preserve"><g style="transform-origin: 50px 50px 0px;"><g style="transform-origin: 50px 50px 0px; transform: scale(0.6);"><g style="transform-origin: 50px 50px 0px;"><g><style type="text/css" class="ld ld-breath" style="transform-origin: 50px 50px 0px; animation-duration: 1s; animation-delay: -1s; animation-direction: normal;">.st0{fill:#F4E6C8;} .st1{opacity:0.8;fill:#849B87;} .st2{fill:#D65A62;} .st3{fill:#E15C64;} .st4{fill:#F47E5F;} .st5{fill:#F7B26A;} .st6{fill:#FEE8A2;} .st7{fill:#ACBD81;} .st8{fill:#F5E169;} .st9{fill:#F0AF6B;} .st10{fill:#EA7C60;} .st11{fill:#A8B980;} .st12{fill:#829985;} .st13{fill:#798AAE;} .st14{fill:#8672A7;} .st15{fill:#CC5960;} .st16{fill:#E17A5F;} .st17{fill:#849B87;} .st18{opacity:0.8;fill:#E15C64;} .st19{opacity:0.8;fill:#F7B26A;} .st20{fill:#79A5B5;} .st21{opacity:0.8;fill:#79A5B4;} .st22{fill:#666766;}</style><g class="ld ld-breath" style="transform-origin: 50px 50px 0px; animation-duration: 1s; animation-delay: -0.954545s; animation-direction: normal;"><path class="st4" d="M50,7.5c3.6,2.7,5.9,7,5.9,11.8s-2.3,9.1-5.9,11.8c-3.6-2.7-5.9-7-5.9-11.8S46.4,10.2,50,7.5z" fill="#fdfdfd" style="fill: rgb(253, 253, 253);"></path></g><g class="ld ld-breath" style="transform-origin: 50px 50px 0px; animation-duration: 1s; animation-delay: -0.909091s; animation-direction: normal;"><path class="st3" d="M29.5,26.3c2.4,4.2,6.6,6.7,11,7.3c1.8-4.1,1.6-9-0.8-13.2s-6.6-6.7-11-7.3C27,17.3,27.1,22.2,29.5,26.3z" fill="#85a2b6" style="fill: rgb(133, 162, 182);"></path></g><g class="ld ld-breath" style="transform-origin: 50px 50px 0px; animation-duration: 1s; animation-delay: -0.863636s; animation-direction: normal;"><path class="st5" d="M20.5,39.7c4.2,2.4,9,2.5,13.2,0.8c-0.5-4.4-3.1-8.6-7.3-11s-9-2.5-13.2-0.8C13.7,33.2,16.3,37.3,20.5,39.7z" fill="#bbcedd" style="fill: rgb(187, 206, 221);"></path></g><g class="ld ld-breath" style="transform-origin: 50px 50px 0px; animation-duration: 1s; animation-delay: -0.818182s; animation-direction: normal;"><path class="st4" d="M19.3,55.9c4.8,0,9.1-2.3,11.8-5.9c-2.7-3.6-7-5.9-11.8-5.9S10.2,46.4,7.5,50C10.2,53.6,14.5,55.9,19.3,55.9z" fill="#fdfdfd" style="fill: rgb(253, 253, 253);"></path></g><g class="ld ld-breath" style="transform-origin: 50px 50px 0px; animation-duration: 1s; animation-delay: -0.772727s; animation-direction: normal;"><path class="st3" d="M26.3,70.5c4.2-2.4,6.7-6.6,7.3-11c-4.1-1.8-9-1.6-13.2,0.8s-6.7,6.6-7.3,11C17.3,73,22.2,72.9,26.3,70.5z" fill="#85a2b6" style="fill: rgb(133, 162, 182);"></path></g><g class="ld ld-breath" style="transform-origin: 50px 50px 0px; animation-duration: 1s; animation-delay: -0.727273s; animation-direction: normal;"><path class="st5" d="M39.7,79.5c2.4-4.2,2.5-9,0.8-13.2c-4.4,0.5-8.6,3.1-11,7.3s-2.5,9-0.8,13.2C33.2,86.3,37.3,83.7,39.7,79.5z" fill="#bbcedd" style="fill: rgb(187, 206, 221);"></path></g><g class="ld ld-breath" style="transform-origin: 50px 50px 0px; animation-duration: 1s; animation-delay: -0.681818s; animation-direction: normal;"><path class="st4" d="M55.9,80.7c0-4.8-2.3-9.1-5.9-11.8c-3.6,2.7-5.9,7-5.9,11.8s2.3,9.1,5.9,11.8C53.6,89.8,55.9,85.5,55.9,80.7z" fill="#fdfdfd" style="fill: rgb(253, 253, 253);"></path></g><g class="ld ld-breath" style="transform-origin: 50px 50px 0px; animation-duration: 1s; animation-delay: -0.636364s; animation-direction: normal;"><path class="st3" d="M70.5,73.7c-2.4-4.2-6.6-6.7-11-7.3c-1.8,4.1-1.6,9,0.8,13.2s6.6,6.7,11,7.3C73,82.7,72.9,77.8,70.5,73.7z" fill="#85a2b6" style="fill: rgb(133, 162, 182);"></path></g><g class="ld ld-breath" style="transform-origin: 50px 50px 0px; animation-duration: 1s; animation-delay: -0.590909s; animation-direction: normal;"><path class="st5" d="M79.5,60.3c-4.2-2.4-9-2.5-13.2-0.8c0.5,4.4,3.1,8.6,7.3,11s9,2.5,13.2,0.8C86.3,66.8,83.7,62.7,79.5,60.3z" fill="#bbcedd" style="fill: rgb(187, 206, 221);"></path></g><g class="ld ld-breath" style="transform-origin: 50px 50px 0px; animation-duration: 1s; animation-delay: -0.545455s; animation-direction: normal;"><path class="st4" d="M80.7,44.1c-4.8,0-9.1,2.3-11.8,5.9c2.7,3.6,7,5.9,11.8,5.9s9.1-2.3,11.8-5.9C89.8,46.4,85.5,44.1,80.7,44.1z" fill="#fdfdfd" style="fill: rgb(253, 253, 253);"></path></g><g class="ld ld-breath" style="transform-origin: 50px 50px 0px; animation-duration: 1s; animation-delay: -0.5s; animation-direction: normal;"><path class="st3" d="M73.7,29.5c-4.2,2.4-6.7,6.6-7.3,11c4.1,1.8,9,1.6,13.2-0.8s6.7-6.6,7.3-11C82.7,27,77.8,27.1,73.7,29.5z" fill="#85a2b6" style="fill: rgb(133, 162, 182);"></path></g><g class="ld ld-breath" style="transform-origin: 50px 50px 0px; animation-duration: 1s; animation-delay: -0.454545s; animation-direction: normal;"><path class="st5" d="M60.3,20.5c-2.4,4.2-2.5,9-0.8,13.2c4.4-0.5,8.6-3.1,11-7.3s2.5-9,0.8-13.2C66.8,13.7,62.7,16.3,60.3,20.5z" fill="#bbcedd" style="fill: rgb(187, 206, 221);"></path></g><metadata xmlns:d="https://loading.io/stock/" class="ld ld-breath" style="transform-origin: 50px 50px 0px; animation-duration: 1s; animation-delay: -0.409091s; animation-direction: normal;">
<d:name class="ld ld-breath" style="transform-origin: 50px 50px 0px; animation-duration: 1s; animation-delay: -0.363636s; animation-direction: normal;">leaf</d:name>
<d:tags class="ld ld-breath" style="transform-origin: 50px 50px 0px; animation-duration: 1s; animation-delay: -0.318182s; animation-direction: normal;">flower,plant,loader,spinner,preloader,loading icon,leaf,spinner</d:tags>
<d:license class="ld ld-breath" style="transform-origin: 50px 50px 0px; animation-duration: 1s; animation-delay: -0.272727s; animation-direction: normal;">rf</d:license>
<d:slug class="ld ld-breath" style="transform-origin: 50px 50px 0px; animation-duration: 1s; animation-delay: -0.227273s; animation-direction: normal;">yoznrn</d:slug>
</metadata></g></g></g></g><style type="text/css" class="ld ld-breath" style="transform-origin: 50px 50px 0px; animation-duration: 1s; animation-delay: -0.181818s; animation-direction: normal;">@keyframes ld-breath {
  0% {
    -webkit-transform: scale(0.86);
    transform: scale(0.86);
  }
  50% {
    -webkit-transform: scale(1.06);
    transform: scale(1.06);
  }
  100% {
    -webkit-transform: scale(0.86);
    transform: scale(0.86);
  }
}
@-webkit-keyframes ld-breath {
  0% {
    -webkit-transform: scale(0.86);
    transform: scale(0.86);
  }
  50% {
    -webkit-transform: scale(1.06);
    transform: scale(1.06);
  }
  100% {
    -webkit-transform: scale(0.86);
    transform: scale(0.86);
  }
}
.ld.ld-breath {
  -webkit-animation: ld-breath 1s infinite;
  animation: ld-breath 1s infinite;
}
</style></svg></svg>