<?xml version="1.0" encoding="UTF-8" ?>
<!DOCTYPE svg PUBLIC "-//W3C//DTD SVG 1.1//EN" "http://www.w3.org/Graphics/SVG/1.1/DTD/svg11.dtd">
<svg width="910pt" height="801pt" viewBox="0 0 910 801" version="1.1" xmlns="http://www.w3.org/2000/svg">
<g id="#ffffffff">
<path fill="#ffffff" opacity="1.00" d=" M 571.71 38.73 C 585.95 33.41 600.46 26.91 616.03 28.01 C 628.60 28.59 641.22 33.83 649.48 43.52 C 658.17 53.47 661.74 66.95 661.72 79.96 C 661.72 173.32 661.72 266.68 661.72 360.04 C 661.74 364.20 661.33 368.35 660.77 372.47 C 650.85 357.65 638.79 344.23 624.51 333.49 C 624.41 253.33 624.50 173.18 624.47 93.02 C 624.62 84.64 621.00 75.82 613.71 71.26 C 605.99 66.38 596.07 66.85 587.74 69.82 C 478.97 110.40 370.19 150.98 261.42 191.55 C 259.15 192.52 256.79 191.24 254.53 190.85 C 240.36 187.17 225.28 187.49 211.24 191.63 C 224.38 175.18 241.61 161.60 261.54 154.43 C 364.93 115.87 468.31 77.28 571.71 38.73 Z" />
<path fill="#ffffff" opacity="1.00" d=" M 224.48 207.83 C 236.43 205.84 248.76 207.83 260.00 212.09 C 368.75 252.66 477.50 293.22 586.24 333.79 C 605.79 340.93 622.64 354.30 635.69 370.34 C 650.84 389.14 661.60 412.47 661.78 436.94 C 661.80 524.63 661.79 612.31 661.79 700.00 C 661.57 712.83 662.94 726.10 658.50 738.43 C 654.48 750.45 645.41 760.80 633.63 765.68 C 618.92 771.96 601.99 770.29 587.32 764.77 C 479.47 724.55 371.62 684.31 263.78 644.08 C 232.95 633.52 208.13 608.75 194.52 579.47 C 188.67 566.84 185.15 553.01 185.21 539.04 C 185.21 445.67 185.19 352.31 185.22 258.94 C 185.21 246.16 188.70 232.95 197.08 223.05 C 203.97 214.87 213.98 209.56 224.48 207.83 M 232.28 251.29 C 225.41 256.15 222.42 264.86 222.56 273.03 C 222.56 365.02 222.56 457.01 222.56 549.00 C 220.94 574.55 239.52 598.90 263.45 606.67 C 371.44 646.91 479.40 687.24 587.39 727.49 C 595.89 730.70 606.16 731.19 613.98 725.97 C 620.94 721.48 624.34 713.03 624.42 704.97 C 624.47 679.92 624.41 654.86 624.45 629.80 C 598.01 619.79 571.48 610.01 545.00 600.11 C 529.32 594.85 515.83 584.20 505.90 571.11 C 496.70 558.94 490.06 544.32 489.34 528.92 C 489.27 518.93 489.34 508.94 489.30 498.95 C 488.81 484.72 496.74 469.60 510.74 464.88 C 520.54 461.28 531.49 462.37 541.16 465.88 C 568.93 476.14 596.60 486.66 624.40 496.84 C 624.49 475.22 624.41 453.61 624.44 432.00 C 624.38 425.55 624.86 418.98 623.20 412.67 C 619.45 397.75 609.54 384.62 596.71 376.25 C 590.79 372.31 583.91 370.30 577.34 367.78 C 471.26 328.21 365.18 288.62 259.10 249.06 C 250.45 245.92 239.98 245.67 232.28 251.29 M 528.41 500.54 C 521.26 502.71 516.00 509.30 514.81 516.59 C 512.71 528.34 517.38 540.29 524.34 549.63 C 531.21 558.69 540.81 566.18 552.06 568.74 C 559.46 570.42 568.11 569.25 573.57 563.57 C 579.94 557.25 580.82 547.37 578.99 538.99 C 575.82 524.87 566.31 512.44 553.98 505.01 C 546.40 500.52 537.07 497.95 528.41 500.54 Z" />
<path fill="#ffffff" opacity="1.00" d=" M 587.25 426.22 C 593.70 423.93 599.22 419.81 604.64 415.74 C 605.24 418.43 605.80 421.17 605.75 423.95 C 605.75 433.91 605.71 443.88 605.76 453.84 C 600.66 457.30 595.13 460.12 589.43 462.45 C 588.21 463.11 586.82 462.97 585.61 462.43 C 573.01 457.71 560.42 453.00 547.81 448.32 C 544.04 446.92 540.14 445.88 536.19 445.16 C 553.27 439.03 570.22 432.51 587.25 426.22 Z" />
<path fill="#ffffff" opacity="1.00" d=" M 259.44 548.50 C 332.98 521.07 406.51 493.63 480.04 466.20 C 476.28 472.47 473.12 479.20 471.79 486.43 C 470.32 493.11 470.53 499.98 470.53 506.78 C 401.78 532.69 332.85 558.12 264.07 583.94 C 262.70 584.30 261.10 585.43 259.80 584.27 C 248.93 576.65 240.46 564.02 241.18 550.33 C 247.31 551.29 253.63 550.66 259.44 548.50 Z" />
</g>
</svg>
