<?xml version="1.0" encoding="UTF-8" ?>
<!DOCTYPE svg PUBLIC "-//W3C//DTD SVG 1.1//EN" "http://www.w3.org/Graphics/SVG/1.1/DTD/svg11.dtd">
<svg width="910pt" height="801pt" viewBox="0 0 910 801" version="1.1" xmlns="http://www.w3.org/2000/svg">
<g id="#423f40ff">
<path fill="#423f40" opacity="1.00" d=" M 588.54 32.44 C 603.22 27.14 620.07 25.77 634.57 32.40 C 646.50 37.66 655.38 48.61 659.03 61.03 C 660.92 67.15 661.69 73.59 661.75 79.99 C 661.75 173.32 661.75 266.64 661.75 359.97 C 661.78 364.37 661.36 368.76 660.51 373.08 C 658.16 368.14 654.59 363.93 651.32 359.60 C 643.51 349.83 634.46 341.08 624.50 333.54 C 624.40 253.36 624.49 173.19 624.45 93.01 C 624.58 84.65 621.00 75.82 613.70 71.28 C 605.99 66.40 596.07 66.87 587.74 69.85 C 478.37 110.61 369.03 151.48 259.64 192.21 C 243.81 187.37 226.55 186.77 210.71 191.91 C 223.97 176.02 240.43 162.24 260.02 154.99 C 369.52 114.13 479.02 73.27 588.54 32.44 Z" />
<path fill="#423f40" opacity="1.00" d=" M 585.66 426.79 C 592.67 424.37 599.05 420.37 604.59 415.46 C 605.22 418.27 605.83 421.12 605.78 424.02 C 605.76 434.01 605.77 443.99 605.77 453.98 C 600.33 457.33 594.73 460.49 588.73 462.71 C 587.45 463.25 586.13 462.58 584.93 462.21 C 572.60 457.56 560.26 452.97 547.91 448.38 C 544.07 446.94 540.09 445.90 536.07 445.15 C 552.69 439.28 569.11 432.87 585.66 426.79 Z" />
<path fill="#423f40" opacity="1.00" d=" M 259.62 548.42 C 333.22 520.94 406.83 493.51 480.42 466.03 C 471.94 477.78 469.88 492.70 470.53 506.86 C 400.72 533.00 330.85 558.99 261.02 585.05 C 249.46 577.56 240.36 564.44 241.20 550.22 C 247.36 551.40 253.76 550.56 259.62 548.42 Z" />
</g>
<g id="#105099ff">
<path fill="#105099" opacity="1.00" d=" M 224.50 207.80 C 236.44 205.85 248.76 207.80 260.00 212.07 C 367.97 252.34 475.94 292.63 583.91 332.90 C 613.63 343.22 637.55 366.93 651.39 394.83 C 657.70 407.94 661.77 422.30 661.81 436.92 C 661.83 525.30 661.81 613.69 661.82 702.07 C 661.75 715.29 662.81 729.11 657.33 741.53 C 651.91 755.12 639.48 765.45 625.17 768.43 C 611.41 771.51 597.04 768.81 584.14 763.62 C 481.04 725.15 377.94 686.69 274.84 648.23 C 264.37 644.24 253.57 640.87 243.96 634.98 C 219.09 620.02 199.72 596.09 190.20 568.70 C 186.96 559.15 185.15 549.11 185.18 539.02 C 185.19 445.67 185.16 352.32 185.20 258.98 C 185.18 245.95 188.80 232.47 197.52 222.52 C 204.39 214.61 214.21 209.50 224.50 207.80 M 229.60 253.61 C 224.55 258.66 222.55 265.98 222.58 272.97 C 222.57 364.98 222.58 456.99 222.57 548.99 C 220.96 574.56 239.56 598.93 263.52 606.67 C 371.48 646.91 479.42 687.22 587.38 727.47 C 596.11 730.77 606.75 731.19 614.61 725.51 C 621.45 720.74 624.50 712.13 624.42 704.03 C 624.43 679.27 624.42 654.50 624.42 629.73 C 599.84 620.61 575.29 611.40 550.72 602.26 C 544.32 599.83 537.74 597.71 531.82 594.21 C 515.15 584.56 501.94 569.16 494.51 551.42 C 490.59 542.16 488.79 532.05 489.28 522.00 C 489.70 511.09 488.30 500.03 490.28 489.23 C 492.30 479.27 498.83 470.11 508.20 465.90 C 518.56 461.10 530.68 462.03 541.19 465.86 C 568.94 476.17 596.65 486.57 624.40 496.88 C 624.46 472.91 624.39 448.94 624.44 424.97 C 624.94 407.44 615.23 390.90 601.93 380.05 C 596.58 375.62 590.33 372.39 583.77 370.18 C 477.95 330.74 372.15 291.24 266.33 251.78 C 261.35 249.93 256.41 247.76 251.08 247.14 C 243.47 246.02 235.08 247.98 229.60 253.61 M 528.34 500.58 C 520.00 503.08 514.69 511.54 514.36 520.00 C 513.64 534.57 521.42 548.41 532.01 557.94 C 540.11 565.15 550.91 570.58 562.01 569.16 C 569.31 568.39 575.77 563.13 578.22 556.24 C 581.15 547.96 579.72 538.77 576.39 530.84 C 571.55 519.51 562.88 509.73 551.98 503.92 C 544.84 500.12 536.25 498.19 528.34 500.58 Z" />
</g>
</svg>
