<svg height="512" viewBox="0 0 64 64" width="512" xmlns="http://www.w3.org/2000/svg"><rect fill="#7d8d9c" height="32" rx="2" width="58" x="3" y="21"/><path d="m8 17h10v4h-10z" fill="#aabece"/><path d="m46 17h10v4h-10z" fill="#aabece"/><path d="m44 21h-24l2-10h20z" fill="#5a6470"/><path d="m27 15h10a2 2 0 0 1 2 2v4a0 0 0 0 1 0 0h-14a0 0 0 0 1 0 0v-4a2 2 0 0 1 2-2z" fill="#fcf05a"/><path d="m28 18h2v3h-2z" fill="#f9bb4b"/><path d="m34 18h2v3h-2z" fill="#f9bb4b"/><path d="m13 53h-8a2 2 0 0 1 -2-2v-28a2 2 0 0 1 2-2h13v8l-5 2z" fill="#394d5c"/><circle cx="32" cy="37" fill="#394d5c" r="12"/><circle cx="32" cy="37" fill="#87cee9" r="8"/><path d="m37 37h-2a3 3 0 0 0 -3-3v-2a5.006 5.006 0 0 1 5 5z" fill="#f4f4e6"/><path d="m32 42a5.006 5.006 0 0 1 -5-5h2a3 3 0 0 0 3 3z" fill="#f4f4e6"/><circle cx="47" cy="27" fill="#fcf05a" r="2"/><circle cx="55" cy="27" fill="#fcf05a" r="2"/><path d="m22 50h-5a1 1 0 0 1 -1-1v-5h2v4h4z" fill="#aabece"/><path d="m53 33h4v16h-4z" fill="#394d5c"/><path d="m49 35h4v14h-4z" fill="#5a6470"/><path d="m42 48h4v2h-4z" fill="#aabece"/><g fill="#7d8d9c"><path d="m3 46h7v2h-7z"/><path d="m3 42h7v2h-7z"/><path d="m3 38h7v2h-7z"/><path d="m3 34h7v2h-7z"/><path d="m3 30h7v2h-7z"/></g></svg>