<?xml version="1.0"?>
<svg xmlns="http://www.w3.org/2000/svg" xmlns:xlink="http://www.w3.org/1999/xlink" version="1.1" id="Capa_1" x="0px" y="0px" viewBox="0 0 512 512" style="enable-background:new 0 0 512 512;" xml:space="preserve" width="512px" height="512px" class=""><g><path style="fill:#D9D9D9" d="M301,45v211c0,24.901-20.099,45-45,45s-45-20.099-45-45V45c0-24.901,20.099-45,45-45  S301,20.099,301,45z" data-original="#4DA6FF" class="active-path" data-old_color="#4DA6FF"/><path style="fill:#FFFFFF" d="M301,45v211c0,24.901-20.099,45-45,45V0C280.901,0,301,20.099,301,45z" data-original="#4596E6" class="" data-old_color="#4596E6"/><path style="fill:#D9D9D9" d="M481,286c0,124.2-100.8,226-225,226S31,410.2,31,286c0-62.401,25.499-122.999,75-167.701  c18.6-16.5,47.1-15,63.6,3.602c16.5,18.6,15,46.8-3.6,63.6c-27.9,24.3-45,60.899-45,100.499c0,74.7,60.3,133.801,132.599,135H256  c71.1,0.3,135-57.299,135-135c0-40.201-17.701-76.5-45-100.499c-18.6-16.8-20.099-45-3.6-63.6c16.5-18.602,45-20.101,63.6-3.602  C455.2,162.7,481,223.299,481,286z" data-original="#4DA6FF" class="active-path" data-old_color="#4DA6FF"/><path style="fill:#FFFFFF" d="M481,286c0,124.2-100.8,226-225,226v-91c71.1,0.3,135-57.299,135-135  c0-40.201-17.701-76.5-45-100.499c-18.6-16.8-20.099-45-3.6-63.6c16.5-18.602,45-20.101,63.6-3.602C455.2,162.7,481,223.299,481,286  z" data-original="#4596E6" class="" data-old_color="#4596E6"/></g> </svg>
