<?xml version="1.0"?>
<svg xmlns="http://www.w3.org/2000/svg" id="Capa_1" enable-background="new 0 0 512 512" height="512px" viewBox="0 0 512 512" width="512px" class=""><g><path d="m356 452c-8.284 0-15-6.716-15-15v-137.209c0-8.284 6.716-15 15-15s15 6.716 15 15v137.209c0 8.284-6.716 15-15 15z" fill="#48656c" data-original="#48656C" class="" data-old_color="#48656c" style="fill:#A1A1A1"/><path d="m156 452c-8.284 0-15-6.716-15-15v-137.209c0-8.284 6.716-15 15-15s15 6.716 15 15v137.209c0 8.284-6.716 15-15 15z" fill="#61868f" data-original="#61868F" class="" data-old_color="#61868f" style="fill:#A1A1A1"/><path d="m396 512h-80c-8.284 0-15-6.716-15-15v-20c0-30.327 24.673-55 55-55s55 24.673 55 55v20c0 8.284-6.716 15-15 15z" fill="#bee6fa" data-original="#BEE6FA" class="" data-old_color="#bee6fa" style="fill:#166099"/><path d="m196 512h-80c-8.284 0-15-6.716-15-15v-20c0-30.327 24.673-55 55-55s55 24.673 55 55v20c0 8.284-6.716 15-15 15z" fill="#dcf0ff" data-original="#DCF0FF" class="" data-old_color="#dcf0ff" style="fill:#166099"/><path d="m497 190h-21c-8.284 0-15-6.716-15-15s6.716-15 15-15h21c8.284 0 15 6.716 15 15s-6.716 15-15 15z" fill="#48656c" data-original="#48656C" class="" data-old_color="#48656c" style="fill:#A1A1A1"/><path d="m476 230h-65.244c-8.284 0-15-6.716-15-15v-80c0-8.284 6.716-15 15-15h65.244c8.284 0 15 6.716 15 15v80c0 8.284-6.716 15-15 15z" fill="#51b4ff" data-original="#51B4FF" class="" data-old_color="#51b4ff" style="fill:#FBDD3F"/><path d="m36 190h-21c-8.284 0-15-6.716-15-15s6.716-15 15-15h21c8.284 0 15 6.716 15 15s-6.716 15-15 15z" fill="#61868f" data-original="#61868F" class="" data-old_color="#61868f" style="fill:#A1A1A1"/><path d="m101.244 230h-65.244c-8.284 0-15-6.716-15-15v-80c0-8.284 6.716-15 15-15h65.244c8.284 0 15 6.716 15 15v80c0 8.284-6.716 15-15 15z" fill="#7dc3ff" data-original="#7DC3FF" class="" data-old_color="#7dc3ff" style="fill:#FBDD3F"/><path d="m256 350c-96.495 0-175-78.505-175-175s78.505-175 175-175 175 78.505 175 175-78.505 175-175 175z" fill="#dcf0ff" data-original="#DCF0FF" class="" data-old_color="#dcf0ff" style="fill:#166099"/><path d="m431 175c0-96.495-78.505-175-175-175v350c96.495 0 175-78.505 175-175z" fill="#bee6fa" data-original="#BEE6FA" class="" data-old_color="#bee6fa" style="fill:#166099"/><path d="m151 35.089v139.911c0 8.284 6.716 15 15 15s15-6.716 15-15v-158.092c-10.632 5.064-20.677 11.166-30 18.181z" fill="#ff914a" data-original="#FF914A" class="" data-old_color="#ff914a" style="fill:#FBDD3F"/><path d="m331 16.908v158.092c0 8.284 6.716 15 15 15s15-6.716 15-15v-139.911c-9.323-7.015-19.368-13.117-30-18.181z" fill="#ff6928" data-original="#FF6928" class="" data-old_color="#ff6928" style="fill:#FBDD3F"/><path d="m256 280c-57.897 0-105-47.103-105-105s47.103-105 105-105 105 47.103 105 105-47.103 105-105 105z" fill="#61868f" data-original="#61868F" class="" data-old_color="#61868f" style="fill:#A1A1A1"/><path d="m361 175c0-57.897-47.103-105-105-105v210c57.897 0 105-47.103 105-105z" fill="#48656c" data-original="#48656C" class="" data-old_color="#48656c" style="fill:#A1A1A1"/><path d="m256 220c-24.813 0-45-20.187-45-45s20.187-45 45-45 45 20.187 45 45-20.187 45-45 45z" fill="#fff08c" data-original="#FFF08C" class="" data-old_color="#fff08c" style="fill:#FBDD3F"/><path d="m301 175c0-24.813-20.187-45-45-45v90c24.813 0 45-20.187 45-45z" fill="#ffdc28" data-original="#FFDC28" class="active-path" data-old_color="#ffdc28" style="fill:#FBDD3F"/></g> </svg>
