<?xml version="1.0" encoding="UTF-8" ?>
<!DOCTYPE svg PUBLIC "-//W3C//DTD SVG 1.1//EN" "http://www.w3.org/Graphics/SVG/1.1/DTD/svg11.dtd">
<svg width="1280pt" height="696pt" viewBox="0 0 1280 696" version="1.1" xmlns="http://www.w3.org/2000/svg">
<g id="#2f288cff">
<path fill="#2f288c" opacity="1.00" d=" M 189.02 60.32 C 195.04 60.59 200.96 59.25 206.96 59.27 C 221.64 59.18 236.32 59.16 250.99 59.63 C 258.61 60.71 266.20 62.11 273.89 62.72 C 278.52 63.76 283.08 65.13 287.77 65.92 C 304.24 70.63 320.44 77.26 334.14 87.72 C 345.28 96.61 354.59 107.84 360.80 120.70 C 366.40 130.94 369.32 142.31 372.26 153.53 C 373.44 158.15 373.81 162.92 373.76 167.68 C 362.83 167.75 351.96 169.18 341.04 169.71 C 335.42 170.85 329.66 170.14 324.02 171.08 C 318.02 171.88 311.92 170.89 305.94 171.85 C 300.33 172.90 294.61 172.16 288.97 172.74 C 281.95 173.96 274.81 173.54 267.72 173.52 C 267.49 171.15 267.18 168.78 266.47 166.51 C 263.79 157.93 260.81 149.04 254.55 142.34 C 248.18 134.95 239.10 130.27 229.63 128.27 C 220.47 125.24 210.69 126.74 201.23 126.55 C 193.55 128.08 185.32 129.91 179.46 135.50 C 173.98 140.81 169.66 148.10 170.30 155.99 C 169.93 161.75 173.25 166.94 177.32 170.72 C 181.93 175.31 188.05 177.89 194.09 180.00 C 207.37 184.70 221.40 186.48 234.98 190.01 C 254.07 194.47 273.05 199.43 291.73 205.38 C 308.32 211.09 325.09 217.20 339.55 227.38 C 349.09 233.19 357.45 240.74 364.93 248.99 C 373.17 258.74 378.81 270.45 382.31 282.67 C 384.90 290.86 386.61 299.36 386.77 307.96 C 388.22 314.11 386.38 320.26 386.43 326.44 C 384.85 339.86 381.25 353.12 375.23 365.25 C 370.95 374.45 365.77 383.34 358.97 390.92 C 354.77 395.38 351.00 400.29 346.08 404.02 C 332.39 415.46 316.57 424.39 299.48 429.60 C 290.19 432.32 280.92 435.28 271.29 436.52 C 263.52 437.35 255.94 439.93 248.04 439.47 C 241.65 439.09 235.38 440.72 229.00 440.44 C 222.33 440.29 215.64 440.76 208.99 440.17 C 201.10 438.79 193.03 440.11 185.12 439.06 C 178.51 437.57 171.74 437.06 165.04 436.21 C 152.28 433.38 139.30 431.01 127.20 425.91 C 114.91 421.12 103.30 414.38 93.53 405.48 C 74.29 387.44 61.65 363.15 55.34 337.72 C 54.01 330.84 52.49 323.97 51.57 317.02 C 51.22 315.40 51.73 313.71 53.19 312.83 C 55.77 312.28 58.44 312.55 61.04 312.16 C 68.29 310.89 75.70 312.12 82.98 311.04 C 87.95 310.17 93.04 310.89 98.00 309.97 C 101.62 309.31 105.33 309.66 108.96 309.13 C 115.92 307.98 123.02 309.12 129.99 308.06 C 134.62 307.22 139.36 307.82 144.00 307.08 C 149.07 306.19 154.24 306.43 159.36 306.38 C 160.64 316.35 162.83 326.34 167.36 335.37 C 175.65 352.67 193.02 365.27 212.07 367.61 C 220.72 367.92 229.39 367.84 238.05 367.65 C 241.91 367.68 245.51 366.13 249.14 365.01 C 261.05 361.10 271.06 351.63 275.44 339.88 C 275.94 333.33 276.02 326.69 275.38 320.15 C 271.41 310.28 263.74 301.96 253.99 297.59 C 233.90 288.04 211.82 284.02 190.31 278.99 C 179.13 276.10 168.18 272.39 157.10 269.13 C 148.89 266.42 141.13 262.54 133.07 259.42 C 126.13 256.73 119.93 252.56 113.44 248.99 C 98.38 239.89 85.01 227.52 76.39 212.06 C 72.22 204.29 68.74 196.03 67.30 187.30 C 64.53 178.81 64.49 169.81 64.85 160.99 C 66.30 145.39 71.12 130.11 79.07 116.60 C 87.64 102.31 99.89 90.23 114.56 82.27 C 123.25 76.59 132.81 72.43 142.60 69.07 C 153.02 66.27 163.47 63.21 174.24 62.16 C 179.14 61.32 184.01 60.12 189.02 60.32 Z" />
<path fill="#2f288c" opacity="1.00" d=" M 414.27 65.48 C 415.81 65.05 417.36 64.51 418.99 64.54 C 480.33 64.55 541.66 64.55 603.00 64.55 C 617.55 64.38 631.96 66.31 646.22 69.08 C 663.24 73.06 679.81 80.24 693.11 91.76 C 706.94 104.01 716.88 120.47 721.57 138.32 C 722.66 143.09 724.50 147.74 724.60 152.68 C 724.71 158.53 727.08 164.10 726.64 169.99 C 726.42 177.23 727.09 184.53 726.26 191.74 C 724.41 198.70 725.17 206.06 722.75 212.89 C 717.22 236.30 704.22 258.57 684.18 272.37 C 677.46 277.55 669.76 281.24 662.00 284.56 C 652.37 288.94 641.93 290.95 631.69 293.33 C 620.76 294.10 610.01 297.04 599.00 296.57 C 575.27 296.71 551.53 296.34 527.80 296.75 C 527.48 342.37 527.82 387.99 527.63 433.60 C 498.42 433.72 469.21 433.62 440.00 433.65 C 431.57 433.42 423.09 434.11 414.69 433.34 C 413.93 429.27 414.52 425.10 414.38 420.99 C 414.30 302.49 414.51 183.99 414.27 65.48 M 529.91 139.50 C 528.05 139.92 527.82 142.34 527.71 143.92 C 527.75 168.94 527.68 193.98 527.74 219.00 C 527.57 221.84 530.38 223.45 532.92 223.28 C 541.28 223.17 549.66 223.48 558.02 223.09 C 565.47 221.69 573.27 223.55 580.55 221.06 C 585.03 219.53 589.86 219.07 594.10 216.82 C 604.14 212.58 611.84 203.56 614.89 193.15 C 621.20 174.18 611.24 150.52 592.13 143.40 C 575.71 137.68 558.10 138.93 541.00 138.79 C 537.30 138.89 533.48 138.27 529.91 139.50 Z" />
<path fill="#2f288c" opacity="1.00" d=" M 1109.34 65.52 C 1112.71 64.09 1116.42 64.60 1120.00 64.54 C 1151.33 64.56 1182.66 64.55 1213.99 64.54 C 1217.29 64.59 1220.61 64.32 1223.90 64.75 C 1225.47 65.63 1225.49 67.37 1225.48 68.96 C 1225.46 111.97 1225.47 154.99 1225.47 198.00 C 1225.34 202.19 1226.20 206.62 1224.22 210.52 C 1219.04 203.40 1214.19 196.03 1208.76 189.08 C 1202.81 181.43 1197.83 173.03 1191.31 165.83 C 1187.97 161.92 1185.08 157.65 1182.31 153.34 C 1185.66 156.46 1188.09 160.38 1191.08 163.83 C 1188.06 158.63 1183.67 154.45 1179.98 149.75 C 1171.06 137.72 1162.30 125.56 1153.48 113.46 C 1152.55 112.42 1150.91 112.74 1149.70 112.39 C 1149.45 137.45 1149.70 162.52 1149.58 187.59 C 1136.21 187.71 1122.84 187.61 1109.48 187.67 C 1109.28 146.96 1109.56 106.24 1109.34 65.52 Z" />
<path fill="#2f288c" opacity="1.00" d=" M 1205.17 268.27 C 1211.66 259.80 1218.22 251.38 1224.23 242.55 C 1226.23 246.43 1225.33 250.83 1225.48 255.00 C 1225.46 311.00 1225.47 367.00 1225.47 422.99 C 1225.38 426.28 1225.79 429.62 1225.21 432.88 C 1224.49 434.14 1223.42 434.66 1222.01 434.46 C 1185.31 434.41 1148.61 434.40 1111.91 434.46 C 1110.04 434.73 1109.04 432.66 1109.40 431.08 C 1109.49 376.16 1109.31 321.23 1109.49 266.31 C 1122.77 266.57 1136.10 265.85 1149.34 266.67 C 1149.95 290.25 1149.43 313.90 1149.60 337.51 C 1150.87 337.53 1152.16 337.56 1153.46 337.59 C 1163.34 323.30 1174.42 309.89 1184.62 295.84 C 1191.52 286.68 1198.33 277.47 1205.17 268.27 Z" />
<path fill="#2f288c" opacity="1.00" d=" M 675.50 549.55 C 678.21 549.37 681.91 548.58 683.48 551.51 C 685.65 553.83 686.28 557.47 683.86 559.88 C 681.95 563.49 677.50 564.35 673.92 563.05 C 672.41 561.62 670.46 560.03 670.48 557.78 C 669.88 554.23 672.72 551.26 675.50 549.55 Z" />
<path fill="#2f288c" opacity="1.00" d=" M 727.14 549.67 C 730.14 549.12 733.22 549.40 736.22 549.88 C 735.70 553.17 735.81 556.52 735.40 559.82 C 733.42 567.31 732.49 575.03 730.78 582.59 C 730.12 591.52 726.83 600.04 726.57 609.03 C 726.61 611.73 725.58 614.26 724.65 616.76 C 721.70 616.76 718.76 616.75 715.83 616.66 C 715.21 614.77 714.49 612.93 713.78 611.09 C 708.93 613.91 704.21 618.38 698.18 617.66 C 693.91 617.22 689.48 614.82 687.70 610.75 C 680.54 595.97 690.17 576.38 705.61 571.70 C 710.68 569.98 716.11 570.11 721.36 569.32 C 722.74 564.93 723.35 560.37 723.94 555.84 C 724.61 553.66 724.44 550.37 727.14 549.67 M 710.24 579.70 C 702.31 582.74 697.75 591.67 698.38 599.91 C 698.37 603.04 700.44 605.94 703.01 607.59 C 707.71 608.84 711.68 605.35 713.79 601.50 C 716.99 595.07 718.46 587.74 717.48 580.59 C 715.50 578.87 712.61 579.29 710.24 579.70 Z" />
<path fill="#2f288c" opacity="1.00" d=" M 445.63 551.17 C 448.68 551.35 451.95 550.84 454.70 552.51 C 451.59 556.28 448.85 560.59 444.71 563.33 C 442.48 563.80 440.18 563.64 437.93 563.65 C 439.24 558.84 442.50 554.92 445.63 551.17 Z" />
<path fill="#2f288c" opacity="1.00" d=" M 592.84 551.29 C 595.96 551.29 599.09 551.30 602.22 551.43 C 600.47 555.92 596.83 559.33 593.26 562.42 C 591.28 564.26 588.39 563.51 585.97 563.71 C 586.34 558.73 589.96 555.04 592.84 551.29 Z" />
<path fill="#2f288c" opacity="1.00" d=" M 74.76 554.73 C 84.88 551.08 96.36 551.70 106.21 555.93 C 111.17 558.64 114.91 564.20 114.61 569.96 C 114.99 576.46 111.80 582.83 107.02 587.11 C 103.74 590.16 99.32 591.42 95.14 592.72 C 90.61 594.21 85.80 593.23 81.15 593.71 C 80.82 593.96 80.15 594.47 79.82 594.73 C 78.47 598.64 77.70 602.73 76.81 606.77 C 76.16 609.58 77.01 612.77 75.37 615.30 C 71.87 617.79 67.28 618.08 63.33 616.54 C 63.12 610.26 65.56 604.35 66.26 598.18 C 69.20 583.71 71.51 569.13 74.76 554.73 M 81.86 578.17 C 81.29 579.96 81.79 581.81 82.12 583.59 C 86.10 583.49 90.16 583.98 94.08 583.14 C 99.35 580.82 103.70 574.99 102.36 569.02 C 101.42 566.35 99.43 564.04 96.88 562.78 C 93.17 562.22 89.40 562.61 85.66 562.49 C 84.23 567.68 83.29 572.98 81.86 578.17 Z" />
<path fill="#2f288c" opacity="1.00" d=" M 429.63 572.19 C 437.79 569.44 446.87 568.44 455.14 571.33 C 456.49 571.82 458.09 572.83 457.53 574.51 C 455.75 585.39 452.33 596.08 452.19 607.19 C 451.68 610.12 451.97 613.32 450.93 616.10 C 448.03 618.74 443.52 617.01 439.95 617.30 C 439.81 615.51 439.68 613.71 439.55 611.94 C 434.90 611.74 432.36 616.29 428.15 617.45 C 423.16 619.76 416.98 617.68 413.58 613.58 C 408.32 607.65 407.72 598.74 411.29 591.80 C 414.04 582.92 420.83 575.35 429.63 572.19 M 430.95 582.87 C 426.20 587.57 422.57 594.16 423.41 601.03 C 422.73 604.82 426.27 607.02 428.98 608.81 C 434.50 606.87 438.68 602.13 440.16 596.50 C 441.54 591.07 443.68 585.34 442.25 579.71 C 438.17 578.45 433.87 579.90 430.95 582.87 Z" />
<path fill="#2f288c" opacity="1.00" d=" M 466.74 577.44 C 470.82 571.70 478.35 569.91 484.99 569.53 C 488.46 569.86 492.95 569.50 495.32 572.56 C 495.96 575.59 493.84 578.31 491.91 580.40 C 487.98 579.91 484.04 578.71 480.05 579.56 C 477.68 580.43 477.41 582.90 477.27 585.08 C 482.39 589.85 490.18 592.29 492.72 599.39 C 494.58 603.13 492.25 607.14 490.36 610.35 C 486.86 615.91 479.94 617.10 474.01 618.33 C 469.13 618.67 464.09 617.20 459.85 614.85 C 458.72 612.44 460.24 609.67 460.58 607.20 C 465.86 607.51 471.05 609.39 476.39 608.45 C 479.09 607.75 480.60 604.66 479.30 602.12 C 475.06 597.26 467.39 596.03 464.88 589.53 C 462.15 585.59 464.73 581.03 466.74 577.44 Z" />
<path fill="#2f288c" opacity="1.00" d=" M 567.64 577.67 C 574.55 571.60 584.10 569.63 593.05 569.64 C 597.08 570.46 601.84 569.98 605.20 572.74 C 605.41 574.88 604.57 576.95 604.17 579.03 C 602.30 585.87 601.45 592.92 599.93 599.83 C 598.88 604.70 599.76 609.71 599.13 614.61 C 597.88 618.71 592.86 617.43 589.63 617.31 C 587.70 615.55 586.66 613.08 585.20 610.97 C 580.75 614.27 576.17 618.79 570.20 618.50 C 563.70 617.67 557.78 612.21 557.47 605.45 C 555.97 595.20 560.23 584.71 567.64 577.67 M 582.63 579.71 C 576.96 582.45 572.64 587.86 571.22 594.01 C 570.23 597.85 569.85 602.37 572.27 605.78 C 573.75 608.40 577.24 607.76 579.74 607.46 C 584.28 605.57 586.68 600.76 587.96 596.26 C 589.36 590.78 590.95 585.22 590.59 579.51 C 587.94 579.50 585.24 579.16 582.63 579.71 Z" />
<path fill="#2f288c" opacity="1.00" d=" M 926.62 577.45 C 930.25 572.15 936.91 570.43 942.91 569.61 C 946.70 569.48 951.03 569.39 954.22 571.74 C 957.00 574.39 953.84 577.85 952.43 580.33 C 948.42 579.17 944.17 579.13 940.05 579.54 C 937.49 580.29 937.43 583.10 937.15 585.27 C 940.97 588.46 945.65 590.41 949.45 593.61 C 952.58 596.82 954.50 601.92 952.64 606.26 C 951.40 610.46 947.98 613.70 944.32 615.86 C 938.69 617.92 932.48 619.39 926.54 617.72 C 923.98 616.97 920.99 617.01 918.89 615.20 C 918.09 611.82 920.37 608.72 921.69 605.77 C 924.96 607.22 928.31 608.88 932.01 608.67 C 934.21 608.52 936.97 609.16 938.46 607.06 C 938.79 605.10 939.18 602.90 938.27 601.06 C 933.93 597.11 927.28 595.48 924.82 589.66 C 922.41 585.69 924.36 580.98 926.62 577.45 Z" />
<path fill="#2f288c" opacity="1.00" d=" M 127.42 575.66 C 132.92 571.88 139.66 570.89 146.07 569.64 C 151.43 569.24 156.66 571.13 161.76 572.57 C 160.83 581.48 157.82 590.05 157.15 599.00 C 156.02 604.35 155.01 609.76 155.57 615.26 C 152.99 616.73 150.15 618.03 147.10 617.45 C 144.84 616.26 144.79 613.41 144.08 611.27 C 138.56 611.40 135.23 616.98 129.81 617.58 C 121.63 619.05 113.88 611.03 114.34 603.03 C 113.95 592.59 118.62 581.60 127.42 575.66 M 131.12 587.84 C 128.77 592.34 126.62 597.42 127.67 602.61 C 128.70 604.78 130.36 606.57 131.75 608.52 C 134.37 608.55 136.88 607.57 138.70 605.66 C 144.61 600.59 145.27 592.36 147.15 585.31 C 147.40 583.47 148.21 580.86 146.22 579.73 C 139.94 577.91 134.17 582.79 131.12 587.84 Z" />
<path fill="#2f288c" opacity="1.00" d=" M 188.23 571.20 C 192.37 570.38 196.63 568.89 200.87 569.90 C 205.21 570.95 209.83 571.37 213.74 573.72 C 210.34 586.89 208.94 600.48 205.69 613.69 C 204.11 621.84 200.47 630.80 192.42 634.42 C 186.58 636.21 180.35 638.34 174.22 636.79 C 170.81 636.25 167.49 635.32 164.23 634.23 C 165.24 631.15 166.30 628.09 167.69 625.16 C 172.83 626.91 178.39 628.49 183.81 627.10 C 188.57 624.68 193.33 620.16 192.63 614.33 C 187.26 614.05 182.42 617.59 176.99 616.36 C 172.44 614.57 168.51 610.96 166.68 606.39 C 166.28 601.55 166.21 596.63 166.74 591.80 C 170.49 582.39 177.86 573.32 188.23 571.20 M 180.66 591.17 C 180.11 595.38 180.11 599.72 180.66 603.95 C 184.08 607.11 191.07 606.69 193.53 602.34 C 197.94 596.00 198.68 587.89 198.80 580.38 C 190.85 576.61 183.21 584.15 180.66 591.17 Z" />
<path fill="#2f288c" opacity="1.00" d=" M 288.49 570.25 C 293.20 568.50 298.34 570.13 302.37 572.76 C 303.28 574.72 302.42 576.95 301.26 578.60 C 296.26 579.69 289.85 576.60 285.92 580.84 C 283.45 582.93 285.38 586.61 287.65 587.99 C 292.26 590.80 297.90 592.92 300.36 598.13 C 301.12 602.73 301.17 608.00 297.51 611.45 C 289.73 619.57 276.52 619.16 267.01 614.48 C 267.15 611.53 268.53 609.00 270.59 606.95 C 275.78 607.82 281.97 611.45 286.76 607.66 C 289.11 606.30 289.05 602.52 286.98 600.93 C 282.66 597.08 276.49 595.27 273.47 590.00 C 273.13 586.71 273.09 583.35 273.56 580.08 C 276.51 574.44 282.47 571.45 288.49 570.25 Z" />
<path fill="#2f288c" opacity="1.00" d=" M 352.07 575.40 C 356.45 573.12 360.66 569.56 365.97 570.35 C 371.10 569.63 374.39 574.20 377.18 577.73 C 381.77 573.91 386.82 570.18 392.95 569.52 C 397.59 570.12 402.29 573.03 403.29 577.90 C 403.86 583.07 403.68 588.38 402.37 593.44 C 400.72 600.33 400.06 607.43 398.19 614.27 C 396.47 619.08 390.09 617.57 386.31 616.53 C 386.69 605.62 391.64 595.26 390.56 584.25 C 390.64 581.48 387.53 579.58 385.05 579.51 C 379.79 581.60 376.81 587.14 375.20 592.29 C 372.69 599.68 373.05 607.75 370.10 615.01 C 368.19 619.10 362.82 617.30 359.40 616.60 C 358.71 609.57 360.74 602.84 362.19 596.06 C 362.47 591.03 365.43 584.92 361.11 580.82 C 358.98 578.16 355.75 580.40 353.59 581.81 C 348.65 585.38 347.73 591.84 346.21 597.31 C 344.40 603.49 345.02 610.28 342.07 616.12 C 339.09 618.81 334.53 617.35 331.27 615.91 C 331.39 612.16 331.94 608.44 332.81 604.79 C 334.28 598.71 334.94 592.49 336.35 586.41 C 337.56 581.45 337.29 576.25 339.02 571.41 C 341.50 571.42 344.00 571.26 346.48 571.53 C 348.56 572.48 349.40 575.95 352.07 575.40 Z" />
<path fill="#2f288c" opacity="1.00" d=" M 547.31 573.38 C 550.00 571.37 553.20 570.29 556.34 569.21 C 558.47 572.66 556.62 576.60 555.28 579.97 C 552.91 582.76 548.58 582.36 545.92 584.88 C 539.62 589.63 538.25 597.95 537.26 605.27 C 536.34 608.89 536.23 612.92 534.18 616.14 C 530.50 618.05 525.98 617.95 522.24 616.27 C 523.74 610.23 524.83 604.09 526.06 597.99 C 528.12 589.24 528.52 580.20 530.52 571.44 C 533.18 571.43 535.85 571.41 538.51 571.32 C 539.87 572.87 540.80 575.24 543.04 575.69 C 544.70 575.51 545.91 574.18 547.31 573.38 Z" />
<path fill="#2f288c" opacity="1.00" d=" M 761.36 570.09 C 765.70 568.43 769.96 570.80 773.91 572.43 C 778.66 574.33 782.02 578.78 783.33 583.64 C 784.31 591.07 783.73 599.00 779.43 605.38 C 774.93 613.40 765.84 617.51 757.02 618.41 C 752.74 617.81 748.37 616.63 744.68 614.32 C 740.07 610.76 737.00 604.88 737.40 598.99 C 736.96 589.51 741.95 580.12 749.62 574.64 C 753.10 572.20 757.28 571.11 761.36 570.09 M 761.14 579.49 C 752.97 583.28 749.46 593.41 750.56 601.90 C 751.70 606.10 756.27 609.95 760.79 608.23 C 768.71 603.79 771.94 593.67 770.36 585.07 C 768.56 581.77 765.27 578.38 761.14 579.49 Z" />
<path fill="#2f288c" opacity="1.00" d=" M 794.58 577.70 C 798.02 572.50 804.43 571.05 810.11 569.75 C 814.59 568.70 818.83 570.93 822.89 572.50 C 822.61 575.04 821.51 577.35 820.38 579.61 C 815.39 579.62 810.16 578.55 805.39 580.50 C 805.40 582.46 805.42 584.42 805.46 586.38 C 810.69 590.07 817.26 592.66 820.37 598.65 C 820.73 602.16 821.12 606.11 818.97 609.17 C 816.55 614.10 811.09 616.36 806.01 617.41 C 799.71 618.13 793.26 617.69 787.29 615.48 C 787.26 612.67 787.59 609.88 788.55 607.24 C 794.24 607.75 799.83 609.15 805.60 608.60 C 806.70 606.65 808.13 604.52 807.26 602.19 C 803.13 597.05 795.14 595.82 792.66 589.22 C 792.23 585.33 791.78 580.86 794.58 577.70 Z" />
<path fill="#2f288c" opacity="1.00" d=" M 1028.38 571.23 C 1032.43 570.41 1036.60 568.89 1040.77 569.88 C 1044.72 570.75 1048.66 571.70 1052.60 572.62 C 1052.58 576.94 1052.85 581.36 1051.53 585.53 C 1049.52 592.07 1049.43 598.96 1047.67 605.55 C 1046.72 612.45 1045.22 619.36 1041.75 625.47 C 1039.21 629.94 1035.28 634.04 1030.13 635.25 C 1025.82 636.25 1021.47 637.77 1017.00 637.30 C 1012.97 636.72 1008.96 635.92 1005.17 634.44 C 1005.61 631.43 1004.89 626.10 1008.98 625.61 C 1013.79 627.09 1018.95 628.42 1023.96 627.09 C 1027.51 625.39 1030.62 622.45 1032.15 618.78 C 1032.46 617.44 1033.20 614.63 1031.15 614.42 C 1027.61 614.14 1024.51 616.52 1021.00 616.51 C 1014.42 617.35 1009.01 611.84 1006.87 606.11 C 1004.17 600.63 1006.04 594.45 1008.05 589.08 C 1011.17 580.17 1019.16 573.20 1028.38 571.23 M 1028.66 580.70 C 1022.64 584.55 1018.62 591.74 1019.36 598.96 C 1018.68 603.11 1022.35 606.34 1025.97 607.50 C 1029.21 606.81 1032.35 605.05 1034.24 602.25 C 1036.53 598.98 1037.05 594.91 1038.12 591.15 C 1039.18 587.34 1040.10 583.27 1038.86 579.39 C 1035.47 579.59 1031.66 578.68 1028.66 580.70 Z" />
<path fill="#2f288c" opacity="1.00" d=" M 1200.75 577.81 C 1204.34 572.38 1211.07 570.84 1217.04 569.64 C 1221.16 568.95 1225.11 570.73 1228.81 572.32 C 1228.71 574.91 1227.93 577.39 1226.70 579.66 C 1222.34 579.53 1217.94 579.05 1213.60 579.60 C 1211.02 580.66 1210.90 583.79 1211.85 586.02 C 1216.21 590.06 1222.51 591.84 1225.78 597.11 C 1229.32 602.03 1226.54 608.74 1222.65 612.58 C 1219.36 616.18 1214.45 617.29 1209.88 618.22 C 1204.80 619.06 1199.80 617.39 1194.89 616.35 C 1194.04 616.01 1192.58 615.71 1192.67 614.57 C 1191.86 611.11 1194.33 608.22 1196.65 606.01 C 1200.85 608.64 1205.93 609.18 1210.76 608.38 C 1213.53 607.03 1212.88 603.45 1212.34 601.01 C 1207.71 597.17 1200.95 595.27 1198.66 589.15 C 1198.21 585.29 1197.88 580.87 1200.75 577.81 Z" />
<path fill="#2f288c" opacity="1.00" d=" M 242.18 570.37 C 250.77 569.18 260.57 573.73 263.41 582.27 C 263.79 589.57 264.96 597.69 260.55 604.09 C 254.04 616.76 235.64 622.37 224.11 613.10 C 219.60 609.55 217.71 603.60 218.25 598.01 C 217.44 584.42 228.79 571.81 242.18 570.37 M 241.18 579.60 C 233.06 583.94 230.20 594.30 231.60 602.90 C 233.23 606.48 236.60 609.69 240.82 608.36 C 247.19 605.26 250.97 597.99 250.73 591.02 C 250.63 588.05 251.32 584.48 248.85 582.25 C 247.07 579.87 244.07 578.69 241.18 579.60 Z" />
<path fill="#2f288c" opacity="1.00" d=" M 627.01 575.72 C 632.05 574.81 635.77 570.32 641.02 570.21 C 646.54 569.74 651.82 573.26 654.39 578.01 C 656.14 581.40 655.57 585.36 655.71 589.04 C 656.10 602.25 646.27 615.51 632.94 617.56 C 628.21 617.83 623.48 617.33 618.75 617.62 C 618.97 623.80 618.11 630.05 615.43 635.68 C 611.62 635.40 607.61 636.22 604.00 634.64 C 606.11 628.25 606.20 621.43 608.13 615.00 C 608.69 609.24 610.42 603.70 611.33 598.00 C 611.83 591.26 614.60 584.85 614.45 578.03 C 614.45 575.68 614.51 572.68 616.86 571.39 C 619.65 571.18 622.46 571.32 625.26 571.34 C 625.83 572.79 626.43 574.25 627.01 575.72 M 635.08 580.32 C 633.36 580.32 632.12 581.68 630.86 582.66 C 625.54 587.19 624.34 594.53 623.37 601.06 C 623.43 603.49 622.38 607.16 625.38 608.22 C 628.16 608.72 631.51 609.11 633.84 607.14 C 640.97 602.16 643.93 592.72 642.27 584.37 C 640.77 581.77 638.29 579.50 635.08 580.32 Z" />
<path fill="#2f288c" opacity="1.00" d=" M 669.36 571.43 C 673.12 571.42 676.88 571.42 680.64 571.48 C 681.12 578.71 678.23 585.49 677.43 592.58 C 676.44 597.92 675.23 603.22 674.56 608.62 C 673.99 611.85 673.49 616.04 669.94 617.36 C 667.08 617.56 663.54 618.11 661.49 615.59 C 660.61 608.40 663.45 601.58 664.46 594.57 C 665.22 588.79 667.16 583.21 667.55 577.38 C 667.63 575.26 668.54 573.33 669.36 571.43 Z" />
<path fill="#2f288c" opacity="1.00" d=" M 854.32 571.43 C 858.09 571.44 861.87 571.44 865.65 571.41 C 869.50 579.27 866.89 588.63 870.57 596.58 C 871.49 596.56 873.35 596.51 874.27 596.49 C 877.03 590.06 879.50 583.51 882.10 577.02 C 882.95 575.07 883.74 572.95 885.43 571.57 C 889.26 571.20 893.12 571.47 896.97 571.49 C 895.48 577.41 892.03 582.55 889.51 588.04 C 883.30 599.89 878.18 612.42 870.10 623.18 C 865.02 630.43 857.91 636.91 848.96 638.62 C 848.28 635.23 847.22 631.95 846.25 628.65 C 852.62 625.15 859.92 621.31 862.44 613.97 C 860.22 604.63 858.18 595.23 856.21 585.83 C 854.57 581.20 854.24 576.30 854.32 571.43 Z" />
<path fill="#2f288c" opacity="1.00" d=" M 962.69 586.15 C 967.03 575.82 978.50 568.80 989.70 570.50 C 996.10 571.49 1002.80 576.94 1001.77 584.01 C 1002.53 589.21 998.47 593.56 993.98 595.44 C 986.78 598.15 979.08 599.04 971.43 598.69 C 970.23 603.00 973.92 606.50 977.66 607.86 C 983.52 610.06 989.57 606.88 995.52 607.44 C 995.71 609.79 995.68 612.15 995.76 614.51 C 988.18 617.70 979.47 618.96 971.54 616.40 C 966.10 615.00 961.64 610.20 960.54 604.72 C 960.03 598.49 959.75 591.88 962.69 586.15 M 973.83 588.61 C 978.41 590.58 983.59 589.27 987.86 587.15 C 991.13 585.41 990.09 579.07 986.02 579.33 C 980.28 578.20 974.51 582.98 973.83 588.61 Z" />
<path fill="#2f288c" opacity="1.00" d=" M 1131.92 574.68 C 1135.05 572.13 1138.80 570.47 1142.93 571.28 C 1142.65 574.67 1142.19 578.06 1141.44 581.38 C 1134.68 581.89 1128.44 586.09 1126.17 592.59 C 1124.01 599.83 1122.23 607.21 1121.19 614.71 C 1119.31 618.01 1114.90 616.54 1111.81 616.72 C 1108.59 617.09 1109.29 613.31 1109.57 611.31 C 1111.61 603.48 1112.68 595.45 1114.55 587.58 C 1115.93 582.53 1114.59 577.15 1116.39 572.20 C 1118.91 572.23 1121.46 572.07 1123.99 572.43 C 1126.31 573.88 1129.07 577.15 1131.92 574.68 Z" />
<path fill="#2f288c" opacity="1.00" d=" M 1168.19 570.34 C 1174.83 569.55 1181.74 572.04 1186.25 577.02 C 1189.11 579.51 1189.90 583.44 1190.38 587.03 C 1190.84 595.39 1188.21 604.15 1182.26 610.20 C 1177.71 614.91 1171.24 616.98 1165.00 618.28 C 1161.40 618.89 1157.96 617.31 1154.61 616.28 C 1147.10 613.90 1142.92 605.54 1143.37 598.03 C 1143.59 588.93 1148.09 579.67 1155.81 574.62 C 1159.59 572.41 1163.83 570.89 1168.19 570.34 M 1166.27 579.78 C 1158.97 583.98 1156.40 593.13 1157.29 601.08 C 1156.80 606.58 1163.71 610.79 1168.27 607.53 C 1175.85 602.71 1177.77 592.65 1176.28 584.35 C 1174.32 580.89 1170.31 578.02 1166.27 579.78 Z" />
<path fill="#2f288c" opacity="1.00" d=" M 1065.50 572.22 C 1068.70 570.58 1072.86 571.51 1076.44 571.62 C 1077.27 575.67 1075.14 579.56 1074.74 583.57 C 1074.12 589.78 1071.30 595.68 1071.62 602.00 C 1071.72 605.51 1074.92 609.28 1078.70 608.31 C 1085.22 605.99 1088.59 599.12 1089.68 592.70 C 1090.47 587.12 1091.92 581.65 1092.47 576.05 C 1092.43 574.65 1092.87 573.44 1093.79 572.41 C 1097.81 572.03 1101.86 572.24 1105.90 572.36 C 1105.29 577.68 1103.50 582.78 1102.80 588.09 C 1102.05 594.38 1099.86 600.43 1099.46 606.79 C 1098.82 610.51 1098.30 614.93 1095.02 617.34 C 1093.01 617.57 1090.98 617.58 1088.99 617.35 C 1086.84 616.10 1087.50 613.43 1087.11 611.38 C 1082.96 611.27 1080.37 614.92 1076.84 616.43 C 1071.81 618.79 1064.88 618.18 1061.54 613.32 C 1058.12 609.50 1059.42 603.97 1059.65 599.34 C 1061.86 590.36 1062.49 580.98 1065.50 572.22 Z" />
</g>
<g id="#ff9600ff">
<path fill="#ff9600" opacity="1.00" d=" M 755.75 68.83 C 755.74 67.28 756.02 64.51 758.03 64.46 C 856.35 64.43 954.67 64.47 1053.00 64.44 C 1056.54 64.48 1060.22 64.05 1063.62 65.37 C 1063.61 84.58 1063.62 103.79 1063.62 123.00 C 1063.88 131.68 1062.95 140.44 1064.37 149.05 C 1064.36 150.98 1062.94 152.55 1062.22 154.27 C 1015.48 154.37 968.74 154.29 922.00 154.32 C 905.25 154.47 888.48 154.00 871.75 154.54 C 871.11 158.99 871.61 163.52 871.47 168.00 C 871.59 175.79 871.17 183.60 871.72 191.38 C 929.49 191.53 987.27 191.40 1045.03 191.44 C 1046.62 191.38 1048.08 192.10 1049.58 192.60 C 1049.53 217.21 1049.58 241.82 1049.55 266.43 C 1036.04 266.96 1022.51 266.52 1009.00 266.66 C 966.67 266.66 924.34 266.67 882.01 266.66 C 878.49 266.70 874.88 266.28 871.51 267.48 C 871.37 294.85 871.58 322.22 871.40 349.59 C 935.93 349.81 1000.48 349.58 1065.02 349.71 C 1066.55 349.81 1068.81 350.55 1068.56 352.51 C 1068.67 378.93 1068.61 405.37 1068.60 431.79 C 1068.99 434.25 1066.17 435.72 1064.06 435.40 C 1059.04 435.25 1053.96 435.82 1049.01 434.84 C 1043.99 433.79 1039.02 436.39 1034.02 435.04 C 1029.02 433.64 1024.02 436.30 1018.99 435.18 C 1015.04 434.27 1010.95 434.49 1007.01 435.27 C 1000.35 435.42 993.66 435.51 987.00 435.25 C 980.69 433.43 974.31 436.71 967.99 434.82 C 960.74 435.32 953.26 436.03 946.01 434.73 C 942.63 434.14 939.35 435.45 936.00 435.40 C 919.00 435.38 902.00 435.37 885.00 435.39 C 882.29 435.48 879.68 434.39 876.99 434.73 C 872.99 435.34 868.94 434.00 864.99 435.10 C 858.34 435.65 851.59 435.65 845.00 434.62 C 836.40 435.67 827.59 435.87 819.00 434.64 C 812.07 435.90 805.00 435.22 798.00 435.38 C 783.94 435.28 769.88 435.60 755.83 435.23 C 755.67 313.10 755.82 190.96 755.75 68.83 Z" />
</g>
</svg>
