<?xml version="1.0" encoding="UTF-8" ?>
<!DOCTYPE svg PUBLIC "-//W3C//DTD SVG 1.1//EN" "http://www.w3.org/Graphics/SVG/1.1/DTD/svg11.dtd">
<svg width="487pt" height="316pt" viewBox="0 0 487 316" version="1.1" xmlns="http://www.w3.org/2000/svg">
<g id="#0101011a">
<path fill="#010101" opacity="0.10" d=" M 222.38 5.37 C 228.54 2.05 232.19 9.06 238.00 7.96 C 311.32 8.12 384.64 7.86 457.96 8.08 C 471.39 9.22 481.52 22.33 479.40 35.69 C 480.73 51.09 479.66 66.58 479.97 82.02 C 485.06 101.60 480.61 122.17 479.97 142.02 C 484.53 156.78 480.96 173.49 481.93 188.99 L 480.98 188.96 C 480.95 174.92 481.15 160.88 480.92 146.85 C 478.68 147.08 477.44 149.14 476.13 150.71 C 475.48 151.53 474.83 152.35 474.19 153.18 C 474.10 148.08 473.94 143.00 473.90 137.90 L 474.24 137.17 C 480.70 129.09 478.87 118.59 479.08 108.99 C 477.64 105.49 481.55 99.05 477.23 96.97 C 476.10 98.65 475.13 100.42 474.16 102.19 C 473.79 76.45 474.11 50.71 474.01 24.98 C 473.83 19.40 470.28 13.29 464.25 12.71 C 386.25 11.13 308.08 12.31 230.02 12.12 C 230.67 4.74 218.30 6.57 215.93 11.92 C 205.65 12.15 195.38 11.87 185.11 12.03 C 184.64 12.04 183.69 12.05 183.22 12.06 C 130.08 12.39 76.75 11.12 23.72 12.65 L 22.85 12.90 C 16.90 14.53 12.31 20.74 13.06 27.00 C 12.91 37.09 12.83 47.18 13.18 57.26 C 12.82 74.80 13.04 92.34 13.02 109.88 C 13.01 115.84 12.97 121.79 13.19 127.75 C 12.97 142.71 12.83 157.69 13.12 172.66 C 12.98 182.02 12.89 191.38 13.11 200.74 C 13.00 212.08 12.85 223.43 13.13 234.78 C 12.98 253.51 12.87 272.25 13.07 290.98 C 13.50 296.30 17.11 301.54 22.64 302.40 C 35.75 303.67 49.00 302.81 62.16 302.93 C 67.83 303.00 73.50 302.96 79.17 302.92 C 84.86 303.01 90.55 302.97 96.24 302.91 C 105.28 303.08 114.32 303.04 123.35 302.84 C 130.99 303.08 138.63 303.02 146.27 302.87 C 154.94 303.02 163.62 303.16 172.29 302.85 C 179.26 303.02 186.24 303.07 193.22 302.89 C 203.55 303.03 213.89 303.13 224.23 302.86 C 235.20 303.08 246.17 303.04 257.15 302.92 C 258.47 302.94 259.80 302.95 261.13 302.95 C 265.37 303.01 269.61 302.97 273.86 303.08 C 275.45 304.63 276.74 307.55 279.42 306.62 C 289.09 304.07 300.09 307.56 309.17 303.28 L 310.05 302.97 C 312.67 302.98 315.30 302.98 317.94 302.96 L 318.93 302.95 L 319.86 302.95 C 323.14 302.95 326.49 303.02 329.80 302.94 C 334.48 302.95 339.18 303.02 343.88 302.97 C 345.81 303.00 347.75 303.06 349.69 303.15 C 355.69 303.54 362.23 305.40 368.08 303.16 C 373.35 302.97 378.65 303.02 383.93 302.96 C 383.27 305.36 380.45 309.43 387.98 306.06 C 393.25 306.42 398.54 305.75 403.22 303.24 C 403.61 303.11 404.38 302.86 404.77 302.73 C 424.38 302.95 444.10 303.49 463.68 302.66 C 472.55 301.46 474.91 291.61 474.06 284.03 L 474.14 283.23 C 481.64 281.74 482.55 263.31 473.93 266.79 C 473.96 265.21 473.98 263.62 474.01 262.04 L 474.05 261.16 C 481.78 262.11 480.93 244.54 473.94 251.95 C 473.97 247.97 474.00 244.00 474.03 240.03 C 483.28 234.36 477.64 221.75 478.91 212.90 C 477.02 212.86 475.46 213.93 473.94 214.89 C 474.05 208.61 473.91 202.33 474.05 196.06 C 475.43 194.78 476.74 193.42 478.05 192.06 C 478.49 191.74 479.38 191.09 479.83 190.77 C 477.78 205.55 484.94 219.45 481.15 234.10 C 477.01 242.39 485.04 251.04 481.19 259.20 C 477.85 262.97 483.24 267.00 482.03 271.01 C 481.17 284.99 477.96 304.07 461.62 307.61 C 317.82 309.06 173.94 307.49 29.98 308.04 C 17.65 307.76 7.39 296.30 8.06 284.00 C 7.98 199.01 7.93 114.02 8.08 29.04 C 9.20 17.19 20.08 7.53 32.00 8.05 C 81.99 7.84 131.99 8.20 181.98 7.89 C 195.23 5.58 209.79 11.72 222.38 5.37 Z" />
</g>
<g id="#1717172c">
<path fill="#171717" opacity="0.17" d=" M 215.93 11.92 C 218.30 6.57 230.67 4.74 230.02 12.12 L 228.93 12.18 L 228.06 12.18 C 224.01 12.07 219.97 11.98 215.93 11.92 Z" />
</g>
<g id="#2a8aa7d7">
<path fill="#2a8aa7" opacity="0.84" d=" M 23.72 12.65 C 76.75 11.12 130.08 12.39 183.22 12.06 C 182.94 12.34 182.39 12.89 182.11 13.17 C 162.78 12.86 143.45 13.02 124.12 13.02 C 112.45 13.02 100.79 12.91 89.12 13.05 C 78.47 13.00 67.82 12.95 57.17 13.03 C 46.02 12.95 34.86 13.20 23.72 12.65 Z" />
</g>
<g id="#fcfefeff">
<path fill="#fcfefe" opacity="1.00" d=" M 183.22 12.06 C 183.69 12.05 184.64 12.04 185.11 12.03 L 184.85 12.93 C 182.23 21.32 180.44 30.01 179.75 38.78 C 179.09 44.89 178.24 51.22 179.61 57.30 C 181.56 65.39 181.90 77.22 187.76 82.89 C 193.56 58.54 202.31 34.74 215.04 13.12 C 215.26 12.82 215.71 12.22 215.93 11.92 C 219.97 11.98 224.01 12.07 228.06 12.18 C 223.76 21.94 219.17 31.70 216.87 42.17 C 213.85 50.38 213.60 59.26 211.80 67.77 C 210.64 76.85 210.39 86.19 211.64 95.28 C 216.49 137.98 234.92 178.22 259.79 212.87 C 262.55 221.79 255.42 231.34 255.80 240.77 C 255.32 243.89 255.04 247.07 255.20 250.24 C 255.17 250.98 255.12 252.44 255.09 253.18 C 254.42 252.45 253.74 251.76 253.03 251.09 C 245.15 226.35 231.36 203.44 212.26 185.74 C 187.09 163.47 173.35 130.87 168.73 98.10 C 170.46 94.83 170.22 92.42 167.99 90.88 C 167.98 82.16 168.21 73.44 167.77 64.73 C 170.24 46.99 175.08 29.65 182.11 13.17 C 182.39 12.89 182.94 12.34 183.22 12.06 Z" />
<path fill="#fcfefe" opacity="1.00" d=" M 150.08 97.19 C 151.91 92.17 152.67 94.79 152.81 100.24 C 154.70 123.83 164.75 146.15 179.80 164.25 C 194.04 180.03 212.27 191.82 224.73 209.26 C 240.29 229.29 255.03 252.30 257.00 278.21 C 253.21 273.43 249.75 268.38 245.49 264.00 C 225.81 237.86 193.99 224.81 174.41 198.63 C 159.60 181.76 151.33 160.21 147.63 138.30 C 148.00 129.78 148.22 121.24 147.77 112.72 C 148.38 107.52 149.77 102.43 150.08 97.19 Z" />
<path fill="#fcfefe" opacity="1.00" d=" M 407.14 211.43 C 431.00 194.37 455.86 177.49 473.86 153.91 C 474.06 167.96 473.98 182.01 474.05 196.06 C 465.99 202.74 457.47 208.83 448.81 214.70 C 440.06 209.86 429.95 206.76 419.99 210.01 C 415.93 210.60 410.04 217.12 407.14 211.43 Z" />
</g>
<g id="#3b9cb4d8">
<path fill="#3b9cb4" opacity="0.85" d=" M 185.11 12.03 C 195.38 11.87 205.65 12.15 215.93 11.92 C 215.71 12.22 215.26 12.82 215.04 13.12 C 204.97 12.97 194.91 13.05 184.85 12.93 L 185.11 12.03 Z" />
</g>
<g id="#53c1deff">
<path fill="#53c1de" opacity="1.00" d=" M 228.06 12.18 L 228.93 12.18 C 232.50 12.56 236.08 12.88 239.67 13.15 C 245.44 18.74 256.61 14.39 263.39 19.73 C 256.81 20.96 249.97 17.98 243.60 20.57 C 252.03 21.16 261.09 22.00 268.23 26.95 C 258.69 26.58 247.48 22.55 238.76 25.90 C 250.07 25.48 263.00 27.01 272.21 34.00 C 265.69 33.10 259.45 30.40 252.76 30.97 C 261.19 34.91 271.62 35.53 278.16 42.99 C 270.68 40.87 263.84 35.97 255.74 37.03 C 264.57 40.72 275.05 43.12 281.12 51.11 C 272.93 47.46 265.01 42.47 255.79 41.98 C 265.90 47.01 277.90 51.18 284.23 60.97 C 276.01 55.87 267.87 48.58 257.80 47.95 C 269.88 54.20 283.48 61.48 288.10 75.15 C 280.36 67.40 273.45 56.92 261.83 54.95 C 269.96 60.43 278.48 65.91 283.03 74.98 C 289.47 83.47 288.29 94.59 290.60 104.43 C 291.61 96.21 291.73 87.94 290.05 79.81 C 297.16 86.93 291.88 100.17 295.97 108.19 C 297.19 100.42 296.74 92.53 297.21 84.71 C 300.67 92.94 298.95 102.67 300.37 111.40 C 301.73 107.68 302.30 103.75 303.26 99.93 C 309.11 103.76 303.46 111.54 304.05 117.26 C 306.12 115.09 305.91 106.40 309.88 110.24 C 309.53 115.10 308.58 120.22 305.98 124.42 C 294.81 120.10 282.46 120.10 270.95 123.09 C 274.52 118.24 277.47 113.00 277.92 106.83 C 273.61 106.92 274.22 112.96 271.03 115.16 C 271.54 110.06 272.75 105.06 273.03 99.93 C 268.97 101.38 270.12 108.11 267.21 111.36 C 265.46 108.12 270.44 101.93 266.12 99.88 C 264.69 102.98 263.84 106.30 262.32 109.36 C 261.10 106.42 265.04 101.00 261.32 98.98 C 260.28 101.56 259.66 104.56 257.15 106.19 C 257.51 103.38 257.71 100.54 256.79 97.81 C 255.09 99.47 254.50 102.18 252.27 103.24 C 251.87 100.76 251.07 95.80 250.67 93.31 C 240.02 93.59 250.41 91.67 251.64 88.67 C 254.24 84.90 246.88 88.23 244.78 87.78 C 247.32 85.34 250.56 83.48 254.26 83.56 C 251.88 81.43 248.86 80.21 246.09 78.68 C 247.41 75.35 251.56 78.15 254.18 77.95 C 251.90 74.24 247.29 73.84 243.63 72.27 C 246.31 72.13 251.68 71.86 254.36 71.73 C 250.27 68.99 245.24 68.72 240.62 67.41 C 244.84 67.18 249.08 66.70 253.20 65.70 C 249.10 62.74 242.94 64.53 238.74 62.07 C 243.21 61.46 247.73 61.27 252.22 60.78 C 248.10 56.70 241.14 59.15 236.05 57.91 C 239.40 55.04 247.03 57.54 251.11 54.11 C 245.73 52.93 240.17 53.29 234.71 52.76 C 238.92 50.63 243.80 50.70 248.31 49.68 C 243.96 45.79 236.79 49.27 231.58 47.66 C 237.62 45.60 244.19 46.36 250.34 44.73 C 243.66 39.20 234.63 44.16 226.88 43.96 C 234.26 41.00 243.68 38.71 252.22 39.87 C 243.48 33.31 231.70 41.35 222.19 37.40 C 220.41 38.98 218.99 41.00 216.87 42.17 C 219.17 31.70 223.76 21.94 228.06 12.18 Z" />
</g>
<g id="#58a3b9d7">
<path fill="#58a3b9" opacity="0.84" d=" M 228.93 12.18 L 230.02 12.12 C 308.08 12.31 386.25 11.13 464.25 12.71 C 444.14 13.30 424.02 12.86 403.90 13.01 C 389.84 12.98 375.79 12.94 361.74 13.11 C 345.38 12.96 329.01 12.87 312.66 13.14 C 297.70 12.91 282.74 12.90 267.79 13.13 C 258.41 12.94 249.04 12.91 239.67 13.15 C 236.08 12.88 232.50 12.56 228.93 12.18 Z" />
</g>
<g id="#348cb6ff">
<path fill="#348cb6" opacity="1.00" d=" M 13.06 27.00 C 12.31 20.74 16.90 14.53 22.85 12.90 C 21.10 23.79 24.79 16.75 27.93 13.70 C 27.71 17.92 26.79 22.04 26.18 26.21 C 28.18 23.44 29.43 20.10 31.99 17.76 C 32.03 22.35 29.91 26.64 30.07 31.24 C 32.18 28.54 33.53 25.30 35.84 22.75 C 35.26 27.56 34.28 32.32 34.06 37.18 C 35.69 34.71 37.16 32.13 38.83 29.69 C 38.75 34.59 37.61 39.37 37.12 44.22 C 39.19 40.80 40.79 37.11 42.84 33.68 C 42.53 39.56 41.41 45.35 41.14 51.24 C 42.96 48.16 43.94 44.68 45.82 41.63 C 46.25 46.85 45.60 52.05 45.17 57.24 C 47.26 53.94 47.84 49.98 49.78 46.61 C 50.38 52.18 49.39 57.70 49.08 63.24 C 51.66 59.75 51.88 55.01 54.80 51.74 C 54.45 58.27 53.01 64.73 53.06 71.28 C 55.34 66.91 55.94 61.81 58.82 57.73 C 59.21 63.51 55.74 69.81 58.58 75.15 C 60.53 72.10 59.36 66.06 62.93 64.94 C 61.99 71.95 62.48 79.06 61.97 86.11 C 65.40 83.35 62.31 74.38 66.95 72.95 C 65.69 78.90 66.67 84.96 67.02 90.96 C 68.66 88.81 68.02 83.41 70.79 80.68 C 72.11 87.53 70.15 94.80 72.67 101.42 C 74.29 97.44 70.36 88.40 75.91 86.88 C 77.07 93.93 76.89 101.09 77.16 108.21 C 82.42 104.86 73.10 92.20 80.86 93.05 C 81.25 99.00 81.72 104.96 82.01 110.92 C 81.51 111.10 80.51 111.46 80.01 111.64 C 72.66 111.59 62.08 107.61 57.74 115.83 L 56.84 116.23 C 55.10 109.24 56.41 101.74 54.91 94.89 C 49.43 98.41 54.23 108.52 52.09 111.98 C 46.73 105.04 54.21 92.86 48.29 85.63 C 47.15 92.67 48.62 100.76 46.21 107.31 C 45.56 98.97 45.15 90.61 44.81 82.26 C 40.53 78.33 43.03 91.50 41.60 93.37 C 38.24 88.31 41.99 82.19 39.80 76.86 C 36.42 77.54 37.48 89.02 35.68 83.32 C 34.79 78.29 35.90 73.05 35.94 67.96 C 31.38 68.89 33.66 76.78 31.32 80.43 C 30.82 73.87 31.28 67.29 30.84 60.73 C 29.14 62.96 29.09 70.29 26.72 69.18 C 25.44 64.47 27.66 58.80 26.89 53.72 C 24.55 57.65 24.27 62.36 22.27 66.42 C 21.67 60.13 23.04 53.90 22.80 47.62 C 20.63 51.25 19.80 55.47 18.23 59.37 C 17.46 53.44 19.25 47.63 18.90 41.72 C 15.64 46.29 15.59 52.26 13.18 57.26 C 12.83 47.18 12.91 37.09 13.06 27.00 Z" />
</g>
<g id="#3595beff">
<path fill="#3595be" opacity="1.00" d=" M 22.85 12.90 L 23.72 12.65 C 34.86 13.20 46.02 12.95 57.17 13.03 C 56.94 18.70 53.25 23.55 53.04 29.23 C 55.86 24.85 57.76 19.92 60.78 15.65 C 60.94 21.78 57.62 27.19 57.03 33.21 C 61.43 30.38 59.96 21.96 65.10 20.94 C 64.28 27.89 59.84 34.10 60.06 41.26 C 62.96 35.74 64.47 29.45 68.89 24.80 C 67.85 32.08 63.90 38.79 64.04 46.26 C 67.35 41.43 67.82 35.08 71.93 30.75 C 71.98 37.80 67.71 44.18 68.06 51.27 C 71.06 45.93 72.31 39.71 75.92 34.69 C 76.73 42.25 71.62 48.80 72.20 56.36 C 74.69 51.59 75.95 46.26 78.77 41.64 C 78.85 48.68 75.57 55.29 76.18 62.36 C 79.05 57.43 79.71 51.50 82.95 46.75 C 82.75 54.35 79.29 61.60 80.10 69.30 C 82.61 64.41 82.98 58.61 85.82 53.80 C 87.76 61.70 82.75 69.32 84.12 77.30 C 87.58 72.00 85.92 62.73 90.88 58.88 C 90.07 68.60 88.15 78.22 87.96 87.98 C 90.60 81.89 89.73 72.41 93.85 65.63 C 94.63 74.43 92.57 83.16 93.04 91.94 C 95.34 86.83 94.51 78.15 97.54 71.84 C 100.55 82.90 95.58 96.41 98.91 105.98 C 98.77 96.85 99.90 87.82 101.25 78.82 C 105.66 81.48 101.32 85.70 102.35 89.45 C 102.94 95.02 102.88 100.63 103.15 106.23 C 107.58 101.50 103.54 93.27 106.60 87.57 C 107.48 95.35 107.18 103.33 108.98 110.98 C 99.99 111.01 91.00 111.03 82.01 110.92 C 81.72 104.96 81.25 99.00 80.86 93.05 C 73.10 92.20 82.42 104.86 77.16 108.21 C 76.89 101.09 77.07 93.93 75.91 86.88 C 70.36 88.40 74.29 97.44 72.67 101.42 C 70.15 94.80 72.11 87.53 70.79 80.68 C 68.02 83.41 68.66 88.81 67.02 90.96 C 66.67 84.96 65.69 78.90 66.95 72.95 C 62.31 74.38 65.40 83.35 61.97 86.11 C 62.48 79.06 61.99 71.95 62.93 64.94 C 59.36 66.06 60.53 72.10 58.58 75.15 C 55.74 69.81 59.21 63.51 58.82 57.73 C 55.94 61.81 55.34 66.91 53.06 71.28 C 53.01 64.73 54.45 58.27 54.80 51.74 C 51.88 55.01 51.66 59.75 49.08 63.24 C 49.39 57.70 50.38 52.18 49.78 46.61 C 47.84 49.98 47.26 53.94 45.17 57.24 C 45.60 52.05 46.25 46.85 45.82 41.63 C 43.94 44.68 42.96 48.16 41.14 51.24 C 41.41 45.35 42.53 39.56 42.84 33.68 C 40.79 37.11 39.19 40.80 37.12 44.22 C 37.61 39.37 38.75 34.59 38.83 29.69 C 37.16 32.13 35.69 34.71 34.06 37.18 C 34.28 32.32 35.26 27.56 35.84 22.75 C 33.53 25.30 32.18 28.54 30.07 31.24 C 29.91 26.64 32.03 22.35 31.99 17.76 C 29.43 20.10 28.18 23.44 26.18 26.21 C 26.79 22.04 27.71 17.92 27.93 13.70 C 24.79 16.75 21.10 23.79 22.85 12.90 Z" />
</g>
<g id="#369fc4ff">
<path fill="#369fc4" opacity="1.00" d=" M 57.17 13.03 C 67.82 12.95 78.47 13.00 89.12 13.05 C 87.23 18.98 82.37 25.25 82.71 31.38 C 87.22 31.69 86.86 22.42 91.09 19.84 C 90.13 25.84 85.76 30.92 85.95 37.19 C 90.06 34.58 90.26 28.81 94.01 25.79 C 93.59 31.53 87.07 37.85 90.85 43.18 C 93.80 38.65 94.81 33.14 98.01 28.78 C 97.11 35.76 92.55 41.92 92.95 49.19 C 97.28 46.50 97.23 40.67 99.96 36.74 C 99.67 43.06 96.41 48.83 96.11 55.20 C 100.39 51.90 100.66 45.86 103.98 41.79 C 103.03 48.01 100.82 53.98 100.18 60.27 C 104.37 58.38 103.93 52.08 106.98 48.75 C 107.27 54.47 102.31 60.74 105.54 66.07 C 107.28 61.60 108.61 56.95 111.00 52.76 C 110.29 59.57 107.95 66.14 108.04 73.07 C 112.33 71.44 110.79 64.14 113.78 60.61 C 113.95 66.72 111.97 72.63 112.27 78.75 C 112.71 80.13 114.30 80.38 114.50 78.74 C 114.44 74.49 115.89 70.39 117.76 66.62 C 118.60 72.04 114.67 77.73 117.19 82.89 C 121.72 83.31 119.38 75.55 121.69 72.60 C 121.26 78.57 122.90 84.86 120.75 90.62 C 118.13 94.07 121.06 96.74 122.93 99.13 C 123.46 92.26 123.10 85.14 125.80 78.58 C 126.58 85.73 125.66 92.84 125.01 99.94 C 124.71 101.47 126.74 101.82 127.79 102.18 C 128.64 95.65 128.56 88.91 130.73 82.62 C 130.86 92.08 131.41 102.04 131.86 111.31 C 134.25 115.52 135.97 108.80 134.15 106.81 C 132.36 104.46 134.13 101.63 135.61 99.64 C 136.88 106.55 136.53 114.06 139.41 120.60 C 140.53 123.27 141.60 119.85 142.75 118.91 C 144.13 121.01 145.50 123.11 146.87 125.22 C 147.15 129.56 146.69 134.01 147.63 138.30 C 151.33 160.21 159.60 181.76 174.41 198.63 C 193.99 224.81 225.81 237.86 245.49 264.00 C 242.95 264.43 240.41 264.83 237.88 265.21 C 219.57 245.00 192.28 234.67 175.81 212.78 C 173.85 207.79 173.60 211.20 173.88 216.13 C 169.76 212.12 164.24 209.59 160.88 204.84 C 164.61 205.50 172.58 214.98 171.82 208.22 C 166.81 203.86 160.61 200.50 156.92 194.81 C 162.85 197.83 167.58 203.15 174.12 205.14 C 166.81 196.63 156.19 190.03 149.26 180.71 C 140.84 172.67 137.14 161.11 129.23 152.76 C 129.11 149.36 129.15 145.94 128.33 142.63 L 128.26 141.92 L 128.31 141.20 C 128.76 136.37 129.83 131.33 128.26 126.61 L 128.18 125.90 C 128.95 121.75 130.24 115.06 125.49 112.65 C 121.60 110.09 116.62 111.49 112.28 111.05 C 111.46 111.03 109.81 111.00 108.98 110.98 C 107.18 103.33 107.48 95.35 106.60 87.57 C 103.54 93.27 107.58 101.50 103.15 106.23 C 102.88 100.63 102.94 95.02 102.35 89.45 C 101.32 85.70 105.66 81.48 101.25 78.82 C 99.90 87.82 98.77 96.85 98.91 105.98 C 95.58 96.41 100.55 82.90 97.54 71.84 C 94.51 78.15 95.34 86.83 93.04 91.94 C 92.57 83.16 94.63 74.43 93.85 65.63 C 89.73 72.41 90.60 81.89 87.96 87.98 C 88.15 78.22 90.07 68.60 90.88 58.88 C 85.92 62.73 87.58 72.00 84.12 77.30 C 82.75 69.32 87.76 61.70 85.82 53.80 C 82.98 58.61 82.61 64.41 80.10 69.30 C 79.29 61.60 82.75 54.35 82.95 46.75 C 79.71 51.50 79.05 57.43 76.18 62.36 C 75.57 55.29 78.85 48.68 78.77 41.64 C 75.95 46.26 74.69 51.59 72.20 56.36 C 71.62 48.80 76.73 42.25 75.92 34.69 C 72.31 39.71 71.06 45.93 68.06 51.27 C 67.71 44.18 71.98 37.80 71.93 30.75 C 67.82 35.08 67.35 41.43 64.04 46.26 C 63.90 38.79 67.85 32.08 68.89 24.80 C 64.47 29.45 62.96 35.74 60.06 41.26 C 59.84 34.10 64.28 27.89 65.10 20.94 C 59.96 21.96 61.43 30.38 57.03 33.21 C 57.62 27.19 60.94 21.78 60.78 15.65 C 57.76 19.92 55.86 24.85 53.04 29.23 C 53.25 23.55 56.94 18.70 57.17 13.03 Z" />
</g>
<g id="#29a7cbff">
<path fill="#29a7cb" opacity="1.00" d=" M 89.12 13.05 C 100.79 12.91 112.45 13.02 124.12 13.02 C 121.75 17.74 118.35 22.01 116.98 27.16 C 121.15 23.60 122.01 16.03 128.04 14.85 C 127.55 19.44 124.14 22.86 122.89 27.17 C 126.65 24.80 127.34 18.48 132.04 17.90 C 132.21 24.83 124.81 29.25 124.06 36.16 C 128.78 32.31 129.11 21.90 136.09 21.97 C 132.65 33.85 122.55 43.48 120.99 56.22 C 127.28 46.71 128.86 31.96 139.04 25.89 C 137.06 38.30 125.64 48.17 125.00 61.24 C 129.93 51.15 132.91 39.97 140.12 31.10 C 142.49 30.06 142.16 32.23 141.81 33.84 C 137.13 44.37 129.98 54.58 129.03 66.27 C 133.59 55.45 136.77 43.62 144.83 34.68 C 146.50 40.57 141.63 44.70 139.73 49.70 C 136.35 58.28 132.22 66.98 132.29 76.39 C 136.12 64.71 138.10 49.44 148.04 41.91 C 143.43 55.47 136.32 68.58 135.98 83.21 C 139.13 74.76 139.59 65.16 143.96 56.98 C 145.40 54.35 146.45 50.06 150.10 49.90 C 146.85 61.89 140.38 73.27 140.88 86.11 C 143.59 76.52 144.89 64.88 150.97 55.99 C 152.38 54.23 155.46 49.86 152.44 58.51 C 146.38 76.49 141.90 96.44 146.75 115.22 C 146.84 118.54 146.93 121.89 146.87 125.22 C 145.50 123.11 144.13 121.01 142.75 118.91 C 141.60 119.85 140.53 123.27 139.41 120.60 C 136.53 114.06 136.88 106.55 135.61 99.64 C 134.13 101.63 132.36 104.46 134.15 106.81 C 135.97 108.80 134.25 115.52 131.86 111.31 C 131.41 102.04 130.86 92.08 130.73 82.62 C 128.56 88.91 128.64 95.65 127.79 102.18 C 126.74 101.82 124.71 101.47 125.01 99.94 C 125.66 92.84 126.58 85.73 125.80 78.58 C 123.10 85.14 123.46 92.26 122.93 99.13 C 121.06 96.74 118.13 94.07 120.75 90.62 C 122.90 84.86 121.26 78.57 121.69 72.60 C 119.38 75.55 121.72 83.31 117.19 82.89 C 114.67 77.73 118.60 72.04 117.76 66.62 C 115.89 70.39 114.44 74.49 114.50 78.74 C 114.30 80.38 112.71 80.13 112.27 78.75 C 111.97 72.63 113.95 66.72 113.78 60.61 C 110.79 64.14 112.33 71.44 108.04 73.07 C 107.95 66.14 110.29 59.57 111.00 52.76 C 108.61 56.95 107.28 61.60 105.54 66.07 C 102.31 60.74 107.27 54.47 106.98 48.75 C 103.93 52.08 104.37 58.38 100.18 60.27 C 100.82 53.98 103.03 48.01 103.98 41.79 C 100.66 45.86 100.39 51.90 96.11 55.20 C 96.41 48.83 99.67 43.06 99.96 36.74 C 97.23 40.67 97.28 46.50 92.95 49.19 C 92.55 41.92 97.11 35.76 98.01 28.78 C 94.81 33.14 93.80 38.65 90.85 43.18 C 87.07 37.85 93.59 31.53 94.01 25.79 C 90.26 28.81 90.06 34.58 85.95 37.19 C 85.76 30.92 90.13 25.84 91.09 19.84 C 86.86 22.42 87.22 31.69 82.71 31.38 C 82.37 25.25 87.23 18.98 89.12 13.05 Z" />
</g>
<g id="#33b0d1ff">
<path fill="#33b0d1" opacity="1.00" d=" M 124.12 13.02 C 143.45 13.02 162.78 12.86 182.11 13.17 C 175.08 29.65 170.24 46.99 167.77 64.73 C 164.13 75.59 168.72 87.72 165.95 98.99 C 166.80 112.04 166.46 95.22 167.65 91.61 C 167.92 93.24 168.46 96.48 168.73 98.10 C 173.35 130.87 187.09 163.47 212.26 185.74 C 231.36 203.44 245.15 226.35 253.03 251.09 C 251.49 253.38 254.85 257.27 255.09 253.18 C 255.12 252.44 255.17 250.98 255.20 250.24 C 255.60 247.08 255.95 243.94 255.80 240.77 C 255.42 231.34 262.55 221.79 259.79 212.87 C 263.27 212.56 266.84 211.08 270.39 211.82 C 267.16 219.91 265.48 228.52 263.56 236.99 C 262.12 239.46 262.02 241.79 263.26 243.99 C 261.41 264.22 264.19 285.04 273.86 303.08 C 269.61 302.97 265.37 303.01 261.13 302.95 C 255.45 289.26 247.22 276.66 237.88 265.21 C 240.41 264.83 242.95 264.43 245.49 264.00 C 249.75 268.38 253.21 273.43 257.00 278.21 C 255.03 252.30 240.29 229.29 224.73 209.26 C 212.27 191.82 194.04 180.03 179.80 164.25 C 164.75 146.15 154.70 123.83 152.81 100.24 C 152.83 97.09 153.03 93.96 152.93 90.81 C 150.46 92.11 149.67 94.51 150.08 97.19 C 149.77 102.43 148.38 107.52 147.77 112.72 C 147.51 113.35 147.00 114.60 146.75 115.22 C 141.90 96.44 146.38 76.49 152.44 58.51 C 155.46 49.86 152.38 54.23 150.97 55.99 C 144.89 64.88 143.59 76.52 140.88 86.11 C 140.38 73.27 146.85 61.89 150.10 49.90 C 146.45 50.06 145.40 54.35 143.96 56.98 C 139.59 65.16 139.13 74.76 135.98 83.21 C 136.32 68.58 143.43 55.47 148.04 41.91 C 138.10 49.44 136.12 64.71 132.29 76.39 C 132.22 66.98 136.35 58.28 139.73 49.70 C 141.63 44.70 146.50 40.57 144.83 34.68 C 136.77 43.62 133.59 55.45 129.03 66.27 C 129.98 54.58 137.13 44.37 141.81 33.84 C 142.16 32.23 142.49 30.06 140.12 31.10 C 132.91 39.97 129.93 51.15 125.00 61.24 C 125.64 48.17 137.06 38.30 139.04 25.89 C 128.86 31.96 127.28 46.71 120.99 56.22 C 122.55 43.48 132.65 33.85 136.09 21.97 C 129.11 21.90 128.78 32.31 124.06 36.16 C 124.81 29.25 132.21 24.83 132.04 17.90 C 127.34 18.48 126.65 24.80 122.89 27.17 C 124.14 22.86 127.55 19.44 128.04 14.85 C 122.01 16.03 121.15 23.60 116.98 27.16 C 118.35 22.01 121.75 17.74 124.12 13.02 Z" />
</g>
<g id="#41bddbff">
<path fill="#41bddb" opacity="1.00" d=" M 184.85 12.93 C 194.91 13.05 204.97 12.97 215.04 13.12 C 202.31 34.74 193.56 58.54 187.76 82.89 C 181.90 77.22 181.56 65.39 179.61 57.30 C 179.96 51.13 179.96 44.95 179.75 38.78 C 180.44 30.01 182.23 21.32 184.85 12.93 Z" />
</g>
<g id="#5dc3e0ff">
<path fill="#5dc3e0" opacity="1.00" d=" M 239.67 13.15 C 249.04 12.91 258.41 12.94 267.79 13.13 C 308.55 25.37 336.25 67.98 332.03 110.21 C 335.48 98.57 333.80 84.93 332.34 72.59 C 337.12 85.59 337.13 99.58 337.09 113.23 C 340.51 104.82 339.06 94.64 340.21 85.71 C 343.48 96.90 342.06 109.51 341.15 121.27 C 344.40 114.06 344.21 105.81 345.20 98.08 C 345.65 98.05 346.57 98.00 347.02 97.97 C 347.64 108.50 345.83 118.90 344.05 129.22 C 349.86 122.59 346.73 109.94 352.02 104.94 C 351.95 117.31 349.05 129.33 344.85 140.89 C 338.23 145.66 327.26 145.97 322.41 138.61 C 317.81 132.97 312.91 127.24 305.98 124.42 C 308.58 120.22 309.53 115.10 309.88 110.24 C 305.91 106.40 306.12 115.09 304.05 117.26 C 303.46 111.54 309.11 103.76 303.26 99.93 C 302.30 103.75 301.73 107.68 300.37 111.40 C 298.95 102.67 300.67 92.94 297.21 84.71 C 296.74 92.53 297.19 100.42 295.97 108.19 C 291.88 100.17 297.16 86.93 290.05 79.81 C 291.73 87.94 291.61 96.21 290.60 104.43 C 288.29 94.59 289.47 83.47 283.03 74.98 C 278.48 65.91 269.96 60.43 261.83 54.95 C 273.45 56.92 280.36 67.40 288.10 75.15 C 283.48 61.48 269.88 54.20 257.80 47.95 C 267.87 48.58 276.01 55.87 284.23 60.97 C 277.90 51.18 265.90 47.01 255.79 41.98 C 265.01 42.47 272.93 47.46 281.12 51.11 C 275.05 43.12 264.57 40.72 255.74 37.03 C 263.84 35.97 270.68 40.87 278.16 42.99 C 271.62 35.53 261.19 34.91 252.76 30.97 C 259.45 30.40 265.69 33.10 272.21 34.00 C 263.00 27.01 250.07 25.48 238.76 25.90 C 247.48 22.55 258.69 26.58 268.23 26.95 C 261.09 22.00 252.03 21.16 243.60 20.57 C 249.97 17.98 256.81 20.96 263.39 19.73 C 256.61 14.39 245.44 18.74 239.67 13.15 Z" />
</g>
<g id="#64c5e1ff">
<path fill="#64c5e1" opacity="1.00" d=" M 267.79 13.13 C 282.74 12.90 297.70 12.91 312.66 13.14 C 332.13 29.84 345.49 52.59 351.80 77.37 C 350.73 59.92 342.00 43.98 332.03 30.02 C 332.49 29.78 333.40 29.31 333.86 29.07 C 347.75 45.93 354.80 67.28 358.88 88.34 C 359.54 72.45 354.06 57.13 347.15 43.07 C 347.56 42.82 348.37 42.31 348.78 42.06 C 358.17 60.10 362.64 80.81 365.03 100.19 C 366.18 85.80 363.39 71.70 360.13 57.78 C 367.11 72.64 368.56 89.84 369.05 106.07 C 371.21 96.80 370.81 84.95 370.14 74.61 C 374.34 86.85 372.55 101.31 374.85 113.21 C 375.49 103.38 376.16 93.56 376.19 83.71 C 379.78 95.65 379.17 108.86 378.12 121.27 C 381.37 112.36 381.19 102.40 382.13 93.05 C 385.89 102.80 382.84 116.04 382.08 127.27 C 386.18 119.34 386.13 109.80 387.18 101.06 C 390.68 109.33 386.88 121.39 387.07 131.26 C 390.36 124.15 390.29 115.96 392.87 108.64 C 393.98 119.36 391.04 129.80 390.26 140.39 C 394.95 133.34 392.84 123.19 397.94 116.77 C 397.86 126.40 394.73 135.69 394.02 145.25 C 397.94 138.19 398.68 129.98 401.80 122.62 C 402.34 133.83 397.98 144.40 396.04 155.23 C 400.42 147.22 402.27 138.05 405.81 129.64 C 405.63 140.18 402.38 150.25 399.00 160.10 C 381.63 172.59 366.47 187.88 353.97 205.23 C 353.75 204.17 353.17 203.01 354.18 202.17 C 363.63 190.49 373.70 178.44 378.04 163.81 C 371.83 169.55 369.92 179.10 362.88 184.14 C 365.96 174.99 373.60 167.57 375.00 157.81 C 369.41 164.52 366.32 173.04 359.97 179.16 C 362.79 170.69 369.24 163.70 371.03 154.81 C 365.13 159.68 363.80 168.35 357.91 173.18 C 358.79 165.91 366.24 160.62 364.88 152.79 C 373.08 149.69 361.15 148.98 357.70 150.71 C 352.36 154.56 345.12 156.63 338.86 153.81 C 344.93 150.42 348.64 143.65 355.14 141.23 C 363.31 139.07 348.23 139.89 344.85 140.89 C 349.05 129.33 351.95 117.31 352.02 104.94 C 346.73 109.94 349.86 122.59 344.05 129.22 C 345.83 118.90 347.64 108.50 347.02 97.97 C 346.57 98.00 345.65 98.05 345.20 98.08 C 344.21 105.81 344.40 114.06 341.15 121.27 C 342.06 109.51 343.48 96.90 340.21 85.71 C 339.06 94.64 340.51 104.82 337.09 113.23 C 337.13 99.58 337.12 85.59 332.34 72.59 C 333.80 84.93 335.48 98.57 332.03 110.21 C 336.25 67.98 308.55 25.37 267.79 13.13 Z" />
</g>
<g id="#6dc8e3ff">
<path fill="#6dc8e3" opacity="1.00" d=" M 312.66 13.14 C 329.01 12.87 345.38 12.96 361.74 13.11 C 371.50 27.08 378.89 42.43 384.89 58.32 C 383.55 44.06 375.95 31.30 369.07 18.98 C 365.83 18.11 369.81 15.05 370.21 16.75 C 381.24 34.50 388.98 54.07 393.88 74.36 C 394.78 58.94 386.75 45.20 383.01 30.77 C 391.97 45.31 395.68 62.35 399.20 78.86 C 399.93 81.11 402.57 87.02 400.51 77.46 C 400.38 68.35 397.32 59.70 396.07 50.76 C 402.37 62.38 402.86 75.94 405.38 88.66 C 406.45 90.89 408.67 95.94 406.93 86.05 C 407.31 78.88 405.29 71.90 405.13 64.75 C 410.76 77.36 409.05 92.45 411.87 105.28 C 412.16 95.38 412.99 85.50 412.23 75.60 C 416.57 86.84 414.88 99.43 416.08 111.20 C 418.52 103.55 417.54 94.17 418.13 85.77 C 422.09 94.50 419.20 106.58 421.23 116.31 C 424.22 109.90 421.75 100.63 424.96 94.89 C 427.14 104.94 423.74 115.13 425.09 125.27 C 428.40 117.93 426.97 109.12 429.77 101.59 C 430.35 110.80 429.67 120.05 430.12 129.27 C 433.22 123.54 431.23 116.19 434.76 110.61 C 435.35 120.43 434.96 130.56 431.97 140.02 C 420.77 146.35 409.63 152.85 399.00 160.10 C 402.38 150.25 405.63 140.18 405.81 129.64 C 402.27 138.05 400.42 147.22 396.04 155.23 C 397.98 144.40 402.34 133.83 401.80 122.62 C 398.68 129.98 397.94 138.19 394.02 145.25 C 394.73 135.69 397.86 126.40 397.94 116.77 C 392.84 123.19 394.95 133.34 390.26 140.39 C 391.04 129.80 393.98 119.36 392.87 108.64 C 390.29 115.96 390.36 124.15 387.07 131.26 C 386.88 121.39 390.68 109.33 387.18 101.06 C 386.13 109.80 386.18 119.34 382.08 127.27 C 382.84 116.04 385.89 102.80 382.13 93.05 C 381.19 102.40 381.37 112.36 378.12 121.27 C 379.17 108.86 379.78 95.65 376.19 83.71 C 376.16 93.56 375.49 103.38 374.85 113.21 C 372.55 101.31 374.34 86.85 370.14 74.61 C 370.81 84.95 371.21 96.80 369.05 106.07 C 368.56 89.84 367.11 72.64 360.13 57.78 C 363.39 71.70 366.18 85.80 365.03 100.19 C 362.64 80.81 358.17 60.10 348.78 42.06 C 348.37 42.31 347.56 42.82 347.15 43.07 C 354.06 57.13 359.54 72.45 358.88 88.34 C 354.80 67.28 347.75 45.93 333.86 29.07 C 333.40 29.31 332.49 29.78 332.03 30.02 C 342.00 43.98 350.73 59.92 351.80 77.37 C 345.49 52.59 332.13 29.84 312.66 13.14 Z" />
</g>
<g id="#76cae5ff">
<path fill="#76cae5" opacity="1.00" d=" M 361.74 13.11 C 375.79 12.94 389.84 12.98 403.90 13.01 C 411.78 23.08 414.21 36.11 419.96 47.26 C 418.57 35.60 413.01 24.76 408.92 13.84 C 419.33 27.72 423.63 45.85 428.76 62.39 C 429.49 50.65 423.60 40.00 422.04 28.75 C 429.22 42.29 431.56 57.83 435.80 72.41 C 436.81 63.36 433.87 54.61 433.03 45.73 C 438.68 57.49 438.76 71.11 442.70 83.39 C 443.13 74.75 441.77 66.19 441.40 57.58 C 444.25 68.29 446.49 79.21 447.28 90.27 C 450.17 83.51 448.39 75.84 448.19 68.74 C 452.31 77.57 450.12 88.59 453.90 97.17 C 455.71 91.79 452.95 82.67 454.97 79.03 C 458.10 87.12 456.28 99.69 458.89 108.18 C 459.42 101.37 459.71 94.54 460.25 87.73 C 462.85 97.97 463.79 109.69 461.04 120.23 C 452.37 128.20 442.48 134.74 431.97 140.02 C 434.96 130.56 435.35 120.43 434.76 110.61 C 431.23 116.19 433.22 123.54 430.12 129.27 C 429.67 120.05 430.35 110.80 429.77 101.59 C 426.97 109.12 428.40 117.93 425.09 125.27 C 423.74 115.13 427.14 104.94 424.96 94.89 C 421.75 100.63 424.22 109.90 421.23 116.31 C 419.20 106.58 422.09 94.50 418.13 85.77 C 417.54 94.17 418.52 103.55 416.08 111.20 C 414.88 99.43 416.57 86.84 412.23 75.60 C 412.99 85.50 412.16 95.38 411.87 105.28 C 409.05 92.45 410.76 77.36 405.13 64.75 C 405.29 71.90 407.31 78.88 406.93 86.05 C 408.67 95.94 406.45 90.89 405.38 88.66 C 402.86 75.94 402.37 62.38 396.07 50.76 C 397.32 59.70 400.38 68.35 400.51 77.46 C 402.57 87.02 399.93 81.11 399.20 78.86 C 395.68 62.35 391.97 45.31 383.01 30.77 C 386.75 45.20 394.78 58.94 393.88 74.36 C 388.98 54.07 381.24 34.50 370.21 16.75 C 369.81 15.05 365.83 18.11 369.07 18.98 C 375.95 31.30 383.55 44.06 384.89 58.32 C 378.89 42.43 371.50 27.08 361.74 13.11 Z" />
</g>
<g id="#7fcde6ff">
<path fill="#7fcde6" opacity="1.00" d=" M 403.90 13.01 C 424.02 12.86 444.14 13.30 464.25 12.71 C 470.28 13.29 473.83 19.40 474.01 24.98 C 474.11 50.71 473.79 76.45 474.16 102.19 C 474.09 102.60 473.94 103.42 473.87 103.83 C 470.26 109.78 466.59 115.87 461.04 120.23 C 463.79 109.69 462.85 97.97 460.25 87.73 C 459.71 94.54 459.42 101.37 458.89 108.18 C 456.28 99.69 458.10 87.12 454.97 79.03 C 452.95 82.67 455.71 91.79 453.90 97.17 C 450.12 88.59 452.31 77.57 448.19 68.74 C 448.39 75.84 450.17 83.51 447.28 90.27 C 446.49 79.21 444.25 68.29 441.40 57.58 C 441.77 66.19 443.13 74.75 442.70 83.39 C 438.76 71.11 438.68 57.49 433.03 45.73 C 433.87 54.61 436.81 63.36 435.80 72.41 C 431.56 57.83 429.22 42.29 422.04 28.75 C 423.60 40.00 429.49 50.65 428.76 62.39 C 423.63 45.85 419.33 27.72 408.92 13.84 C 413.01 24.76 418.57 35.60 419.96 47.26 C 414.21 36.11 411.78 23.08 403.90 13.01 Z" />
</g>
<g id="#48bfddff">
<path fill="#48bfdd" opacity="1.00" d=" M 222.19 37.40 C 231.70 41.35 243.48 33.31 252.22 39.87 C 243.68 38.71 234.26 41.00 226.88 43.96 C 234.63 44.16 243.66 39.20 250.34 44.73 C 244.19 46.36 237.62 45.60 231.58 47.66 C 236.79 49.27 243.96 45.79 248.31 49.68 C 243.80 50.70 238.92 50.63 234.71 52.76 C 240.17 53.29 245.73 52.93 251.11 54.11 C 247.03 57.54 239.40 55.04 236.05 57.91 C 241.14 59.15 248.10 56.70 252.22 60.78 C 247.73 61.27 243.21 61.46 238.74 62.07 C 242.94 64.53 249.10 62.74 253.20 65.70 C 249.08 66.70 244.84 67.18 240.62 67.41 C 245.24 68.72 250.27 68.99 254.36 71.73 C 251.68 71.86 246.31 72.13 243.63 72.27 C 247.29 73.84 251.90 74.24 254.18 77.95 C 251.56 78.15 247.41 75.35 246.09 78.68 C 248.86 80.21 251.88 81.43 254.26 83.56 C 250.56 83.48 247.32 85.34 244.78 87.78 C 246.88 88.23 254.24 84.90 251.64 88.67 C 250.41 91.67 240.02 93.59 250.67 93.31 C 251.07 95.80 251.87 100.76 252.27 103.24 C 254.50 102.18 255.09 99.47 256.79 97.81 C 257.71 100.54 257.51 103.38 257.15 106.19 C 259.66 104.56 260.28 101.56 261.32 98.98 C 265.04 101.00 261.10 106.42 262.32 109.36 C 263.84 106.30 264.69 102.98 266.12 99.88 C 270.44 101.93 265.46 108.12 267.21 111.36 C 270.12 108.11 268.97 101.38 273.03 99.93 C 272.75 105.06 271.54 110.06 271.03 115.16 C 274.22 112.96 273.61 106.92 277.92 106.83 C 277.47 113.00 274.52 118.24 270.95 123.09 C 257.34 127.74 243.93 118.80 230.68 116.28 C 236.85 111.09 250.29 121.62 255.18 112.26 C 249.30 112.33 243.20 113.78 237.60 111.36 C 242.03 110.26 248.40 113.03 251.24 108.26 C 247.30 108.19 243.41 107.58 239.64 106.47 C 241.15 108.60 250.74 104.24 244.87 103.19 C 238.90 102.56 239.27 95.66 241.80 91.74 C 237.81 91.78 235.76 94.74 235.07 98.36 C 232.97 93.12 236.86 89.81 240.14 86.89 C 235.36 87.20 231.91 91.13 229.89 95.15 C 229.19 89.12 234.94 85.99 238.14 81.90 C 233.16 83.03 229.18 86.39 225.89 90.13 C 225.76 83.30 233.37 81.36 237.19 76.94 C 230.24 77.84 224.08 82.99 220.89 89.15 C 220.13 80.87 229.63 77.84 233.27 72.06 C 228.81 73.36 225.00 76.14 220.75 77.95 C 222.62 73.38 227.76 71.31 231.12 67.90 C 222.77 68.45 216.27 75.41 212.16 82.19 C 212.07 77.37 211.90 72.57 211.80 67.77 C 213.60 59.26 213.85 50.38 216.87 42.17 C 218.99 41.00 220.41 38.98 222.19 37.40 Z" />
</g>
<g id="#8ad6e9ff">
<path fill="#8ad6e9" opacity="1.00" d=" M 179.61 57.30 C 178.24 51.22 179.09 44.89 179.75 38.78 C 179.96 44.95 179.96 51.13 179.61 57.30 Z" />
</g>
<g id="#3481aeff">
<path fill="#3481ae" opacity="1.00" d=" M 13.18 57.26 C 15.59 52.26 15.64 46.29 18.90 41.72 C 19.25 47.63 17.46 53.44 18.23 59.37 C 19.80 55.47 20.63 51.25 22.80 47.62 C 23.04 53.90 21.67 60.13 22.27 66.42 C 24.27 62.36 24.55 57.65 26.89 53.72 C 27.66 58.80 25.44 64.47 26.72 69.18 C 29.09 70.29 29.14 62.96 30.84 60.73 C 31.28 67.29 30.82 73.87 31.32 80.43 C 33.66 76.78 31.38 68.89 35.94 67.96 C 35.90 73.05 34.79 78.29 35.68 83.32 C 37.48 89.02 36.42 77.54 39.80 76.86 C 41.99 82.19 38.24 88.31 41.60 93.37 C 43.03 91.50 40.53 78.33 44.81 82.26 C 45.15 90.61 45.56 98.97 46.21 107.31 C 48.62 100.76 47.15 92.67 48.29 85.63 C 54.21 92.86 46.73 105.04 52.09 111.98 C 54.23 108.52 49.43 98.41 54.91 94.89 C 56.41 101.74 55.10 109.24 56.84 116.23 C 57.07 118.85 57.22 121.51 57.62 124.13 L 57.71 124.86 C 57.72 125.18 57.76 125.83 57.77 126.15 L 57.73 126.90 C 57.43 131.27 56.10 135.93 57.75 140.18 L 57.98 141.04 L 57.93 141.96 L 57.82 142.86 C 57.10 147.58 56.34 152.52 57.63 157.20 C 57.64 157.85 57.67 158.51 57.71 159.16 C 57.81 161.87 57.96 164.58 58.14 167.30 C 53.14 159.09 52.01 148.13 47.18 140.73 C 48.23 150.83 52.06 160.33 54.00 170.22 C 46.79 157.77 45.91 142.46 40.15 129.61 C 39.47 137.62 42.09 145.35 42.99 153.22 C 39.29 141.71 36.00 129.39 34.78 117.10 C 30.23 118.19 36.98 127.97 32.30 131.15 C 30.90 122.04 28.10 112.99 29.44 103.70 C 29.75 103.03 27.64 100.80 27.95 102.73 C 24.55 109.55 29.15 119.33 26.13 125.11 C 25.48 117.40 25.60 108.86 22.09 101.93 C 20.82 107.27 22.44 113.44 20.22 118.33 C 19.66 110.70 19.76 101.36 17.02 95.03 C 14.76 99.20 16.47 106.50 14.91 112.04 C 14.26 111.34 13.63 110.62 13.02 109.88 C 13.04 92.34 12.82 74.80 13.18 57.26 Z" />
</g>
<g id="#62c2dcff">
<path fill="#62c2dc" opacity="1.00" d=" M 165.95 98.99 C 168.72 87.72 164.13 75.59 167.77 64.73 C 168.21 73.44 167.98 82.16 167.99 90.88 L 167.65 91.61 C 166.46 95.22 166.80 112.04 165.95 98.99 Z" />
</g>
<g id="#abe3f0ff">
<path fill="#abe3f0" opacity="1.00" d=" M 211.64 95.28 C 210.39 86.19 210.64 76.85 211.80 67.77 C 211.90 72.57 212.07 77.37 212.16 82.19 C 212.00 86.55 211.84 90.91 211.64 95.28 Z" />
</g>
<g id="#3bbbdaff">
<path fill="#3bbbda" opacity="1.00" d=" M 212.16 82.19 C 216.27 75.41 222.77 68.45 231.12 67.90 C 227.76 71.31 222.62 73.38 220.75 77.95 C 225.00 76.14 228.81 73.36 233.27 72.06 C 229.63 77.84 220.13 80.87 220.89 89.15 C 224.08 82.99 230.24 77.84 237.19 76.94 C 233.37 81.36 225.76 83.30 225.89 90.13 C 229.18 86.39 233.16 83.03 238.14 81.90 C 234.94 85.99 229.19 89.12 229.89 95.15 C 231.91 91.13 235.36 87.20 240.14 86.89 C 236.86 89.81 232.97 93.12 235.07 98.36 C 235.76 94.74 237.81 91.78 241.80 91.74 C 239.27 95.66 238.90 102.56 244.87 103.19 C 250.74 104.24 241.15 108.60 239.64 106.47 C 243.41 107.58 247.30 108.19 251.24 108.26 C 248.40 113.03 242.03 110.26 237.60 111.36 C 243.20 113.78 249.30 112.33 255.18 112.26 C 250.29 121.62 236.85 111.09 230.68 116.28 C 228.33 115.61 226.02 114.82 223.65 114.21 C 244.57 132.10 269.95 149.45 279.18 176.80 C 279.16 180.27 279.14 183.77 279.22 187.25 C 277.75 195.92 274.04 203.90 270.39 211.82 C 266.84 211.08 263.27 212.56 259.79 212.87 C 234.92 178.22 216.49 137.98 211.64 95.28 C 211.84 90.91 212.00 86.55 212.16 82.19 M 241.95 143.89 C 244.74 151.30 248.97 158.55 246.84 166.92 C 240.95 182.70 252.10 198.27 263.71 207.99 C 268.88 199.26 258.77 189.63 259.59 180.34 C 259.53 177.88 261.32 172.98 259.00 171.99 C 258.46 160.83 251.52 149.40 241.95 143.89 Z" />
</g>
<g id="#88cee2ff">
<path fill="#88cee2" opacity="1.00" d=" M 150.08 97.19 C 149.67 94.51 150.46 92.11 152.93 90.81 C 153.03 93.96 152.83 97.09 152.81 100.24 C 152.67 94.79 151.91 92.17 150.08 97.19 Z" />
</g>
<g id="#9bdae9ff">
<path fill="#9bdae9" opacity="1.00" d=" M 167.99 90.88 C 170.22 92.42 170.46 94.83 168.73 98.10 C 168.46 96.48 167.92 93.24 167.65 91.61 L 167.99 90.88 Z" />
</g>
<g id="#3276a6ff">
<path fill="#3276a6" opacity="1.00" d=" M 14.91 112.04 C 16.47 106.50 14.76 99.20 17.02 95.03 C 19.76 101.36 19.66 110.70 20.22 118.33 C 22.44 113.44 20.82 107.27 22.09 101.93 C 25.60 108.86 25.48 117.40 26.13 125.11 C 29.15 119.33 24.55 109.55 27.95 102.73 C 27.64 100.80 29.75 103.03 29.44 103.70 C 28.10 112.99 30.90 122.04 32.30 131.15 C 36.98 127.97 30.23 118.19 34.78 117.10 C 36.00 129.39 39.29 141.71 42.99 153.22 C 42.09 145.35 39.47 137.62 40.15 129.61 C 45.91 142.46 46.79 157.77 54.00 170.22 C 52.06 160.33 48.23 150.83 47.18 140.73 C 52.01 148.13 53.14 159.09 58.14 167.30 C 58.36 167.71 58.78 168.52 58.99 168.93 C 59.15 169.39 59.46 170.31 59.62 170.76 C 66.81 196.07 84.05 218.01 101.34 237.68 C 106.52 244.50 115.45 248.20 119.23 256.03 C 100.12 244.16 86.71 224.92 72.85 207.87 C 83.27 226.61 98.53 242.38 114.47 256.54 C 117.93 260.81 124.05 262.75 126.27 267.97 C 117.39 263.38 110.63 255.59 101.94 250.85 C 109.79 261.57 121.92 267.73 131.15 277.03 C 122.53 275.38 116.78 267.37 108.90 263.88 C 117.45 273.66 129.54 279.36 139.16 287.97 C 131.50 286.58 125.86 280.84 118.88 277.93 C 125.62 285.73 136.03 288.81 143.20 296.05 C 137.50 295.82 133.10 291.69 127.86 290.02 C 133.24 295.36 140.54 298.00 146.27 302.87 C 138.63 303.02 130.99 303.08 123.35 302.84 C 117.04 295.97 107.73 292.37 101.89 284.90 C 108.11 287.04 112.57 293.04 119.16 294.03 C 109.65 284.50 96.73 277.67 88.77 266.96 C 96.27 272.26 103.16 278.57 111.20 283.05 C 101.89 271.26 87.15 262.96 78.84 249.97 C 87.17 256.38 94.12 264.67 103.25 270.00 C 93.97 257.63 80.75 248.06 71.91 235.05 C 52.71 210.48 39.56 181.82 29.06 152.74 C 29.18 160.79 32.92 168.28 33.88 176.22 C 28.21 165.29 26.05 152.94 21.24 141.65 C 20.81 147.63 22.67 153.43 22.69 159.39 C 18.80 149.06 17.35 137.96 13.19 127.75 C 12.97 121.79 13.01 115.84 13.02 109.88 C 13.63 110.62 14.26 111.34 14.91 112.04 Z" />
</g>
<g id="#1c1c1c36">
<path fill="#1c1c1c" opacity="0.21" d=" M 477.23 96.97 C 481.55 99.05 477.64 105.49 479.08 108.99 C 478.87 118.59 480.70 129.09 474.24 137.17 C 473.95 126.06 473.99 114.94 473.87 103.83 C 473.94 103.42 474.09 102.60 474.16 102.19 C 475.13 100.42 476.10 98.65 477.23 96.97 Z" />
<path fill="#1c1c1c" opacity="0.21" d=" M 473.94 214.89 C 475.46 213.93 477.02 212.86 478.91 212.90 C 477.64 221.75 483.28 234.36 474.03 240.03 C 474.04 231.93 474.02 223.83 473.88 215.73 L 473.94 214.89 Z" />
<path fill="#1c1c1c" opacity="0.21" d=" M 473.93 266.79 C 482.55 263.31 481.64 281.74 474.14 283.23 C 474.04 277.74 474.02 272.28 473.93 266.79 Z" />
</g>
<g id="#fdfeffff">
<path fill="#fdfeff" opacity="1.00" d=" M 461.04 120.23 C 466.59 115.87 470.26 109.78 473.87 103.83 C 473.99 114.94 473.95 126.06 474.24 137.17 L 473.90 137.90 C 456.39 164.99 430.01 184.34 405.09 204.11 C 401.85 206.47 398.67 210.33 394.00 208.86 C 375.23 207.28 356.36 223.91 358.08 243.20 C 343.78 261.98 327.93 280.41 319.86 302.95 L 318.93 302.95 C 318.97 299.20 318.97 295.49 318.75 291.75 C 320.58 268.03 329.77 245.41 341.58 224.98 C 345.37 218.19 349.32 211.47 353.97 205.23 C 366.47 187.88 381.63 172.59 399.00 160.10 C 409.63 152.85 420.77 146.35 431.97 140.02 C 442.48 134.74 452.37 128.20 461.04 120.23 Z" />
</g>
<g id="#f2f4f4ff">
<path fill="#f2f4f4" opacity="1.00" d=" M 57.74 115.83 C 62.08 107.61 72.66 111.59 80.01 111.64 C 80.93 115.82 82.05 120.52 79.31 124.26 C 72.08 124.05 64.85 123.84 57.62 124.13 C 57.69 121.36 57.73 118.59 57.74 115.83 M 61.22 117.18 C 57.08 120.25 64.32 119.87 61.22 117.18 Z" />
</g>
<g id="#494f52ff">
<path fill="#494f52" opacity="1.00" d=" M 80.01 111.64 C 80.51 111.46 81.51 111.10 82.01 110.92 C 82.93 115.92 83.12 120.93 80.85 125.63 C 83.32 131.18 83.06 137.31 80.21 142.72 C 80.66 142.91 81.57 143.29 82.02 143.48 C 83.47 148.99 81.00 154.34 80.92 159.34 C 81.57 160.95 82.19 162.56 82.81 164.18 C 82.96 166.43 82.66 168.66 82.04 170.82 C 76.38 174.81 66.09 174.55 59.62 170.76 C 59.46 170.31 59.15 169.39 58.99 168.93 C 60.56 169.62 62.08 170.47 63.74 170.92 C 69.06 171.18 74.38 171.16 79.70 170.87 C 83.08 168.44 80.89 163.21 79.06 160.39 C 78.86 160.07 78.47 159.43 78.27 159.10 C 72.46 157.55 64.84 156.87 58.59 158.87 L 57.71 159.16 C 57.67 158.51 57.64 157.85 57.63 157.20 L 58.76 157.05 C 65.07 155.29 74.95 160.12 79.71 155.30 C 81.94 151.39 81.89 145.67 78.05 142.82 L 78.23 142.12 C 78.38 141.81 78.67 141.18 78.81 140.87 L 79.18 140.12 C 81.06 137.45 81.01 134.10 80.79 130.95 C 80.25 129.26 79.48 127.66 78.83 126.01 L 78.92 125.07 L 79.31 124.26 C 82.05 120.52 80.93 115.82 80.01 111.64 Z" />
</g>
<g id="#dee0e1ff">
<path fill="#dee0e1" opacity="1.00" d=" M 82.01 110.92 C 91.00 111.03 99.99 111.01 108.98 110.98 C 109.81 111.00 111.46 111.03 112.28 111.05 C 108.25 115.54 99.30 111.96 93.19 113.01 C 97.47 118.70 91.70 123.81 87.94 127.85 C 87.29 133.54 83.13 137.87 82.02 143.48 C 81.57 143.29 80.66 142.91 80.21 142.72 C 83.06 137.31 83.32 131.18 80.85 125.63 C 83.12 120.93 82.93 115.92 82.01 110.92 Z" />
</g>
<g id="#cdcdcdff">
<path fill="#cdcdcd" opacity="1.00" d=" M 112.28 111.05 C 116.62 111.49 121.60 110.09 125.49 112.65 C 125.68 116.05 123.96 123.23 127.04 116.72 C 127.03 118.54 127.00 122.16 126.99 123.97 C 120.33 124.65 113.20 122.59 106.76 124.73 C 102.36 129.21 101.67 136.99 105.72 141.97 C 101.04 147.61 105.27 154.78 104.35 160.29 C 100.50 154.21 102.43 146.43 98.86 140.27 C 89.67 143.43 86.48 152.27 80.92 159.34 C 81.00 154.34 83.47 148.99 82.02 143.48 C 83.13 137.87 87.29 133.54 87.94 127.85 C 91.70 123.81 97.47 118.70 93.19 113.01 C 99.30 111.96 108.25 115.54 112.28 111.05 Z" />
</g>
<g id="#3e4648ff">
<path fill="#3e4648" opacity="1.00" d=" M 125.49 112.65 C 130.24 115.06 128.95 121.75 128.18 125.90 C 121.21 125.99 114.23 125.86 107.26 126.13 C 104.30 129.25 103.80 135.01 106.17 138.45 C 106.66 139.06 107.22 139.61 107.83 140.10 C 108.12 140.35 108.70 140.84 108.99 141.08 L 108.86 141.83 C 104.33 143.96 104.95 149.96 104.99 154.22 C 109.57 160.77 120.12 155.33 126.77 156.88 C 128.74 155.60 127.41 143.50 125.59 150.68 C 123.59 150.77 126.57 145.82 127.23 144.08 C 127.51 143.72 128.05 142.99 128.33 142.63 C 129.15 145.94 129.11 149.36 129.23 152.76 C 129.10 154.48 128.95 156.20 128.76 157.92 C 121.82 158.82 113.08 156.39 106.92 158.95 C 104.80 162.24 104.68 166.37 105.41 170.14 C 105.52 170.65 105.74 171.67 105.84 172.18 L 105.18 172.24 C 104.88 171.95 104.30 171.37 104.00 171.07 C 103.72 170.77 103.17 170.17 102.89 169.87 C 102.97 166.60 103.23 163.36 104.35 160.29 C 105.27 154.78 101.04 147.61 105.72 141.97 C 101.67 136.99 102.36 129.21 106.76 124.73 C 112.74 123.75 122.57 127.17 126.99 123.97 C 127.00 122.16 127.03 118.54 127.04 116.72 C 123.96 123.23 125.68 116.05 125.49 112.65 Z" />
</g>
<g id="#9ed3e5ff">
<path fill="#9ed3e5" opacity="1.00" d=" M 146.75 115.22 C 147.00 114.60 147.51 113.35 147.77 112.72 C 148.22 121.24 148.00 129.78 147.63 138.30 C 146.69 134.01 147.15 129.56 146.87 125.22 C 146.93 121.89 146.84 118.54 146.75 115.22 Z" />
</g>
<g id="#fefeffff">
<path fill="#fefeff" opacity="1.00" d=" M 223.65 114.21 C 226.02 114.82 228.33 115.61 230.68 116.28 C 243.93 118.80 257.34 127.74 270.95 123.09 C 282.46 120.10 294.81 120.10 305.98 124.42 C 312.91 127.24 317.81 132.97 322.41 138.61 C 327.26 145.97 338.23 145.66 344.85 140.89 C 348.23 139.89 363.31 139.07 355.14 141.23 C 348.64 143.65 344.93 150.42 338.86 153.81 C 345.12 156.63 352.36 154.56 357.70 150.71 C 361.15 148.98 373.08 149.69 364.88 152.79 C 356.28 155.74 353.37 167.26 343.31 167.41 C 340.11 167.30 336.97 167.10 333.79 167.17 C 331.82 166.51 331.87 168.35 331.71 169.74 C 331.02 173.87 330.61 178.19 331.59 182.31 C 332.68 190.40 338.14 197.57 345.95 200.18 C 339.56 210.72 330.93 220.16 326.65 231.89 C 316.79 249.97 311.61 270.33 309.72 290.77 C 309.13 294.90 309.10 299.10 309.17 303.28 C 297.40 302.85 285.63 302.96 273.86 303.08 C 264.19 285.04 261.41 264.22 263.26 243.99 C 264.93 241.51 265.03 239.18 263.56 236.99 C 265.48 228.52 267.16 219.91 270.39 211.82 C 274.04 203.90 277.75 195.92 279.22 187.25 C 280.13 183.75 280.12 180.27 279.18 176.80 C 269.95 149.45 244.57 132.10 223.65 114.21 M 281.37 136.38 C 280.76 136.57 279.55 136.97 278.94 137.17 C 281.88 142.46 291.01 144.48 294.98 140.32 C 290.34 139.18 286.43 135.31 281.37 136.38 Z" />
</g>
<g id="#82b3d0ff">
<path fill="#82b3d0" opacity="1.00" d=" M 56.84 116.23 L 57.74 115.83 C 57.73 118.59 57.69 121.36 57.62 124.13 C 57.22 121.51 57.07 118.85 56.84 116.23 Z" />
</g>
<g id="#656665ff">
<path fill="#656665" opacity="1.00" d=" M 61.22 117.18 C 64.32 119.87 57.08 120.25 61.22 117.18 Z" />
</g>
<g id="#a5a5a5ff">
<path fill="#a5a5a5" opacity="1.00" d=" M 57.62 124.13 C 64.85 123.84 72.08 124.05 79.31 124.26 L 78.92 125.07 C 71.85 124.99 64.77 125.12 57.71 124.86 L 57.62 124.13 Z" />
</g>
<g id="#858685ff">
<path fill="#858685" opacity="1.00" d=" M 106.76 124.73 C 113.20 122.59 120.33 124.65 126.99 123.97 C 122.57 127.17 112.74 123.75 106.76 124.73 Z" />
</g>
<g id="#232627ff">
<path fill="#232627" opacity="1.00" d=" M 57.77 126.15 C 57.76 125.83 57.72 125.18 57.71 124.86 C 64.77 125.12 71.85 124.99 78.92 125.07 L 78.83 126.01 C 71.81 126.02 64.79 125.86 57.77 126.15 Z" />
</g>
<g id="#dfdfdfff">
<path fill="#dfdfdf" opacity="1.00" d=" M 57.77 126.15 C 64.79 125.86 71.81 126.02 78.83 126.01 C 79.48 127.66 80.25 129.26 80.79 130.95 C 81.49 142.81 68.42 138.47 61.01 139.03 C 58.19 139.80 59.10 136.71 58.92 135.00 C 59.35 135.08 60.21 135.22 60.64 135.29 C 63.07 135.89 62.74 131.60 64.80 130.86 C 67.63 129.62 70.59 128.63 73.34 127.18 C 68.13 127.01 62.93 127.02 57.73 126.90 L 57.77 126.15 Z" />
</g>
<g id="#e4e4e3ff">
<path fill="#e4e4e3" opacity="1.00" d=" M 107.26 126.13 C 114.23 125.86 121.21 125.99 128.18 125.90 L 128.26 126.61 C 127.67 127.70 127.08 128.80 126.51 129.90 C 121.88 125.22 114.96 128.24 109.15 127.56 C 105.46 129.83 106.47 134.78 106.17 138.45 C 103.80 135.01 104.30 129.25 107.26 126.13 Z" />
</g>
<g id="#7eaecbff">
<path fill="#7eaecb" opacity="1.00" d=" M 57.75 140.18 C 56.10 135.93 57.43 131.27 57.73 126.90 C 57.80 131.32 57.83 135.75 57.75 140.18 Z" />
</g>
<g id="#f4f4f3ff">
<path fill="#f4f4f3" opacity="1.00" d=" M 57.73 126.90 C 62.93 127.02 68.13 127.01 73.34 127.18 C 70.59 128.63 67.63 129.62 64.80 130.86 C 62.74 131.60 63.07 135.89 60.64 135.29 C 63.99 130.14 57.69 129.38 58.92 135.00 C 59.10 136.71 58.19 139.80 61.01 139.03 C 68.42 138.47 81.49 142.81 80.79 130.95 C 81.01 134.10 81.06 137.45 79.18 140.12 C 72.04 140.06 64.89 139.80 57.75 140.18 C 57.83 135.75 57.80 131.32 57.73 126.90 Z" />
</g>
<g id="#c4c4c3ff">
<path fill="#c4c4c3" opacity="1.00" d=" M 109.15 127.56 C 114.96 128.24 121.88 125.22 126.51 129.90 C 125.17 131.46 124.04 137.51 126.13 133.14 C 128.28 128.54 126.65 138.28 127.26 140.10 C 120.78 140.02 114.31 140.04 107.83 140.10 C 107.22 139.61 106.66 139.06 106.17 138.45 C 106.47 134.78 105.46 129.83 109.15 127.56 Z" />
</g>
<g id="#364f58ff">
<path fill="#364f58" opacity="1.00" d=" M 126.51 129.90 C 127.08 128.80 127.67 127.70 128.26 126.61 C 129.83 131.33 128.76 136.37 128.31 141.20 C 128.05 140.92 127.53 140.37 127.26 140.10 C 126.65 138.28 128.28 128.54 126.13 133.14 C 124.04 137.51 125.17 131.46 126.51 129.90 Z" />
</g>
<g id="#326ea0ff">
<path fill="#326ea0" opacity="1.00" d=" M 13.19 127.75 C 17.35 137.96 18.80 149.06 22.69 159.39 C 22.67 153.43 20.81 147.63 21.24 141.65 C 26.05 152.94 28.21 165.29 33.88 176.22 C 32.92 168.28 29.18 160.79 29.06 152.74 C 39.56 181.82 52.71 210.48 71.91 235.05 C 80.75 248.06 93.97 257.63 103.25 270.00 C 94.12 264.67 87.17 256.38 78.84 249.97 C 87.15 262.96 101.89 271.26 111.20 283.05 C 103.16 278.57 96.27 272.26 88.77 266.96 C 96.73 277.67 109.65 284.50 119.16 294.03 C 112.57 293.04 108.11 287.04 101.89 284.90 C 107.73 292.37 117.04 295.97 123.35 302.84 C 114.32 303.04 105.28 303.08 96.24 302.91 C 93.85 299.54 90.39 297.15 87.85 293.92 C 91.02 295.09 93.93 296.86 97.08 298.08 C 93.29 290.77 82.56 288.00 80.87 279.92 C 83.64 281.61 85.81 284.35 89.08 285.13 C 82.56 277.29 74.48 270.84 68.45 262.58 C 66.41 257.45 77.85 268.98 74.13 262.81 C 51.56 237.53 34.05 208.07 20.67 177.03 C 17.49 178.41 23.01 182.51 19.35 184.03 C 17.30 180.27 17.06 174.96 13.12 172.66 C 12.83 157.69 12.97 142.71 13.19 127.75 Z" />
</g>
<g id="#575757ff">
<path fill="#575757" opacity="1.00" d=" M 58.92 135.00 C 57.69 129.38 63.99 130.14 60.64 135.29 C 60.21 135.22 59.35 135.08 58.92 135.00 Z" />
</g>
<g id="#55c3deff">
<path fill="#55c3de" opacity="1.00" d=" M 281.37 136.38 C 286.43 135.31 290.34 139.18 294.98 140.32 C 291.01 144.48 281.88 142.46 278.94 137.17 C 279.55 136.97 280.76 136.57 281.37 136.38 Z" />
</g>
<g id="#6fc8e1ff">
<path fill="#6fc8e1" opacity="1.00" d=" M 405.09 204.11 C 430.01 184.34 456.39 164.99 473.90 137.90 C 473.94 143.00 474.10 148.08 474.19 153.18 L 473.86 153.91 C 455.86 177.49 431.00 194.37 407.14 211.43 C 410.04 217.12 415.93 210.60 419.99 210.01 C 429.95 206.76 440.06 209.86 448.81 214.70 C 457.47 208.83 465.99 202.74 474.05 196.06 C 473.91 202.33 474.05 208.61 473.94 214.89 L 473.88 215.73 C 469.57 218.43 465.73 221.81 461.28 224.26 C 456.43 226.24 461.94 231.41 462.14 234.88 C 464.12 239.08 459.80 251.75 467.12 246.00 C 465.91 250.92 460.80 253.33 458.79 257.69 C 458.92 262.39 453.37 263.38 450.01 265.13 C 454.34 259.91 458.16 254.08 459.19 247.24 C 459.87 244.09 460.48 240.80 459.34 237.70 C 456.96 225.31 447.01 214.44 434.26 212.71 C 431.06 212.07 427.82 211.68 424.68 212.63 C 419.72 213.36 415.41 216.05 411.00 218.26 L 410.22 218.19 C 406.23 215.69 401.90 213.61 397.24 212.76 C 393.73 211.88 390.24 211.88 386.76 212.79 C 373.99 215.14 364.01 226.16 361.79 238.77 C 360.48 240.19 359.22 241.65 358.08 243.20 C 356.36 223.91 375.23 207.28 394.00 208.86 C 398.67 210.33 401.85 206.47 405.09 204.11 Z" />
</g>
<g id="#bababaff">
<path fill="#bababa" opacity="1.00" d=" M 57.75 140.18 C 64.89 139.80 72.04 140.06 79.18 140.12 L 78.81 140.87 C 71.87 141.02 64.93 140.98 57.98 141.04 L 57.75 140.18 Z" />
</g>
<g id="#bebebdff">
<path fill="#bebebd" opacity="1.00" d=" M 80.92 159.34 C 86.48 152.27 89.67 143.43 98.86 140.27 C 102.43 146.43 100.50 154.21 104.35 160.29 C 103.23 163.36 102.97 166.60 102.89 169.87 C 96.64 169.86 90.39 170.32 84.15 169.90 C 82.61 171.20 85.47 159.81 82.81 164.18 C 82.19 162.56 81.57 160.95 80.92 159.34 Z" />
</g>
<g id="#9b9b9bff">
<path fill="#9b9b9b" opacity="1.00" d=" M 107.83 140.10 C 114.31 140.04 120.78 140.02 127.26 140.10 C 121.22 141.14 115.09 141.04 108.99 141.08 C 108.70 140.84 108.12 140.35 107.83 140.10 Z" />
</g>
<g id="#131314ff">
<path fill="#131314" opacity="1.00" d=" M 127.26 140.10 C 127.53 140.37 128.05 140.92 128.31 141.20 L 128.26 141.92 C 121.79 141.99 115.33 142.06 108.86 141.83 L 108.99 141.08 C 115.09 141.04 121.22 141.14 127.26 140.10 Z" />
</g>
<g id="#0a0b0bff">
<path fill="#0a0b0b" opacity="1.00" d=" M 57.98 141.04 C 64.93 140.98 71.87 141.02 78.81 140.87 C 78.67 141.18 78.38 141.81 78.23 142.12 C 71.46 142.04 64.70 141.99 57.93 141.96 L 57.98 141.04 Z" />
</g>
<g id="#b6b6b6ff">
<path fill="#b6b6b6" opacity="1.00" d=" M 57.93 141.96 C 64.70 141.99 71.46 142.04 78.23 142.12 L 78.05 142.82 C 71.31 142.96 64.56 143.12 57.82 142.86 L 57.93 141.96 Z" />
</g>
<g id="#d8d8d8ff">
<path fill="#d8d8d8" opacity="1.00" d=" M 104.99 154.22 C 104.95 149.96 104.33 143.96 108.86 141.83 C 115.33 142.06 121.79 141.99 128.26 141.92 L 128.33 142.63 C 128.05 142.99 127.51 143.72 127.23 144.08 C 120.90 144.17 114.53 143.55 108.21 144.14 C 104.70 146.54 109.11 153.26 104.99 154.22 Z" />
</g>
<g id="#83b0ccff">
<path fill="#83b0cc" opacity="1.00" d=" M 57.63 157.20 C 56.34 152.52 57.10 147.58 57.82 142.86 C 57.85 147.63 58.07 152.44 57.63 157.20 Z" />
</g>
<g id="#eeeeedff">
<path fill="#eeeeed" opacity="1.00" d=" M 57.82 142.86 C 64.56 143.12 71.31 142.96 78.05 142.82 C 81.89 145.67 81.94 151.39 79.71 155.30 C 79.63 150.69 80.67 141.94 72.99 144.00 C 69.38 145.70 58.50 140.54 59.00 146.87 C 59.00 148.68 59.11 150.50 59.20 152.31 C 59.05 153.89 58.91 155.47 58.76 157.05 L 57.63 157.20 C 58.07 152.44 57.85 147.63 57.82 142.86 Z" />
</g>
<g id="#d1d0d0ff">
<path fill="#d1d0d0" opacity="1.00" d=" M 59.00 146.87 C 58.50 140.54 69.38 145.70 72.99 144.00 C 80.67 141.94 79.63 150.69 79.71 155.30 C 74.95 160.12 65.07 155.29 58.76 157.05 C 58.91 155.47 59.05 153.89 59.20 152.31 C 60.67 150.27 63.87 145.86 59.00 146.87 Z" />
</g>
<g id="#b7b6b6ff">
<path fill="#b7b6b6" opacity="1.00" d=" M 108.21 144.14 C 114.53 143.55 120.90 144.17 127.23 144.08 C 126.57 145.82 123.59 150.77 125.59 150.68 C 127.41 143.50 128.74 155.60 126.77 156.88 C 120.12 155.33 109.57 160.77 104.99 154.22 C 109.11 153.26 104.70 146.54 108.21 144.14 Z" />
</g>
<g id="#f9fdfeff">
<path fill="#f9fdfe" opacity="1.00" d=" M 241.95 143.89 C 251.52 149.40 258.46 160.83 259.00 171.99 C 259.06 174.76 258.95 177.61 259.59 180.34 C 258.77 189.63 268.88 199.26 263.71 207.99 C 252.10 198.27 240.95 182.70 246.84 166.92 C 248.97 158.55 244.74 151.30 241.95 143.89 Z" />
<path fill="#f9fdfe" opacity="1.00" d=" M 461.28 224.26 C 465.73 221.81 469.57 218.43 473.88 215.73 C 474.02 223.83 474.04 231.93 474.03 240.03 C 471.69 241.99 469.36 243.93 467.12 246.00 C 459.80 251.75 464.12 239.08 462.14 234.88 C 461.94 231.41 456.43 226.24 461.28 224.26 Z" />
<path fill="#f9fdfe" opacity="1.00" d=" M 385.76 302.87 C 389.95 298.73 394.10 292.87 400.77 293.84 C 411.97 294.21 423.18 293.67 434.38 294.26 C 424.43 296.87 414.02 297.85 404.77 302.73 C 404.38 302.86 403.61 303.11 403.22 303.24 C 397.39 303.10 391.57 302.94 385.76 302.87 Z" />
</g>
<g id="#595a59ff">
<path fill="#595a59" opacity="1.00" d=" M 59.00 146.87 C 63.87 145.86 60.67 150.27 59.20 152.31 C 59.11 150.50 59.00 148.68 59.00 146.87 Z" />
</g>
<g id="#0f0f0f1f">
<path fill="#0f0f0f" opacity="0.12" d=" M 476.13 150.71 C 477.44 149.14 478.68 147.08 480.92 146.85 C 481.15 160.88 480.95 174.92 480.98 188.96 C 480.69 189.41 480.11 190.32 479.83 190.77 C 479.38 191.09 478.49 191.74 478.05 192.06 C 477.86 179.38 478.20 166.69 477.98 154.02 C 478.11 152.58 476.99 151.65 476.13 150.71 Z" />
</g>
<g id="#1e1e1e3a">
<path fill="#1e1e1e" opacity="0.23" d=" M 476.13 150.71 C 476.99 151.65 478.11 152.58 477.98 154.02 C 478.20 166.69 477.86 179.38 478.05 192.06 C 476.74 193.42 475.43 194.78 474.05 196.06 C 473.98 182.01 474.06 167.96 473.86 153.91 L 474.19 153.18 C 474.83 152.35 475.48 151.53 476.13 150.71 Z" />
</g>
<g id="#3692bbff">
<path fill="#3692bb" opacity="1.00" d=" M 129.23 152.76 C 137.14 161.11 140.84 172.67 149.26 180.71 C 156.19 190.03 166.81 196.63 174.12 205.14 C 167.58 203.15 162.85 197.83 156.92 194.81 C 160.61 200.50 166.81 203.86 171.82 208.22 C 172.58 214.98 164.61 205.50 160.88 204.84 C 164.24 209.59 169.76 212.12 173.88 216.13 C 174.12 217.17 174.36 218.22 174.62 219.26 C 177.49 240.50 192.04 258.61 210.14 269.31 C 207.52 269.56 202.27 270.07 199.65 270.33 C 206.18 273.48 213.96 272.96 220.20 276.72 C 214.42 278.75 208.60 275.98 202.75 276.10 C 208.73 279.17 215.58 279.83 222.07 281.25 C 219.64 287.21 210.59 280.33 205.75 281.98 C 212.55 284.94 220.29 286.38 227.74 286.39 C 229.62 286.93 229.37 289.78 227.15 289.23 C 221.04 289.23 214.90 287.52 208.71 288.13 C 214.23 293.14 223.62 288.55 228.10 293.82 C 223.43 295.57 218.54 293.96 213.74 294.02 C 221.23 297.43 229.96 297.82 238.08 297.12 C 235.17 304.27 223.21 298.57 217.76 300.08 C 219.84 301.16 222.04 302.01 224.23 302.86 C 213.89 303.13 203.55 303.03 193.22 302.89 C 191.04 301.64 188.84 300.44 186.72 299.11 C 190.91 299.22 195.08 299.58 199.27 299.77 C 193.79 296.34 187.27 295.29 181.64 292.20 C 186.58 292.16 191.31 293.82 196.22 294.01 C 190.92 289.28 182.73 288.97 176.66 285.17 C 181.60 285.17 186.33 286.86 191.25 286.98 C 186.31 282.58 178.58 282.66 173.76 278.00 C 178.33 278.22 182.70 279.89 187.32 279.86 C 180.43 275.68 172.28 273.83 165.79 268.96 C 171.56 269.49 176.70 272.56 182.30 273.85 C 177.18 267.46 167.21 266.43 160.82 260.96 C 167.02 261.22 171.99 266.21 178.23 265.94 C 171.44 260.28 162.17 258.17 155.81 251.97 C 162.19 253.63 167.71 257.67 174.19 259.03 C 167.46 251.63 156.06 249.85 149.86 241.87 C 156.33 244.15 161.80 248.60 168.28 250.93 C 162.13 241.56 148.40 239.42 141.88 229.85 C 148.99 232.88 154.65 238.79 162.11 241.09 C 155.30 232.67 144.00 229.06 137.91 219.85 C 144.96 222.80 150.19 228.83 157.09 232.11 C 152.46 224.66 143.54 220.14 137.52 213.47 C 124.92 202.03 114.73 188.10 106.53 173.22 C 115.69 174.92 132.75 173.61 128.57 159.76 C 128.62 159.30 128.71 158.38 128.76 157.92 C 128.95 156.20 129.10 154.48 129.23 152.76 Z" />
</g>
<g id="#56c2dfff">
<path fill="#56c2df" opacity="1.00" d=" M 343.31 167.41 C 353.37 167.26 356.28 155.74 364.88 152.79 C 366.24 160.62 358.79 165.91 357.91 173.18 C 363.80 168.35 365.13 159.68 371.03 154.81 C 369.24 163.70 362.79 170.69 359.97 179.16 C 366.32 173.04 369.41 164.52 375.00 157.81 C 373.60 167.57 365.96 174.99 362.88 184.14 C 369.92 179.10 371.83 169.55 378.04 163.81 C 373.70 178.44 363.63 190.49 354.18 202.17 C 353.17 203.01 353.75 204.17 353.97 205.23 C 349.32 211.47 345.37 218.19 341.58 224.98 C 335.86 223.53 331.90 230.31 326.65 231.89 C 330.93 220.16 339.56 210.72 345.95 200.18 C 338.14 197.57 332.68 190.40 331.59 182.31 C 331.66 178.12 331.70 173.93 331.71 169.74 C 331.87 168.35 331.82 166.51 333.79 167.17 C 336.91 167.72 340.19 168.37 343.31 167.41 Z" />
</g>
<g id="#818181ff">
<path fill="#818181" opacity="1.00" d=" M 58.59 158.87 C 64.84 156.87 72.46 157.55 78.27 159.10 C 71.71 159.04 65.15 158.93 58.59 158.87 Z" />
</g>
<g id="#a0a2a2ff">
<path fill="#a0a2a2" opacity="1.00" d=" M 106.92 158.95 C 113.08 156.39 121.82 158.82 128.76 157.92 C 128.71 158.38 128.62 159.30 128.57 159.76 L 127.56 159.76 C 120.71 158.93 113.81 158.93 106.92 158.95 Z" />
</g>
<g id="#f7f6f5ff">
<path fill="#f7f6f5" opacity="1.00" d=" M 57.71 159.16 L 58.59 158.87 C 65.15 158.93 71.71 159.04 78.27 159.10 C 71.99 160.29 65.59 159.69 59.25 160.14 C 59.13 162.46 60.45 165.61 58.14 167.30 C 57.96 164.58 57.81 161.87 57.71 159.16 Z" />
</g>
<g id="#c0bfbfff">
<path fill="#c0bfbf" opacity="1.00" d=" M 78.27 159.10 C 78.47 159.43 78.86 160.07 79.06 160.39 C 78.57 164.42 82.57 172.57 73.99 170.05 C 71.62 172.50 64.88 167.11 63.74 170.92 C 62.08 170.47 60.56 169.62 58.99 168.93 C 58.78 168.52 58.36 167.71 58.14 167.30 C 60.45 165.61 59.13 162.46 59.25 160.14 C 65.59 159.69 71.99 160.29 78.27 159.10 Z" />
</g>
<g id="#f2f2f2ff">
<path fill="#f2f2f2" opacity="1.00" d=" M 106.92 158.95 C 113.81 158.93 120.71 158.93 127.56 159.76 C 121.12 160.10 114.64 159.59 108.22 160.16 C 105.66 162.76 106.16 166.77 105.41 170.14 C 104.68 166.37 104.80 162.24 106.92 158.95 Z" />
</g>
<g id="#acacacff">
<path fill="#acacac" opacity="1.00" d=" M 108.22 160.16 C 114.64 159.59 121.12 160.10 127.56 159.76 C 124.61 162.21 123.95 168.96 127.15 162.85 C 128.76 175.93 110.44 167.21 106.53 173.22 C 106.36 172.96 106.02 172.44 105.84 172.18 C 105.74 171.67 105.52 170.65 105.41 170.14 C 106.16 166.77 105.66 162.76 108.22 160.16 Z" />
</g>
<g id="#354c57ff">
<path fill="#354c57" opacity="1.00" d=" M 127.56 159.76 L 128.57 159.76 C 132.75 173.61 115.69 174.92 106.53 173.22 C 110.44 167.21 128.76 175.93 127.15 162.85 C 123.95 168.96 124.61 162.21 127.56 159.76 Z" />
</g>
<g id="#e5e5e5ff">
<path fill="#e5e5e5" opacity="1.00" d=" M 73.99 170.05 C 82.57 172.57 78.57 164.42 79.06 160.39 C 80.89 163.21 83.08 168.44 79.70 170.87 C 74.38 171.16 69.06 171.18 63.74 170.92 C 64.88 167.11 71.62 172.50 73.99 170.05 Z" />
</g>
<g id="#e7e7e7ff">
<path fill="#e7e7e7" opacity="1.00" d=" M 82.81 164.18 C 85.47 159.81 82.61 171.20 84.15 169.90 C 90.39 170.32 96.64 169.86 102.89 169.87 C 103.17 170.17 103.72 170.77 104.00 171.07 C 96.81 171.02 89.51 170.45 82.42 172.00 C 82.33 171.71 82.14 171.11 82.04 170.82 C 82.66 168.66 82.96 166.43 82.81 164.18 Z" />
</g>
<g id="#ade1efff">
<path fill="#ade1ef" opacity="1.00" d=" M 333.79 167.17 C 336.97 167.10 340.11 167.30 343.31 167.41 C 340.19 168.37 336.91 167.72 333.79 167.17 Z" />
</g>
<g id="#b6e5f1ff">
<path fill="#b6e5f1" opacity="1.00" d=" M 331.59 182.31 C 330.61 178.19 331.02 173.87 331.71 169.74 C 331.70 173.93 331.66 178.12 331.59 182.31 Z" />
</g>
<g id="#357eacff">
<path fill="#357eac" opacity="1.00" d=" M 101.34 237.68 C 84.05 218.01 66.81 196.07 59.62 170.76 C 66.09 174.55 76.38 174.81 82.04 170.82 C 82.14 171.11 82.33 171.71 82.42 172.00 L 82.72 172.97 C 93.81 199.95 114.30 221.38 135.11 241.13 C 120.72 234.38 111.14 220.66 99.90 209.87 C 109.79 224.73 123.46 237.44 137.64 248.33 C 138.85 249.30 143.09 253.15 139.19 251.79 C 127.32 244.77 116.94 235.30 106.86 225.91 C 116.39 240.51 132.78 249.26 145.13 261.11 C 137.63 258.92 132.04 252.91 124.86 249.98 C 132.18 259.20 144.06 263.02 152.17 271.10 C 144.20 269.95 138.51 263.01 130.83 260.91 C 138.37 269.34 150.41 272.18 158.17 280.11 C 151.66 278.97 146.22 274.62 139.81 273.03 C 146.59 279.49 156.00 282.15 163.16 288.07 C 156.66 287.35 151.24 283.07 144.84 281.92 C 151.78 287.92 161.37 290.06 168.20 296.01 C 163.68 295.33 159.29 293.90 154.79 293.12 C 160.34 296.86 167.12 298.52 172.29 302.85 C 163.62 303.16 154.94 303.02 146.27 302.87 C 140.54 298.00 133.24 295.36 127.86 290.02 C 133.10 291.69 137.50 295.82 143.20 296.05 C 136.03 288.81 125.62 285.73 118.88 277.93 C 125.86 280.84 131.50 286.58 139.16 287.97 C 129.54 279.36 117.45 273.66 108.90 263.88 C 116.78 267.37 122.53 275.38 131.15 277.03 C 121.92 267.73 109.79 261.57 101.94 250.85 C 110.63 255.59 117.39 263.38 126.27 267.97 C 124.05 262.75 117.93 260.81 114.47 256.54 C 98.53 242.38 83.27 226.61 72.85 207.87 C 86.71 224.92 100.12 244.16 119.23 256.03 C 115.45 248.20 106.52 244.50 101.34 237.68 Z" />
</g>
<g id="#456170ff">
<path fill="#456170" opacity="1.00" d=" M 82.42 172.00 C 89.51 170.45 96.81 171.02 104.00 171.07 C 104.30 171.37 104.88 171.95 105.18 172.24 C 97.74 173.33 90.21 173.05 82.72 172.97 L 82.42 172.00 Z" />
</g>
<g id="#3487b3ff">
<path fill="#3487b3" opacity="1.00" d=" M 105.18 172.24 L 105.84 172.18 C 106.02 172.44 106.36 172.96 106.53 173.22 C 114.73 188.10 124.92 202.03 137.52 213.47 C 143.54 220.14 152.46 224.66 157.09 232.11 C 150.19 228.83 144.96 222.80 137.91 219.85 C 144.00 229.06 155.30 232.67 162.11 241.09 C 154.65 238.79 148.99 232.88 141.88 229.85 C 148.40 239.42 162.13 241.56 168.28 250.93 C 161.80 248.60 156.33 244.15 149.86 241.87 C 156.06 249.85 167.46 251.63 174.19 259.03 C 167.71 257.67 162.19 253.63 155.81 251.97 C 162.17 258.17 171.44 260.28 178.23 265.94 C 171.99 266.21 167.02 261.22 160.82 260.96 C 167.21 266.43 177.18 267.46 182.30 273.85 C 176.70 272.56 171.56 269.49 165.79 268.96 C 172.28 273.83 180.43 275.68 187.32 279.86 C 182.70 279.89 178.33 278.22 173.76 278.00 C 178.58 282.66 186.31 282.58 191.25 286.98 C 186.33 286.86 181.60 285.17 176.66 285.17 C 182.73 288.97 190.92 289.28 196.22 294.01 C 191.31 293.82 186.58 292.16 181.64 292.20 C 187.27 295.29 193.79 296.34 199.27 299.77 C 195.08 299.58 190.91 299.22 186.72 299.11 C 188.84 300.44 191.04 301.64 193.22 302.89 C 186.24 303.07 179.26 303.02 172.29 302.85 C 167.12 298.52 160.34 296.86 154.79 293.12 C 159.29 293.90 163.68 295.33 168.20 296.01 C 161.37 290.06 151.78 287.92 144.84 281.92 C 151.24 283.07 156.66 287.35 163.16 288.07 C 156.00 282.15 146.59 279.49 139.81 273.03 C 146.22 274.62 151.66 278.97 158.17 280.11 C 150.41 272.18 138.37 269.34 130.83 260.91 C 138.51 263.01 144.20 269.95 152.17 271.10 C 144.06 263.02 132.18 259.20 124.86 249.98 C 132.04 252.91 137.63 258.92 145.13 261.11 C 132.78 249.26 116.39 240.51 106.86 225.91 C 116.94 235.30 127.32 244.77 139.19 251.79 C 143.09 253.15 138.85 249.30 137.64 248.33 C 123.46 237.44 109.79 224.73 99.90 209.87 C 111.14 220.66 120.72 234.38 135.11 241.13 C 114.30 221.38 93.81 199.95 82.72 172.97 C 90.21 173.05 97.74 173.33 105.18 172.24 Z" />
</g>
<g id="#91d9eaff">
<path fill="#91d9ea" opacity="1.00" d=" M 259.00 171.99 C 261.32 172.98 259.53 177.88 259.59 180.34 C 258.95 177.61 259.06 174.76 259.00 171.99 Z" />
</g>
<g id="#35679aff">
<path fill="#35679a" opacity="1.00" d=" M 13.12 172.66 C 17.06 174.96 17.30 180.27 19.35 184.03 C 23.01 182.51 17.49 178.41 20.67 177.03 C 34.05 208.07 51.56 237.53 74.13 262.81 C 77.85 268.98 66.41 257.45 68.45 262.58 C 74.48 270.84 82.56 277.29 89.08 285.13 C 85.81 284.35 83.64 281.61 80.87 279.92 C 82.56 288.00 93.29 290.77 97.08 298.08 C 93.93 296.86 91.02 295.09 87.85 293.92 C 90.39 297.15 93.85 299.54 96.24 302.91 C 90.55 302.97 84.86 303.01 79.17 302.92 C 74.93 298.05 69.73 294.04 65.91 288.81 C 70.39 290.51 73.27 295.09 78.09 296.12 C 71.18 287.33 61.16 280.84 55.98 270.77 C 58.90 270.98 65.24 280.68 63.64 274.34 C 44.24 253.52 29.02 229.21 15.98 204.02 C 15.27 202.74 14.11 201.79 13.11 200.74 C 12.89 191.38 12.98 182.02 13.12 172.66 M 17.92 199.89 C 25.31 220.08 36.58 239.93 52.07 255.08 C 39.83 237.30 27.97 218.81 17.92 199.89 M 65.21 277.39 C 64.56 278.78 66.36 280.90 67.79 280.61 C 68.44 279.21 66.64 277.10 65.21 277.39 Z" />
</g>
<g id="#9cddecff">
<path fill="#9cddec" opacity="1.00" d=" M 279.18 176.80 C 280.12 180.27 280.13 183.75 279.22 187.25 C 279.14 183.77 279.16 180.27 279.18 176.80 Z" />
</g>
<g id="#356397ff">
<path fill="#356397" opacity="1.00" d=" M 17.92 199.89 C 27.97 218.81 39.83 237.30 52.07 255.08 C 36.58 239.93 25.31 220.08 17.92 199.89 Z" />
<path fill="#356397" opacity="1.00" d=" M 65.21 277.39 C 66.64 277.10 68.44 279.21 67.79 280.61 C 66.36 280.90 64.56 278.78 65.21 277.39 Z" />
</g>
<g id="#376095ff">
<path fill="#376095" opacity="1.00" d=" M 13.11 200.74 C 14.11 201.79 15.27 202.74 15.98 204.02 C 29.02 229.21 44.24 253.52 63.64 274.34 C 65.24 280.68 58.90 270.98 55.98 270.77 C 61.16 280.84 71.18 287.33 78.09 296.12 C 73.27 295.09 70.39 290.51 65.91 288.81 C 69.73 294.04 74.93 298.05 79.17 302.92 C 73.50 302.96 67.83 303.00 62.16 302.93 C 48.14 288.50 34.63 273.47 22.96 257.05 C 21.77 255.53 20.98 253.77 20.92 251.82 C 29.67 260.86 35.79 272.70 46.21 280.04 C 34.47 265.60 23.96 249.99 13.13 234.78 C 12.85 223.43 13.00 212.08 13.11 200.74 Z" />
</g>
<g id="#aad3e4ff">
<path fill="#aad3e4" opacity="1.00" d=" M 173.88 216.13 C 173.60 211.20 173.85 207.79 175.81 212.78 C 175.51 214.40 174.91 217.64 174.62 219.26 C 174.36 218.22 174.12 217.17 173.88 216.13 Z" />
</g>
<g id="#a86273ff">
<path fill="#a86273" opacity="1.00" d=" M 386.76 212.79 C 390.24 211.88 393.73 211.88 397.24 212.76 C 393.72 212.78 390.26 212.87 386.76 212.79 Z" />
</g>
<g id="#b8b066ff">
<path fill="#b8b066" opacity="1.00" d=" M 424.68 212.63 C 427.82 211.68 431.06 212.07 434.26 212.71 C 431.03 212.68 427.88 212.78 424.68 212.63 Z" />
</g>
<g id="#fbfdfeff">
<path fill="#fbfdfe" opacity="1.00" d=" M 174.62 219.26 C 174.91 217.64 175.51 214.40 175.81 212.78 C 192.28 234.67 219.57 245.00 237.88 265.21 C 247.22 276.66 255.45 289.26 261.13 302.95 C 259.80 302.95 258.47 302.94 257.15 302.92 C 244.70 287.77 227.24 278.25 210.14 269.31 C 192.04 258.61 177.49 240.50 174.62 219.26 Z" />
<path fill="#fbfdfe" opacity="1.00" d=" M 443.64 273.79 C 452.76 268.54 464.00 269.52 473.93 266.79 C 474.02 272.28 474.04 277.74 474.14 283.23 L 474.06 284.03 C 470.69 285.26 467.42 286.70 464.03 287.86 C 463.86 283.28 464.05 278.68 463.91 274.10 C 457.15 274.02 450.39 273.92 443.64 273.79 Z" />
</g>
<g id="#e20714ff">
<path fill="#e20714" opacity="1.00" d=" M 361.79 238.77 C 364.01 226.16 373.99 215.14 386.76 212.79 C 390.26 212.87 393.72 212.78 397.24 212.76 C 401.90 213.61 406.23 215.69 410.22 218.19 C 396.54 230.84 395.27 253.96 410.37 266.12 C 407.45 268.94 403.62 270.33 399.96 271.90 C 399.28 271.98 397.92 272.16 397.24 272.25 C 393.72 272.19 390.26 272.13 386.76 272.21 C 371.64 269.36 359.89 254.37 361.79 238.77 Z" />
</g>
<g id="#f49e02ff">
<path fill="#f49e02" opacity="1.00" d=" M 411.00 218.26 C 415.41 216.05 419.72 213.36 424.68 212.63 C 427.88 212.78 431.03 212.68 434.26 212.71 C 447.01 214.44 456.96 225.31 459.34 237.70 C 459.26 240.86 459.23 244.06 459.19 247.24 C 458.16 254.08 454.34 259.91 450.01 265.13 C 445.11 268.19 440.13 271.68 434.25 272.30 C 430.72 272.21 427.26 272.13 423.76 272.21 C 419.09 271.46 415.04 268.81 411.02 266.48 C 425.94 254.54 425.35 230.38 411.00 218.26 Z" />
</g>
<g id="#e9560dff">
<path fill="#e9560d" opacity="1.00" d=" M 410.22 218.19 L 411.00 218.26 C 425.35 230.38 425.94 254.54 411.02 266.48 L 410.37 266.12 C 395.27 253.96 396.54 230.84 410.22 218.19 Z" />
</g>
<g id="#40bcdaff">
<path fill="#40bcda" opacity="1.00" d=" M 326.65 231.89 C 331.90 230.31 335.86 223.53 341.58 224.98 C 329.77 245.41 320.58 268.03 318.75 291.75 C 318.37 295.48 318.10 299.21 317.94 302.96 C 315.30 302.98 312.67 302.98 310.05 302.97 C 309.93 298.89 309.82 294.83 309.72 290.77 C 311.61 270.33 316.79 249.97 326.65 231.89 Z" />
</g>
<g id="#37578eff">
<path fill="#37578e" opacity="1.00" d=" M 13.13 234.78 C 23.96 249.99 34.47 265.60 46.21 280.04 C 35.79 272.70 29.67 260.86 20.92 251.82 C 20.98 253.77 21.77 255.53 22.96 257.05 C 34.63 273.47 48.14 288.50 62.16 302.93 C 49.00 302.81 35.75 303.67 22.64 302.40 C 17.11 301.54 13.50 296.30 13.07 290.98 C 12.87 272.25 12.98 253.51 13.13 234.78 Z" />
</g>
<g id="#97d7e8ff">
<path fill="#97d7e8" opacity="1.00" d=" M 263.26 243.99 C 262.02 241.79 262.12 239.46 263.56 236.99 C 265.03 239.18 264.93 241.51 263.26 243.99 Z" />
</g>
<g id="#a7b582ff">
<path fill="#a7b582" opacity="1.00" d=" M 459.34 237.70 C 460.48 240.80 459.87 244.09 459.19 247.24 C 459.23 244.06 459.26 240.86 459.34 237.70 Z" />
</g>
<g id="#49bfdcff">
<path fill="#49bfdc" opacity="1.00" d=" M 358.08 243.20 C 359.22 241.65 360.48 240.19 361.79 238.77 C 359.89 254.37 371.64 269.36 386.76 272.21 C 390.24 273.00 393.73 273.01 397.24 272.25 C 397.92 272.16 399.28 271.98 399.96 271.90 C 398.79 274.51 396.84 276.60 394.96 278.72 C 389.12 280.54 391.69 284.47 396.23 285.82 C 382.03 285.24 401.17 291.92 398.10 283.14 C 398.91 282.73 399.74 282.32 400.56 281.92 C 400.31 285.55 401.83 289.11 406.09 288.17 C 405.80 291.00 402.59 292.07 400.77 293.84 C 394.10 292.87 389.95 298.73 385.76 302.87 C 385.30 302.89 384.38 302.94 383.93 302.96 C 378.65 303.02 373.35 302.97 368.08 303.16 C 371.29 299.93 374.75 296.96 378.28 294.10 C 371.94 292.72 363.94 296.54 358.43 292.43 C 355.48 295.97 352.87 299.81 349.69 303.15 C 347.75 303.06 345.81 303.00 343.88 302.97 C 348.11 295.39 353.61 288.65 358.45 281.49 C 355.78 272.09 365.36 275.35 369.01 269.85 C 364.82 264.82 361.10 259.46 359.61 252.97 C 346.43 267.33 336.15 284.50 329.80 302.94 C 326.49 303.02 323.14 302.95 319.86 302.95 C 327.93 280.41 343.78 261.98 358.08 243.20 M 376.35 279.43 C 373.33 280.18 370.12 280.03 367.06 280.12 C 367.49 282.64 364.55 289.20 368.88 287.95 C 369.00 285.35 368.07 280.71 371.79 280.96 C 373.01 282.32 371.52 286.98 373.88 288.11 C 374.05 285.59 373.01 280.41 376.79 281.10 C 379.67 282.67 375.62 289.18 380.00 287.98 C 380.23 284.85 380.77 278.74 376.35 279.43 M 384.29 279.22 C 377.55 282.31 383.27 291.92 389.95 288.00 C 390.86 283.31 390.11 277.98 384.29 279.22 Z" />
</g>
<g id="#60c4dfff">
<path fill="#60c4df" opacity="1.00" d=" M 467.12 246.00 C 469.36 243.93 471.69 241.99 474.03 240.03 C 474.00 244.00 473.97 247.97 473.94 251.95 L 473.81 252.80 C 471.75 256.06 467.78 258.74 467.92 262.98 C 469.96 262.79 471.97 262.35 474.01 262.04 C 473.98 263.62 473.96 265.21 473.93 266.79 C 464.00 269.52 452.76 268.54 443.64 273.79 C 450.39 273.92 457.15 274.02 463.91 274.10 C 464.05 278.68 463.86 283.28 464.03 287.86 C 467.42 286.70 470.69 285.26 474.06 284.03 C 474.91 291.61 472.55 301.46 463.68 302.66 C 444.10 303.49 424.38 302.95 404.77 302.73 C 414.02 297.85 424.43 296.87 434.38 294.26 C 423.18 293.67 411.97 294.21 400.77 293.84 C 402.59 292.07 405.80 291.00 406.09 288.17 C 404.61 286.05 400.06 280.94 405.94 280.80 C 403.89 280.00 403.20 277.51 401.10 276.99 C 400.82 278.62 400.62 280.26 400.56 281.92 C 399.74 282.32 398.91 282.73 398.10 283.14 C 394.95 284.34 391.79 280.24 396.41 281.55 C 400.05 282.71 396.48 279.15 394.96 278.72 C 396.84 276.60 398.79 274.51 399.96 271.90 C 403.62 270.33 407.45 268.94 410.37 266.12 L 411.02 266.48 C 415.04 268.81 419.09 271.46 423.76 272.21 C 427.24 273.03 430.74 273.05 434.25 272.30 C 440.13 271.68 445.11 268.19 450.01 265.13 C 453.37 263.38 458.92 262.39 458.79 257.69 C 460.80 253.33 465.91 250.92 467.12 246.00 M 453.28 277.12 C 454.03 281.74 447.34 278.42 447.02 282.04 C 443.59 288.24 451.95 288.36 454.96 288.02 C 453.20 285.91 458.19 275.92 453.28 277.12 M 410.29 279.27 C 404.31 280.90 407.28 291.30 414.00 288.01 C 415.71 284.74 406.39 286.40 411.98 284.95 C 417.55 285.23 414.24 277.99 410.29 279.27 M 425.28 279.24 C 419.61 281.44 422.58 290.98 429.01 288.01 C 429.85 284.65 425.31 286.95 424.06 284.81 C 423.79 282.04 426.84 280.37 429.18 281.74 C 429.18 279.91 426.79 278.87 425.28 279.24 M 417.07 280.01 C 416.90 282.74 416.91 285.48 417.07 288.23 C 419.69 286.98 419.21 283.85 419.23 281.35 C 422.16 281.50 425.39 276.96 417.07 280.01 M 432.29 280.17 C 425.56 284.86 435.59 290.76 439.00 286.95 C 439.85 281.75 439.14 277.40 432.29 280.17 M 441.07 280.01 C 440.89 282.67 440.87 285.33 441.01 288.00 C 445.18 289.33 441.31 282.25 443.17 281.32 C 446.17 281.57 449.34 276.99 441.07 280.01 Z" />
</g>
<g id="#90d3e6ff">
<path fill="#90d3e6" opacity="1.00" d=" M 255.20 250.24 C 255.04 247.07 255.32 243.89 255.80 240.77 C 255.95 243.94 255.60 247.08 255.20 250.24 Z" />
</g>
<g id="#1b1b1b35">
<path fill="#1b1b1b" opacity="0.21" d=" M 473.94 251.95 C 480.93 244.54 481.78 262.11 474.05 261.16 C 473.95 258.37 473.87 255.58 473.81 252.80 L 473.94 251.95 Z" />
</g>
<g id="#9cd7e8ff">
<path fill="#9cd7e8" opacity="1.00" d=" M 253.03 251.09 C 253.74 251.76 254.42 252.45 255.09 253.18 C 254.85 257.27 251.49 253.38 253.03 251.09 Z" />
</g>
<g id="#fafdfeff">
<path fill="#fafdfe" opacity="1.00" d=" M 329.80 302.94 C 336.15 284.50 346.43 267.33 359.61 252.97 C 361.10 259.46 364.82 264.82 369.01 269.85 C 365.36 275.35 355.78 272.09 358.45 281.49 C 353.61 288.65 348.11 295.39 343.88 302.97 C 339.18 303.02 334.48 302.95 329.80 302.94 Z" />
<path fill="#fafdfe" opacity="1.00" d=" M 349.69 303.15 C 352.87 299.81 355.48 295.97 358.43 292.43 C 363.94 296.54 371.94 292.72 378.28 294.10 C 374.75 296.96 371.29 299.93 368.08 303.16 C 361.94 303.03 355.81 303.01 349.69 303.15 Z" />
</g>
<g id="#ecf8fbff">
<path fill="#ecf8fb" opacity="1.00" d=" M 467.92 262.98 C 467.78 258.74 471.75 256.06 473.81 252.80 C 473.87 255.58 473.95 258.37 474.05 261.16 L 474.01 262.04 C 471.97 262.35 469.96 262.79 467.92 262.98 Z" />
</g>
<g id="#399dc3ff">
<path fill="#399dc3" opacity="1.00" d=" M 210.14 269.31 C 227.24 278.25 244.70 287.77 257.15 302.92 C 246.17 303.04 235.20 303.08 224.23 302.86 C 222.04 302.01 219.84 301.16 217.76 300.08 C 223.21 298.57 235.17 304.27 238.08 297.12 C 229.96 297.82 221.23 297.43 213.74 294.02 C 218.54 293.96 223.43 295.57 228.10 293.82 C 223.62 288.55 214.23 293.14 208.71 288.13 C 214.90 287.52 221.04 289.23 227.15 289.23 C 229.37 289.78 229.62 286.93 227.74 286.39 C 220.29 286.38 212.55 284.94 205.75 281.98 C 210.59 280.33 219.64 287.21 222.07 281.25 C 215.58 279.83 208.73 279.17 202.75 276.10 C 208.60 275.98 214.42 278.75 220.20 276.72 C 213.96 272.96 206.18 273.48 199.65 270.33 C 202.27 270.07 207.52 269.56 210.14 269.31 Z" />
</g>
<g id="#9c6576ff">
<path fill="#9c6576" opacity="1.00" d=" M 386.76 272.21 C 390.26 272.13 393.72 272.19 397.24 272.25 C 393.73 273.01 390.24 273.00 386.76 272.21 Z" />
</g>
<g id="#aeb171ff">
<path fill="#aeb171" opacity="1.00" d=" M 423.76 272.21 C 427.26 272.13 430.72 272.21 434.25 272.30 C 430.74 273.05 427.24 273.03 423.76 272.21 Z" />
</g>
<g id="#e7f6faff">
<path fill="#e7f6fa" opacity="1.00" d=" M 401.10 276.99 C 403.20 277.51 403.89 280.00 405.94 280.80 C 400.06 280.94 404.61 286.05 406.09 288.17 C 401.83 289.11 400.31 285.55 400.56 281.92 C 400.62 280.26 400.82 278.62 401.10 276.99 Z" />
</g>
<g id="#e9f6fbff">
<path fill="#e9f6fb" opacity="1.00" d=" M 453.28 277.12 C 458.19 275.92 453.20 285.91 454.96 288.02 C 451.95 288.36 443.59 288.24 447.02 282.04 C 447.34 278.42 454.03 281.74 453.28 277.12 M 450.25 281.18 C 448.17 282.12 446.87 285.75 450.06 285.99 C 453.86 287.19 454.03 279.91 450.25 281.18 Z" />
</g>
<g id="#e0f4f9ff">
<path fill="#e0f4f9" opacity="1.00" d=" M 376.35 279.43 C 380.77 278.74 380.23 284.85 380.00 287.98 C 375.62 289.18 379.67 282.67 376.79 281.10 C 373.01 280.41 374.05 285.59 373.88 288.11 C 371.52 286.98 373.01 282.32 371.79 280.96 C 368.07 280.71 369.00 285.35 368.88 287.95 C 364.55 289.20 367.49 282.64 367.06 280.12 C 370.12 280.03 373.33 280.18 376.35 279.43 Z" />
</g>
<g id="#dcf2f8ff">
<path fill="#dcf2f8" opacity="1.00" d=" M 384.29 279.22 C 390.11 277.98 390.86 283.31 389.95 288.00 C 383.27 291.92 377.55 282.31 384.29 279.22 M 384.22 281.11 C 381.82 282.39 383.01 286.84 385.94 285.99 C 389.77 285.63 387.83 279.27 384.22 281.11 Z" />
</g>
<g id="#daf1f8ff">
<path fill="#daf1f8" opacity="1.00" d=" M 396.23 285.82 C 391.69 284.47 389.12 280.54 394.96 278.72 C 396.48 279.15 400.05 282.71 396.41 281.55 C 391.79 280.24 394.95 284.34 398.10 283.14 C 401.17 291.92 382.03 285.24 396.23 285.82 Z" />
</g>
<g id="#dbf2f8ff">
<path fill="#dbf2f8" opacity="1.00" d=" M 410.29 279.27 C 414.24 277.99 417.55 285.23 411.98 284.95 C 406.39 286.40 415.71 284.74 414.00 288.01 C 407.28 291.30 404.31 280.90 410.29 279.27 M 410.18 281.17 C 407.06 285.40 416.94 281.27 410.18 281.17 Z" />
</g>
<g id="#dff3f9ff">
<path fill="#dff3f9" opacity="1.00" d=" M 425.28 279.24 C 426.79 278.87 429.18 279.91 429.18 281.74 C 426.84 280.37 423.79 282.04 424.06 284.81 C 425.31 286.95 429.85 284.65 429.01 288.01 C 422.58 290.98 419.61 281.44 425.28 279.24 Z" />
</g>
<g id="#e5f5faff">
<path fill="#e5f5fa" opacity="1.00" d=" M 417.07 280.01 C 425.39 276.96 422.16 281.50 419.23 281.35 C 419.21 283.85 419.69 286.98 417.07 288.23 C 416.91 285.48 416.90 282.74 417.07 280.01 Z" />
</g>
<g id="#e4f5faff">
<path fill="#e4f5fa" opacity="1.00" d=" M 432.29 280.17 C 439.14 277.40 439.85 281.75 439.00 286.95 C 435.59 290.76 425.56 284.86 432.29 280.17 M 433.21 281.09 C 432.21 282.67 431.16 285.88 434.06 285.99 C 438.58 286.88 437.45 279.13 433.21 281.09 Z" />
</g>
<g id="#ecf7fbff">
<path fill="#ecf7fb" opacity="1.00" d=" M 441.07 280.01 C 449.34 276.99 446.17 281.57 443.17 281.32 C 441.31 282.25 445.18 289.33 441.01 288.00 C 440.87 285.33 440.89 282.67 441.07 280.01 Z" />
</g>
<g id="#5ec6e0ff">
<path fill="#5ec6e0" opacity="1.00" d=" M 384.22 281.11 C 387.83 279.27 389.77 285.63 385.94 285.99 C 383.01 286.84 381.82 282.39 384.22 281.11 Z" />
</g>
<g id="#69c8e2ff">
<path fill="#69c8e2" opacity="1.00" d=" M 410.18 281.17 C 416.94 281.27 407.06 285.40 410.18 281.17 Z" />
</g>
<g id="#6fc9e3ff">
<path fill="#6fc9e3" opacity="1.00" d=" M 433.21 281.09 C 437.45 279.13 438.58 286.88 434.06 285.99 C 431.16 285.88 432.21 282.67 433.21 281.09 Z" />
<path fill="#6fc9e3" opacity="1.00" d=" M 450.25 281.18 C 454.03 279.91 453.86 287.19 450.06 285.99 C 446.87 285.75 448.17 282.12 450.25 281.18 Z" />
</g>
<g id="#9ddbeaff">
<path fill="#9ddbea" opacity="1.00" d=" M 309.17 303.28 C 309.10 299.10 309.13 294.90 309.72 290.77 C 309.82 294.83 309.93 298.89 310.05 302.97 L 309.17 303.28 Z" />
</g>
<g id="#98daeaff">
<path fill="#98daea" opacity="1.00" d=" M 317.94 302.96 C 318.10 299.21 318.37 295.48 318.75 291.75 C 318.97 295.49 318.97 299.20 318.93 302.95 L 317.94 302.96 Z" />
</g>
<g id="#2020203f">
<path fill="#202020" opacity="0.25" d=" M 273.86 303.08 C 285.63 302.96 297.40 302.85 309.17 303.28 C 300.09 307.56 289.09 304.07 279.42 306.62 C 276.74 307.55 275.45 304.63 273.86 303.08 Z" />
</g>
<g id="#20202043">
<path fill="#202020" opacity="0.26" d=" M 349.69 303.15 C 355.81 303.01 361.94 303.03 368.08 303.16 C 362.23 305.40 355.69 303.54 349.69 303.15 Z" />
</g>
<g id="#1f1f1f3d">
<path fill="#1f1f1f" opacity="0.24" d=" M 383.93 302.96 C 384.38 302.94 385.30 302.89 385.76 302.87 C 391.57 302.94 397.39 303.10 403.22 303.24 C 398.54 305.75 393.25 306.42 387.98 306.06 C 380.45 309.43 383.27 305.36 383.93 302.96 Z" />
</g>
</svg>
