<?xml version="1.0" encoding="iso-8859-1"?>
<!-- Generator: Adobe Illustrator 19.0.0, SVG Export Plug-In . SVG Version: 6.00 Build 0)  -->
<svg version="1.1" id="Capa_1" xmlns="http://www.w3.org/2000/svg" xmlns:xlink="http://www.w3.org/1999/xlink" x="0px" y="0px"
	 viewBox="0 0 410.976 410.976" style="enable-background:new 0 0 410.976 410.976;" xml:space="preserve">
<path style="fill:#748DA3;" d="M279.13,284.095c-22.41-9.713-39.201-12.674-39.201-12.674l-34.442-0.422l-34.441,0.423
	c0,0-16.792,2.961-39.202,12.674c-49.831,21.596-81.598,71.652-79.726,125.93c0.011,0.316,0.022,0.633,0.035,0.95h153.334h153.334
	c0.012-0.317,0.023-0.634,0.035-0.95C360.727,355.748,328.961,305.691,279.13,284.095z"/>
<path style="fill:#2F4359;" d="M279.13,284.095c-22.41-9.713-39.201-12.674-39.201-12.674l-29.025-0.356l139.91,139.91h8.008
	c0.012-0.317,0.023-0.634,0.035-0.95C360.727,355.748,328.961,305.691,279.13,284.095z"/>
<g>
	<polygon style="fill:#FEAA3B;" points="205.487,362.599 116.71,362.599 116.71,410.975 205.487,410.975 294.264,410.975 
		294.264,362.599 	"/>
	<path style="fill:#FEAA3B;" d="M132.829,392.598c8.903,0,16.12-7.218,16.12-16.12V277.5c-5.117,1.737-10.882,3.897-17.105,6.595
		c-5.256,2.277-10.298,4.891-15.134,7.773v84.609C116.71,385.381,123.926,392.598,132.829,392.598z"/>
</g>
<circle style="fill:#4D4D4D;" cx="132.827" cy="376.178" r="7.531"/>
<path style="fill:#FEAA3B;" d="M278.145,392.598c-8.903,0-16.12-7.218-16.12-16.12V277.5c5.117,1.737,10.882,3.897,17.104,6.595
	c5.257,2.277,10.299,4.891,15.135,7.773v84.609C294.264,385.381,287.048,392.598,278.145,392.598z"/>
<circle style="fill:#4D4D4D;" cx="278.147" cy="376.178" r="7.531"/>
<path style="fill:#FFFFFF;" d="M239.928,271.422l-34.441-0.423l-34.441,0.423c0,0-4.784,0.853-12.605,3.099
	c0.855,9.914,6.845,37.411,47.046,37.411s46.191-27.497,47.046-37.411C244.712,272.274,239.928,271.422,239.928,271.422z"/>
<path style="fill:#CCCCCC;" d="M210.903,271.065l29.467,29.468c9.459-8.763,11.671-20.302,12.163-26.013
	c-7.821-2.246-12.604-3.099-12.604-3.099L210.903,271.065z"/>
<g>
	<path style="fill:#FFC9A4;" d="M138.067,179.436h2.549l-0.791-42.715h-1.759c-11.795,0-21.357,9.562-21.357,21.357l0,0
		C116.71,169.874,126.272,179.436,138.067,179.436z"/>
	<path style="fill:#FFC9A4;" d="M205.487,224.019h-35.054v47.402c0,19.36,15.694,28.543,35.054,28.543
		c19.359,0,35.055-9.183,35.055-28.543v-47.402H205.487z"/>
</g>
<path style="fill:#4D4D4D;" d="M139.825,105.29h-18.077c0,0-1.031,17.001,3.585,32.715c1.164,3.959,3.089,7.694,5.885,10.729
	c2.093,2.271,4.929,4.517,8.606,5.784L139.825,105.29L139.825,105.29z"/>
<path style="fill:#DD9666;" d="M170.433,224.019v6.576l61.215,61.215c5.515-4.697,8.894-11.443,8.894-20.389v-47.402h-35.055
	L170.433,224.019L170.433,224.019z"/>
<path style="fill:#FFC9A4;" d="M205.487,105.29h-65.662v68.538c0,36.264,29.397,65.662,65.662,65.662l0,0l0,0
	c36.264,0,65.662-29.397,65.662-65.662V105.29H205.487z"/>
<path style="fill:#FFFFFF;" d="M167.432,187.381c-4.12,0-7.024,4.15-5.494,7.976c3.199,7.999,10.617,19.921,27.304,25.595
	c10.495,3.568,21.997,3.568,32.492,0c16.687-5.674,24.104-17.596,27.303-25.595c1.53-3.825-1.374-7.976-5.494-7.976L167.432,187.381
	L167.432,187.381z"/>
<polygon style="fill:#DD9666;" points="139.825,105.29 139.825,126.08 271.149,126.08 271.149,105.29 205.487,105.29 "/>
<path style="fill:#4D4D4D;" d="M232.764,155.702L232.764,155.702c2.404,0,4.354-1.95,4.354-4.355v-8.165
	c0-2.405-1.95-4.355-4.354-4.355l0,0c-2.406,0-4.355,1.95-4.355,4.355v8.165C228.409,153.752,230.358,155.702,232.764,155.702z"/>
<path style="fill:#DD9666;" d="M272.907,179.436h-2.117l0.249-42.705l1.868-0.01c11.795,0,21.357,9.562,21.357,21.357l0,0
	C294.264,169.874,284.702,179.436,272.907,179.436z"/>
<path style="fill:#4D4D4D;" d="M271.149,105.29h18.076c0,0,1.031,17.001-3.585,32.715c-1.163,3.959-3.089,7.694-5.886,10.729
	c-2.092,2.271-4.928,4.517-8.605,5.784V105.29z"/>
<path style="fill:#FEAA3B;" d="M205.487,93.947h-86.333c-5.935,0-10.747,4.811-10.747,10.746l0,0
	c0,5.936,4.812,10.747,10.747,10.747h86.333h86.332c5.936,0,10.747-4.811,10.747-10.747l0,0c0-5.935-4.812-10.746-10.747-10.746
	H205.487z"/>
<path style="fill:#D87B16;" d="M288.887,84.865c-2.14-44.503-38.846-79.486-83.4-79.486l0,0l0,0
	c-44.555,0-81.261,34.983-83.4,79.486l-0.437,9.082h83.837h83.837L288.887,84.865z"/>
<g>
	<path style="fill:#FEAA3B;" d="M212.919,0.663c-4.248-0.768-7.432-0.657-7.432-0.657s-3.184-0.111-7.431,0.657
		c-1.912,0.346-3.315,2.008-3.315,3.952v89.332h10.746h10.746V4.615C216.233,2.672,214.83,1.009,212.919,0.663z"/>
	<path style="fill:#FEAA3B;" d="M266.15,24.32c-3.004-3.024-7.704-7.16-14.116-11.076c-1.473-0.9-3.379,0.161-3.379,1.886v78.817
		h21.493V34.078C270.148,30.422,268.726,26.914,266.15,24.32z"/>
</g>
<path style="fill:#4D4D4D;" d="M178.21,155.702L178.21,155.702c-2.405,0-4.355-1.95-4.355-4.355v-8.165
	c0-2.405,1.95-4.355,4.355-4.355l0,0c2.405,0,4.355,1.95,4.355,4.355v8.165C182.566,153.752,180.615,155.702,178.21,155.702z"/>
<path style="fill:#FEAA3B;" d="M144.824,24.32c3.004-3.024,7.704-7.16,14.116-11.076c1.473-0.9,3.379,0.161,3.379,1.886v78.817
	h-21.493V34.078C140.826,30.422,142.248,26.914,144.824,24.32z"/>
<path style="fill:#D87B16;" d="M262.025,277.501v44.687l32.239,32.24v-62.559c-4.836-2.883-9.878-5.496-15.135-7.773
	C272.907,281.398,267.142,279.238,262.025,277.501z"/>
<g>
</g>
<g>
</g>
<g>
</g>
<g>
</g>
<g>
</g>
<g>
</g>
<g>
</g>
<g>
</g>
<g>
</g>
<g>
</g>
<g>
</g>
<g>
</g>
<g>
</g>
<g>
</g>
<g>
</g>
</svg>
