<?xml version="1.0" encoding="iso-8859-1"?>
<!-- Generator: Adobe Illustrator 19.0.0, SVG Export Plug-In . SVG Version: 6.00 Build 0)  -->
<svg version="1.1" id="Layer_1" xmlns="http://www.w3.org/2000/svg" xmlns:xlink="http://www.w3.org/1999/xlink" x="0px" y="0px"
	 viewBox="0 0 481.882 481.882" style="enable-background:new 0 0 481.882 481.882;" xml:space="preserve">
<g>
	<path style="fill:#5B5C5F;" d="M414.592,180.706c12.205,0,22.114,9.901,22.114,22.114c0,5.18-1.815,10.195-5.128,14.163
		l-70.167,84.186V180.698h53.18V180.706z"/>
	<path style="fill:#5B5C5F;" d="M414.592,331.287c12.205,0,22.114,9.901,22.114,22.121c0,5.18-1.815,10.195-5.128,14.163
		l-70.167,84.186V331.287H414.592z"/>
	<path style="fill:#5B5C5F;" d="M120.471,180.706v120.471l-70.167-84.201c-3.305-3.968-5.128-8.983-5.128-14.163
		c0-12.205,9.901-22.114,22.114-22.114L120.471,180.706L120.471,180.706z"/>
	<path style="fill:#5B5C5F;" d="M414.592,30.118c12.205,0,22.114,9.901,22.114,22.114c0,5.18-1.815,10.195-5.128,14.163
		l-70.167,84.194V30.118C361.412,30.118,414.592,30.118,414.592,30.118z"/>
	<path style="fill:#5B5C5F;" d="M120.471,30.118v120.471L50.304,66.387c-3.305-3.968-5.128-8.983-5.128-14.163
		c0-12.205,9.901-22.114,22.114-22.114L120.471,30.118L120.471,30.118z"/>
	<path style="fill:#5B5C5F;" d="M120.471,331.287v120.471l-70.167-84.194c-3.305-3.968-5.128-8.983-5.128-14.163
		c0-12.205,9.901-22.114,22.114-22.114H120.471L120.471,331.287z"/>
</g>
<path style="fill:#212121;" d="M150.588,0c-16.64,0-30.118,13.478-30.118,30.118v30.645v89.826v301.176
	c0,16.648,13.478,30.118,30.118,30.118h180.706c16.64,0,30.118-13.47,30.118-30.118V150.588V60.762V30.118
	C361.412,13.478,347.919,0,331.294,0C331.294,0,150.588,0,150.588,0z"/>
<circle style="fill:#D32F2F;" cx="240.941" cy="90.353" r="60.235"/>
<circle style="fill:#EF6C00;" cx="240.941" cy="240.941" r="60.235"/>
<circle style="fill:#26A69A;" cx="240.941" cy="391.522" r="60.235"/>
<path style="fill:#EF5350;" d="M240.941,30.118c-33.272,0-60.235,26.963-60.235,60.235c0,17.506,7.507,33.22,19.433,44.228
	l85.03-85.03C274.161,37.624,258.447,30.118,240.941,30.118z"/>
<path style="fill:#FB8C00;" d="M240.941,180.706c-33.272,0-60.235,26.963-60.235,60.235c0,17.513,7.507,33.22,19.433,44.235
	l85.03-85.03C274.161,188.213,258.447,180.706,240.941,180.706z"/>
<path style="fill:#4DB6AC;" d="M240.941,331.287c-33.272,0-60.235,26.97-60.235,60.235c0,17.513,7.507,33.22,19.433,44.235
	l85.03-85.03C274.161,338.801,258.447,331.287,240.941,331.287z"/>
<g>
</g>
<g>
</g>
<g>
</g>
<g>
</g>
<g>
</g>
<g>
</g>
<g>
</g>
<g>
</g>
<g>
</g>
<g>
</g>
<g>
</g>
<g>
</g>
<g>
</g>
<g>
</g>
<g>
</g>
</svg>
