<?xml version="1.0" encoding="iso-8859-1"?>
<!-- Generator: Adobe Illustrator 19.0.0, SVG Export Plug-In . SVG Version: 6.00 Build 0)  -->
<svg version="1.1" id="Layer_1" xmlns="http://www.w3.org/2000/svg" xmlns:xlink="http://www.w3.org/1999/xlink" x="0px" y="0px"
	 viewBox="0 0 481.882 481.882" style="enable-background:new 0 0 481.882 481.882;" xml:space="preserve">
<g>
	<path style="fill:#FFFFFF;" d="M414.592,180.706c12.205,0,22.114,9.894,22.114,22.114c0,5.18-1.815,10.18-5.128,14.155
		l-70.167,84.201V180.706H414.592z"/>
	<path style="fill:#FFFFFF;" d="M414.592,331.294c12.205,0,22.114,9.894,22.114,22.121c0,5.18-1.815,10.18-5.128,14.148
		l-70.167,84.201V331.294H414.592z"/>
	<path style="fill:#FFFFFF;" d="M120.471,180.706v120.471l-70.167-84.209c-3.313-3.976-5.128-8.975-5.128-14.155
		c0-12.213,9.894-22.114,22.114-22.114L120.471,180.706L120.471,180.706z"/>
	<path style="fill:#FFFFFF;" d="M414.592,30.118c12.205,0,22.114,9.894,22.114,22.114c0,5.18-1.815,10.18-5.128,14.155
		l-70.167,84.201V30.118H414.592z"/>
	<path style="fill:#FFFFFF;" d="M120.471,30.118v120.471L50.304,66.379c-3.313-3.976-5.128-8.975-5.128-14.155
		c0-12.213,9.894-22.114,22.114-22.114L120.471,30.118L120.471,30.118z"/>
	<path style="fill:#FFFFFF;" d="M120.471,331.294v120.471l-70.167-84.209c-3.313-3.976-5.128-8.975-5.128-14.163
		c0-12.205,9.894-22.114,22.114-22.114L120.471,331.294L120.471,331.294z"/>
</g>
<path style="fill:#4C2720;" d="M150.588,0c-16.632,0-30.118,13.485-30.118,30.118v30.645v89.826v301.176
	c0,16.64,13.478,30.118,30.118,30.118h180.706c16.64,0,30.118-13.478,30.118-30.118V150.588V60.762V30.118
	C361.412,13.485,347.927,0,331.294,0H150.588z"/>
<g>
	<circle style="fill:#FF8000;" cx="240.919" cy="90.353" r="60.235"/>
	<circle style="fill:#FF8000;" cx="240.919" cy="240.941" r="60.235"/>
	<circle style="fill:#FF8000;" cx="240.919" cy="391.529" r="60.235"/>
</g>
<g>
	<path style="fill:#FFAA00;" d="M240.941,30.118c-33.272,0-60.235,26.963-60.235,60.235c0,17.506,7.507,33.22,19.433,44.22
		l85.022-85.022C274.161,37.624,258.447,30.118,240.941,30.118z"/>
	<path style="fill:#FFAA00;" d="M240.941,180.706c-33.272,0-60.235,26.963-60.235,60.235c0,17.506,7.507,33.22,19.433,44.22
		l85.022-85.022C274.161,188.213,258.447,180.706,240.941,180.706z"/>
	<path style="fill:#FFAA00;" d="M240.941,331.294c-33.272,0-60.235,26.963-60.235,60.235c0,17.506,7.507,33.22,19.433,44.22
		l85.022-85.022C274.161,338.801,258.447,331.294,240.941,331.294z"/>
</g>
<g>
</g>
<g>
</g>
<g>
</g>
<g>
</g>
<g>
</g>
<g>
</g>
<g>
</g>
<g>
</g>
<g>
</g>
<g>
</g>
<g>
</g>
<g>
</g>
<g>
</g>
<g>
</g>
<g>
</g>
</svg>
