<svg id="Filled_outline" height="512" viewBox="0 0 64 64" width="512" xmlns="http://www.w3.org/2000/svg" data-name="Filled outline"><path d="m27 35h-4a3 3 0 0 1 -3-3 3 3 0 0 1 3-3h4z" fill="#f2cca0"/><path d="m3 2v17a6 6 0 0 0 6 6h46a6 6 0 0 0 6-6v-17" fill="#898989"/><path d="m22 6h20a2 2 0 0 1 2 2v17a0 0 0 0 1 0 0h-24a0 0 0 0 1 0 0v-17a2 2 0 0 1 2-2z" fill="#a8d8ff"/><rect fill="#73c97c" height="4" rx="1" width="4" x="9" y="15"/><path d="m40 62v-6.26713a7.99993 7.99993 0 0 1 .71707-3.31042l3.56586-7.8449a7.99993 7.99993 0 0 0 .71707-3.31042v-8.26713a4 4 0 0 0 -4-4h-5v-14a4 4 0 0 0 -4-4 4 4 0 0 0 -4 4v9.61484a2 2 0 0 1 -.143.74278l-1.7139 4.28476a2 2 0 0 0 -.143.74278v31.61484" fill="#ffd7a8"/><path d="m24 35h2a0 0 0 0 1 0 0v6a0 0 0 0 1 0 0h-2a3 3 0 0 1 -3-3 3 3 0 0 1 3-3z" fill="#e6c198"/><path d="m25 41h1a0 0 0 0 1 0 0v6a0 0 0 0 1 0 0h-1a3 3 0 0 1 -3-3 3 3 0 0 1 3-3z" fill="#d9b68e"/><path d="m32 10a5.00588 5.00588 0 0 0 -5 5v9.61475a1.00117 1.00117 0 0 1 -.07129.37109l-1.20636 3.01416h-2.72235a3.98794 3.98794 0 0 0 -2.035 7.42468 3.948 3.948 0 0 0 1 6 3.96315 3.96315 0 0 0 -.965 2.57532 4.00427 4.00427 0 0 0 4 4v14h2v-31.61475a1.00117 1.00117 0 0 1 .07129-.37109l1.71582-4.28716a2.99892 2.99892 0 0 0 .21289-1.11225v-9.61475a3 3 0 0 1 6 0v13h-2v2h8a3.00328 3.00328 0 0 1 3 3v8.26709a6.9518 6.9518 0 0 1 -.627 2.89648l-3.56636 7.84473a8.93952 8.93952 0 0 0 -.80664 3.72461v6.26709h2v-6.26709a6.9518 6.9518 0 0 1 .627-2.89648l3.56641-7.84473a8.93952 8.93952 0 0 0 .80659-3.72461v-8.26709a5.00588 5.00588 0 0 0 -5-5h-4v-13a5.00588 5.00588 0 0 0 -5-5zm-9 20h2.03632a3.00755 3.00755 0 0 0 -.03632.38525v3.61475h-2a2 2 0 0 1 0-4zm2 16a2 2 0 0 1 0-4zm-1-6a2 2 0 0 1 0-4h1v4z"/><path d="m60 2v17a5.00588 5.00588 0 0 1 -5 5h-10v-16a3.00328 3.00328 0 0 0 -3-3h-20a3.00328 3.00328 0 0 0 -3 3v16h-10a5.00588 5.00588 0 0 1 -5-5v-17h-2v17a7.00818 7.00818 0 0 0 7 7h15v-2h-3v-16a1.001 1.001 0 0 1 1-1h20a1.001 1.001 0 0 1 1 1v16h-4v2h16a7.00818 7.00818 0 0 0 7-7v-17z"/><path d="m50 20h2v2h-2z"/><path d="m54 20h2v2h-2z"/><path d="m10 20h2a2.00229 2.00229 0 0 0 2-2v-2a2.00229 2.00229 0 0 0 -2-2h-2a2.00229 2.00229 0 0 0 -2 2v2a2.00229 2.00229 0 0 0 2 2zm0-4h2l.001 2h-2.001z"/></svg>