<svg id="Layer_3" enable-background="new 0 0 64 64" height="512" viewBox="0 0 64 64" width="512" xmlns="http://www.w3.org/2000/svg"><path d="m62 37v-10h-4.485c-.678-3.481-2.047-6.716-3.964-9.55l3.449-3.45-7-7-3.45 3.45c-2.834-1.918-6.069-3.286-9.55-3.965v-4.485h-10v4.485c-3.481.678-6.716 2.047-9.55 3.964l-3.45-3.449-7 7 3.45 3.45c-1.918 2.834-3.286 6.069-3.965 9.55h-4.485v10h4.485c.678 3.481 2.047 6.716 3.964 9.55l-3.449 3.45 7 7 3.45-3.45c2.834 1.917 6.069 3.286 9.55 3.964v4.486h10v-4.485c3.481-.678 6.716-2.047 9.55-3.964l3.45 3.449 7-7-3.45-3.45c1.917-2.834 3.286-6.069 3.964-9.55z" fill="#666"/><circle cx="32" cy="32" fill="#fff" r="22"/><path d="m26 35 10-10v-2l5-5 5 5-5 5h-2l-10 10z" fill="#c3ad94"/><path d="m38 35-10-10v-2l-5-5-5 5 5 5h2l10 10z" fill="#c3ad94"/><path d="m25 34-6.293 6.293c-.453.453-.707 1.067-.707 1.707 0 .64.254 1.254.707 1.707l1.586 1.586c.453.453 1.067.707 1.707.707.64 0 1.254-.254 1.707-.707l6.293-6.293z" fill="#666"/><path d="m39 34 6.293 6.293c.453.453.707 1.067.707 1.707 0 .64-.254 1.254-.707 1.707l-1.586 1.586c-.453.453-1.067.707-1.707.707-.64 0-1.254-.254-1.707-.707l-6.293-6.293z" fill="#666"/><g fill="#92826f"><path d="m39.5 19.964h2v7.071h-2z" transform="matrix(.707 -.707 .707 .707 -4.755 35.521)"/><path d="m19.964 22.5h7.071v2h-7.071z" transform="matrix(.707 -.707 .707 .707 -9.734 23.5)"/></g></svg>