<svg id="Layer_1" enable-background="new 0 0 512 512" height="512" viewBox="0 0 512 512" width="512" xmlns="http://www.w3.org/2000/svg"><path id="XMLID_1235_" d="m501.698 471.536h-491.396c-5.69 0-10.302-4.612-10.302-10.301v-378.898h512v378.897c0 5.69-4.612 10.302-10.302 10.302z" fill="#9ce6fb"/><path id="XMLID_615_" d="m512 82.332v378.901c0 5.687-4.615 10.302-10.302 10.302h-32.451c5.687 0 10.302-4.615 10.302-10.302v-378.901z" fill="#68dbf9"/><path id="XMLID_1233_" d="m512 93.876h-512v-43.11c0-5.69 4.612-10.302 10.302-10.302h491.396c5.69 0 10.302 4.612 10.302 10.302z" fill="#5591d6"/><path id="XMLID_616_" d="m512 50.767v43.113h-32.451v-43.113c0-5.687-4.615-10.302-10.302-10.302h32.451c5.687 0 10.302 4.616 10.302 10.302z" fill="#1475cb"/><path id="XMLID_619_" d="m382.259 252.913c0 69.341-56.217 125.558-125.559 125.558-69.352 0-125.569-56.217-125.569-125.558 0-69.352 56.217-125.569 125.569-125.569 24.992 0 48.264 7.294 67.827 19.883 24.209 15.566 42.722 39.229 51.705 67.168 3.915 12.135 6.027 25.085 6.027 38.518z" fill="#5591d6"/><path id="XMLID_620_" d="m376.232 214.395c-4.595 1.648-9.529 2.575-14.68 2.617l-.391.01c-24.333 0-44.308-19.8-44.514-44.143-.082-9.509 2.843-18.368 7.881-25.651 24.209 15.565 42.721 39.228 51.704 67.167z" fill="#1475cb"/><path id="XMLID_621_" d="m337.387 349.109c-21.816 18.332-49.958 29.366-80.693 29.366-30.727 0-58.869-11.033-80.693-29.366 4.545-10.013 10.904-19.021 18.656-26.619 15.983-15.675 37.888-25.339 62.036-25.339 35.872-.001 66.76 21.312 80.694 51.958z" fill="#64e0c4"/><path id="XMLID_622_" d="m337.387 349.109c-5.201 4.375-10.758 8.328-16.631 11.811-8.465-31.277-33.845-56.73-67.707-63.689 1.207-.057 2.422-.081 3.645-.081 35.871 0 66.759 21.313 80.693 51.959z" fill="#27d1b3"/><path id="XMLID_624_" d="m273.441 295.305v25.188c0 9.241-7.5 16.74-16.74 16.74-9.251 0-16.751-7.5-16.751-16.74v-25.188z" fill="#ffa792"/><path id="XMLID_625_" d="m273.441 295.305v24.467c-5.326 1.494-10.941 2.297-16.74 2.297-5.8 0-11.414-.804-16.751-2.297v-24.467z" fill="#f69583"/><circle id="XMLID_1223_" cx="310.027" cy="241.132" fill="#fdb0a0" r="16.662"/><circle id="XMLID_1221_" cx="203.366" cy="241.132" fill="#fdb0a0" r="16.662"/><path id="XMLID_1218_" d="m256.696 306.617c-25.636 0-46.418-20.782-46.418-46.418v-51.278h92.836v51.278c0 25.636-20.782 46.418-46.418 46.418z" fill="#ffcec0"/><path id="XMLID_630_" d="m198.775 217.269v8.011c0 2.237 1.813 4.05 4.05 4.05h39.032c10.838 0 20.528-4.898 26.99-12.597 6.462 7.699 16.152 12.597 26.99 12.597h14.729c2.237 0 4.05-1.813 4.05-4.05v-8.011c0-31.989-25.932-57.921-57.921-57.921-31.988 0-57.92 25.933-57.92 57.921z" fill="#756f6f"/><path id="XMLID_631_" d="m314.615 217.267v8.012c0 2.236-1.815 4.05-4.05 4.05h-14.727c-.502 0-1.004-.008-1.507-.032 2.001-.243 3.548-1.952 3.548-4.018v-8.012c0-29.147-21.532-53.263-49.553-57.322 2.73-.397 5.525-.599 8.368-.599 31.99 0 57.921 25.931 57.921 57.921z" fill="#5b5555"/><circle id="XMLID_1212_" cx="361.165" cy="172.495" fill="#fb6672" r="29.07"/><path id="XMLID_1211_" d="m390.232 172.244c.139 16.049-12.762 29.177-28.812 29.316-2.701.023-5.318-.322-7.797-.994 12.249-3.509 21.158-14.84 21.042-28.188-.116-13.357-9.221-24.53-21.528-27.827 2.467-.714 5.077-1.105 7.779-1.129 16.048-.137 29.176 12.764 29.316 28.822z" fill="#fb4a59"/><path id="XMLID_634_" d="m361.209 185.483c-4.236 0-7.688-3.415-7.724-7.66l-.091-10.524c-.037-4.267 3.392-7.756 7.659-7.793 4.242-.036 7.756 3.392 7.793 7.66l.091 10.524c.037 4.267-3.392 7.756-7.659 7.793-.023 0-.047 0-.069 0z" fill="#faf7f7"/><circle id="XMLID_1206_" cx="197.951" cy="421.516" fill="#fcc16d" r="15.796"/><path id="XMLID_637_" d="m213.748 421.516c0 8.727-7.077 15.796-15.796 15.796-2.346 0-4.573-.513-6.571-1.43 5.442-2.496 9.217-7.985 9.217-14.367s-3.775-11.871-9.217-14.367c1.998-.916 4.225-1.43 6.571-1.43 8.719.002 15.796 7.07 15.796 15.798z" fill="#fca62f"/><circle id="XMLID_1203_" cx="255.999" cy="421.516" fill="#fcc16d" r="15.796"/><path id="XMLID_639_" d="m271.797 421.516c0 8.727-7.077 15.796-15.796 15.796-2.346 0-4.573-.513-6.571-1.43 5.442-2.496 9.217-7.985 9.217-14.367s-3.775-11.871-9.217-14.367c1.998-.916 4.225-1.43 6.571-1.43 8.719.002 15.796 7.07 15.796 15.798z" fill="#fca62f"/><circle id="XMLID_1200_" cx="314.048" cy="421.516" fill="#fb6672" r="15.796"/><path id="XMLID_641_" d="m329.845 421.516c0 8.727-7.077 15.796-15.796 15.796-2.346 0-4.573-.513-6.571-1.43 5.442-2.496 9.217-7.985 9.217-14.367s-3.775-11.871-9.217-14.367c1.998-.916 4.225-1.43 6.571-1.43 8.72.002 15.796 7.07 15.796 15.798z" fill="#fb4a59"/></svg>