<svg id="Layer" enable-background="new 0 0 64 64" height="512" viewBox="0 0 64 64" width="512" xmlns="http://www.w3.org/2000/svg"><circle cx="32" cy="32" fill="#e0f7fa" r="18"/><g fill="#012e52"><path d="m32 12c-8.015 0-15.222 4.807-18.351 12.087l-2.157-2.418c-.734-.826-2-.899-2.823-.161-.824.735-.896 1.999-.161 2.823l4.46 5c.386.433.931.669 1.492.669.195 0 .393-.028.585-.088l6.54-2c1.057-.322 1.65-1.44 1.327-2.497-.322-1.057-1.443-1.651-2.497-1.327l-2.746.839c2.659-5.404 8.197-8.927 14.331-8.927 7.525 0 13.937 5.115 15.589 12.44.21.929 1.035 1.56 1.949 1.56.146 0 .294-.016.442-.049 1.077-.243 1.754-1.313 1.511-2.392-2.067-9.161-10.082-15.559-19.491-15.559z"/><path d="m32 48c-7.525 0-13.937-5.115-15.589-12.44-.244-1.076-1.31-1.754-2.392-1.511-1.077.243-1.754 1.313-1.511 2.392 2.068 9.161 10.083 15.559 19.492 15.559 8.015 0 15.222-4.807 18.351-12.087l2.157 2.418c.394.443.942.669 1.493.669.474 0 .949-.167 1.33-.508.824-.735.896-1.999.161-2.823l-4.46-5c-.521-.583-1.333-.812-2.077-.581l-6.54 2c-1.057.322-1.65 1.44-1.327 2.497.322 1.057 1.439 1.647 2.497 1.327l2.746-.839c-2.659 5.404-8.197 8.927-14.331 8.927z"/></g></svg>