<svg id="Capa_1" enable-background="new 0 0 512 512" height="512" viewBox="0 0 512 512" width="512" xmlns="http://www.w3.org/2000/svg"><path d="m286.147 512h-60.281c-6.186 0-11.737-3.797-13.979-9.563l-26.421-67.93c-1.948-.774-3.88-1.579-5.79-2.411l-66.73 29.363c-5.662 2.491-12.273 1.252-16.647-3.123l-42.624-42.625c-4.374-4.374-5.614-10.984-3.124-16.646l29.693-67.495c-.66-1.559-1.301-3.128-1.921-4.705l-68.76-26.738c-5.765-2.242-9.563-7.794-9.563-13.98v-60.28c0-6.186 3.798-11.737 9.563-13.979l69.839-27.165c.435-1.056.879-2.11 1.332-3.16l-30.192-68.617c-2.491-5.663-1.251-12.273 3.123-16.648l42.624-42.625c4.373-4.373 10.984-5.614 16.646-3.124l69.384 30.524c.692-.291 1.386-.577 2.08-.859l27.474-70.652c2.241-5.764 7.793-9.562 13.98-9.562h60.281c6.186 0 11.737 3.797 13.979 9.563l27.479 70.649c.694.282 1.388.568 2.08.858l69.383-30.529c5.662-2.491 12.273-1.251 16.647 3.123l42.624 42.625c4.374 4.374 5.614 10.985 3.124 16.647l-30.188 68.617c.453 1.05.897 2.104 1.332 3.161l69.842 27.16c5.766 2.242 9.563 7.793 9.563 13.98v60.28c0 6.186-3.798 11.737-9.563 13.979l-68.756 26.742c-.619 1.577-1.26 3.146-1.921 4.707l29.698 67.493c2.491 5.663 1.251 12.273-3.123 16.648l-42.624 42.625c-4.372 4.374-10.983 5.615-16.646 3.124l-66.731-29.358c-1.909.832-3.841 1.636-5.789 2.411l-26.417 67.934c-2.241 5.763-7.793 9.561-13.98 9.561z" fill="#7ed6f4"/><path d="m502.437 211.873-69.842-27.16c-.435-1.057-.879-2.111-1.332-3.161l30.188-68.617c2.49-5.662 1.25-12.273-3.124-16.647l-42.624-42.625c-4.374-4.375-10.985-5.614-16.647-3.123l-69.384 30.53c-.692-.291-1.386-.577-2.08-.858l-27.479-70.649c-2.242-5.766-7.794-9.563-13.979-9.563h-30.134v512h30.147c6.187 0 11.738-3.798 13.98-9.563l26.417-67.934c1.948-.774 3.88-1.579 5.789-2.411l66.731 29.358c5.663 2.491 12.274 1.25 16.646-3.124l42.624-42.625c4.374-4.375 5.614-10.985 3.123-16.648l-29.698-67.493c.661-1.56 1.302-3.13 1.921-4.707l68.756-26.742c5.765-2.242 9.563-7.793 9.563-13.979v-60.28c.001-6.185-3.797-11.737-9.562-13.979z" fill="#2fbeee"/><path d="m256 369c-30.634 0-60.366-10.497-85.982-30.355-24.424-18.934-44.104-45.555-56.911-76.984-1.479-3.629-1.479-7.692 0-11.321 12.808-31.429 32.487-58.05 56.911-76.984 25.616-19.859 55.348-30.356 85.982-30.356s60.366 10.497 85.982 30.355c24.424 18.934 44.104 45.555 56.911 76.984 1.479 3.629 1.479 7.692 0 11.321-12.808 31.429-32.487 58.05-56.911 76.984-25.616 19.859-55.348 30.356-85.982 30.356z" fill="#e9dfda"/><path d="m258.002 316c-32.532 0-58.999-26.467-58.999-59s26.467-59 58.999-59c32.533 0 59.001 26.467 59.001 59s-26.468 59-59.001 59z" fill="#8ee16a"/><path d="m398.894 250.339c-12.808-31.429-32.487-58.05-56.911-76.984-25.617-19.858-55.349-30.355-85.983-30.355v226c30.634 0 60.366-10.497 85.982-30.355 24.424-18.934 44.104-45.555 56.911-76.984 1.48-3.629 1.48-7.693.001-11.322z" fill="#eee1dc"/><path d="m258.002 198c-.671 0-1.336.028-2.002.051v117.898c.666.022 1.331.051 2.002.051 32.533 0 59.001-26.467 59.001-59s-26.468-59-59.001-59z" fill="#00cab1"/></svg>